<?xml version="1.0" encoding="UTF-8" standalone="no"?>
<!-- Created with Inkscape (http://www.inkscape.org/) -->

<svg
   xmlns:dc="http://purl.org/dc/elements/1.1/"
   xmlns:cc="http://creativecommons.org/ns#"
   xmlns:rdf="http://www.w3.org/1999/02/22-rdf-syntax-ns#"
   xmlns:svg="http://www.w3.org/2000/svg"
   xmlns="http://www.w3.org/2000/svg"
   xmlns:sodipodi="http://sodipodi.sourceforge.net/DTD/sodipodi-0.dtd"
   xmlns:inkscape="http://www.inkscape.org/namespaces/inkscape"
   width="197.55556mm"
   height="179.21111mm"
   viewBox="0 0 700.00002 635"
   id="svg3735"
   version="1.1"
   inkscape:version="0.91 r13725"
   sodipodi:docname="iran.svg">
  <defs
     id="defs3737" />
  <sodipodi:namedview
     id="base"
     pagecolor="#ffffff"
     bordercolor="#666666"
     borderopacity="1.0"
     inkscape:pageopacity="0.0"
     inkscape:pageshadow="2"
     inkscape:zoom="1.0188976"
     inkscape:cx="314.59284"
     inkscape:cy="317.49998"
     inkscape:document-units="px"
     inkscape:current-layer="layer32"
     showgrid="false"
     inkscape:window-width="1440"
     inkscape:window-height="873"
     inkscape:window-x="-9"
     inkscape:window-y="-9"
     inkscape:window-maximized="1"
     fit-margin-top="0"
     fit-margin-left="0"
     fit-margin-right="0"
     fit-margin-bottom="0" />
  <metadata
     id="metadata3740">
    <rdf:RDF>
      <cc:Work
         rdf:about="">
        <dc:format>image/svg+xml</dc:format>
        <dc:type
           rdf:resource="http://purl.org/dc/dcmitype/StillImage" />
        <dc:title />
      </cc:Work>
    </rdf:RDF>
  </metadata>
  <g
     inkscape:groupmode="layer"
     id="layer2"
     inkscape:label="Layer 2"
     style="display:inline"
     transform="translate(307.84898,-461.1149)" />
  <g
     inkscape:groupmode="layer"
     id="layer3"
     inkscape:label="Layer 3"
     style="display:inline"
     transform="translate(307.84898,-461.1149)" />
  <g
     inkscape:groupmode="layer"
     id="layer4"
     inkscape:label="Layer 4"
     style="display:inline"
     transform="translate(307.84898,-461.1149)" />
  <g
     inkscape:groupmode="layer"
     id="layer5"
     inkscape:label="Layer 5"
     style="display:inline"
     transform="translate(307.84898,-461.1149)" />
  <g
     inkscape:groupmode="layer"
     id="layer6"
     inkscape:label="Layer 6"
     style="display:inline"
     transform="translate(307.84898,-461.1149)" />
  <g
     inkscape:groupmode="layer"
     id="layer7"
     inkscape:label="Layer 7"
     style="display:inline"
     transform="translate(307.84898,-461.1149)" />
  <g
     inkscape:groupmode="layer"
     id="layer8"
     inkscape:label="Layer 8"
     style="display:inline"
     transform="translate(307.84898,-461.1149)" />
  <g
     inkscape:groupmode="layer"
     id="layer9"
     inkscape:label="Layer 9"
     style="display:inline"
     transform="translate(307.84898,-461.1149)" />
  <g
     inkscape:groupmode="layer"
     id="layer10"
     inkscape:label="Booshehr"
     style="display:inline"
     transform="translate(307.84898,-461.1149)" />
  <g
     inkscape:groupmode="layer"
     id="layer11"
     inkscape:label="Layer 11"
     style="display:inline"
     transform="translate(307.84898,-461.1149)" />
  <g
     inkscape:groupmode="layer"
     id="layer12"
     inkscape:label="Layer 12"
     style="display:inline"
     transform="translate(307.84898,-461.1149)" />
  <g
     inkscape:groupmode="layer"
     id="layer13"
     inkscape:label="Layer 13"
     style="display:inline"
     transform="translate(307.84898,-461.1149)" />
  <g
     inkscape:groupmode="layer"
     id="layer14"
     inkscape:label="Layer 14"
     style="display:inline"
     transform="translate(307.84898,-461.1149)" />
  <g
     inkscape:groupmode="layer"
     id="layer15"
     inkscape:label="Tehran"
     style="display:inline"
     transform="translate(307.84898,-461.1149)" />
  <g
     inkscape:groupmode="layer"
     id="layer16"
     inkscape:label="Layer 16"
     style="display:inline"
     transform="translate(307.84898,-461.1149)" />
  <g
     inkscape:groupmode="layer"
     id="layer17"
     inkscape:label="Layer 17"
     style="display:inline"
     transform="translate(307.84898,-461.1149)" />
  <g
     inkscape:groupmode="layer"
     id="layer18"
     inkscape:label="Layer 18"
     style="display:inline"
     transform="translate(307.84898,-461.1149)" />
  <g
     inkscape:groupmode="layer"
     id="layer19"
     inkscape:label="Layer 19"
     style="display:inline"
     transform="translate(307.84898,-461.1149)" />
  <g
     inkscape:groupmode="layer"
     id="layer20"
     inkscape:label="Layer 20"
     style="display:inline"
     transform="translate(307.84898,-461.1149)" />
  <g
     inkscape:groupmode="layer"
     id="layer21"
     inkscape:label="Layer 21"
     style="display:inline"
     transform="translate(307.84898,-461.1149)" />
  <g
     inkscape:groupmode="layer"
     id="layer22"
     inkscape:label="Layer 22"
     style="display:inline"
     transform="translate(307.84898,-461.1149)" />
  <g
     inkscape:groupmode="layer"
     id="layer23"
     inkscape:label="Layer 23"
     style="display:inline"
     transform="translate(307.84898,-461.1149)" />
  <g
     inkscape:groupmode="layer"
     id="layer24"
     inkscape:label="Layer 24"
     style="display:inline"
     transform="translate(307.84898,-461.1149)" />
  <g
     inkscape:groupmode="layer"
     id="layer25"
     inkscape:label="Layer 25"
     style="display:inline"
     transform="translate(307.84898,-461.1149)" />
  <g
     inkscape:groupmode="layer"
     id="layer26"
     inkscape:label="Layer 26"
     style="display:inline"
     transform="translate(307.84898,-461.1149)" />
  <g
     inkscape:groupmode="layer"
     id="layer27"
     inkscape:label="Layer 27"
     style="display:inline"
     transform="translate(307.84898,-461.1149)" />
  <g
     inkscape:groupmode="layer"
     id="layer28"
     inkscape:label="Layer 28"
     style="display:inline"
     transform="translate(307.84898,-461.1149)" />
  <g
     inkscape:groupmode="layer"
     id="layer29"
     inkscape:label="Layer 29"
     style="display:inline"
     transform="translate(307.84898,-461.1149)" />
  <g
     inkscape:groupmode="layer"
     id="layer30"
     inkscape:label="Layer 30"
     style="display:inline"
     transform="translate(307.84898,-461.1149)" />
  <g
     inkscape:groupmode="layer"
     id="layer31"
     inkscape:label="Layer 31"
     style="display:inline"
     transform="translate(307.84898,-461.1149)" />
  <g
     inkscape:groupmode="layer"
     id="layer32"
     inkscape:label="Khoozestan"
     style="display:inline"
     transform="translate(307.84898,-461.1149)">
    <path
       style="display:inline;fill:#bec8b7;fill-opacity:1"
       d="m 269.85996,721.72125 c -3.50096,-1.51929 -8.65343,-3.55808 -11.44993,-4.53065 -4.63911,-1.6134 -5.31627,-1.64759 -7.7294,-0.39035 -3.004,1.56508 -7.75476,1.8258 -9.08334,0.49848 -0.58246,-0.58191 -6.3271,-0.55574 -16.57126,0.0755 l -15.67974,0.96614 -3.29265,-2.88824 c -2.79853,-2.45481 -3.71646,-2.78496 -6.1168,-2.20004 -1.55327,0.37849 -4.46096,0.72441 -6.4615,0.76869 -3.58219,0.0793 -3.63603,0.0322 -3.54887,-3.09915 0.0487,-1.74882 0.4013,-4.48121 0.78362,-6.07199 0.5914,-2.46077 0.31261,-3.27409 -1.86845,-5.45086 -2.03803,-2.03403 -2.7073,-3.74908 -3.26472,-8.36611 -0.38563,-3.19416 -1.35559,-6.80543 -2.15548,-8.02504 -1.91904,-2.92605 -6.59902,-4.79428 -11.96841,-4.77774 -6.65565,0.0206 -8.63189,1.41224 -13.44199,9.46642 -1.63213,2.7329 -7.39751,3.32412 -16.59547,1.70179 -4.62627,-0.81601 -8.4114,-1.73706 -8.4114,-2.04681 0,-0.30975 3.58053,-4.07686 7.95673,-8.37138 6.54594,-6.42373 8.95463,-8.16813 13.58474,-9.83823 5.83281,-2.10391 6.12367,-2.43481 9.31283,-10.59483 0.61537,-1.57455 2.10897,-3.79208 3.3191,-4.92786 1.21013,-1.13577 2.20023,-2.77353 2.20023,-3.63945 0,-1.51267 -8.50398,-9.91906 -10.03421,-9.91906 -1.62984,0 -5.30343,-9.80809 -5.88118,-15.70211 -0.51282,-5.2317 -0.31783,-6.71186 1.29025,-9.7941 2.45554,-4.70657 2.39174,-6.84146 -0.25624,-8.57483 -1.6882,-1.1051 -2.69952,-1.1993 -4.70352,-0.4381 -3.71324,1.41043 -4.96945,0.55027 -4.95268,-3.39122 0.014,-3.28425 0.32725,-3.63783 7.12442,-8.04159 l 7.10978,-4.6063 4.01502,1.79444 c 2.20826,0.98695 10.28878,4.8763 17.95672,8.643 15.64255,7.68405 15.68205,7.68576 19.00993,0.82424 1.54748,-3.19064 3.11839,-4.78347 6.56702,-6.65866 l 4.53298,-2.46481 -1.56525,-2.64723 c -1.508,-2.55042 -1.49684,-2.70344 0.30525,-4.18485 1.02877,-0.84569 2.32959,-2.61773 2.89072,-3.93785 0.88828,-2.08976 0.73449,-2.66843 -1.18888,-4.47362 -1.23666,-1.16068 -2.20913,-3.10938 -2.20913,-4.4268 0,-1.29437 -0.81361,-3.86997 -1.80801,-5.72355 -2.17792,-4.05966 -3.5249,-13.40975 -1.93182,-13.40975 0.5815,0 1.30171,1.22104 1.60047,2.71342 0.4334,2.16491 1.21005,2.89847 3.84197,3.62884 4.52794,1.25651 6.11769,1.15919 7.75309,-0.47466 1.24482,-1.24363 1.6922,-1.25006 4.00062,-0.0575 2.82913,1.46161 5.80835,1.40687 6.31647,-0.11606 0.44261,-1.32658 5.06975,0.36165 10.23546,3.73446 2.25062,1.46948 5.31964,2.92879 6.82005,3.24292 2.47582,0.51833 2.77488,0.97545 3.23483,4.9446 0.32055,2.76618 1.07248,4.68973 2.04602,5.23404 0.84656,0.47331 1.54627,1.35127 1.55492,1.95101 0.0328,2.28072 4.63331,5.46135 8.44318,5.8374 2.09947,0.20722 4.63562,1.12997 5.63589,2.05054 1.00028,0.92056 2.81703,1.8118 4.03723,1.98052 1.42298,0.19675 3.05343,1.63244 4.5467,4.00358 1.28049,2.03326 3.96497,6.26185 5.96553,9.39689 l 3.63736,5.70005 14.34338,-0.42063 c 12.46419,-0.36552 14.44963,-0.23095 15.15436,1.02713 0.48875,0.87252 0.45102,2.11968 -0.0949,3.13886 -0.49825,0.9301 -0.69428,1.90253 -0.43562,2.16094 0.25865,0.25842 0.0992,1.44486 -0.35428,2.63655 -0.60166,1.58098 -0.29947,3.53753 1.11783,7.23766 l 1.94239,5.07096 -1.98612,4.08414 c -2.03563,4.18597 -1.93212,5.78256 0.37491,5.78256 1.4877,0 1.5503,0.25427 1.90121,7.72205 0.14087,2.99797 0.32774,6.6773 0.41525,8.17628 0.22534,3.85972 -2.95175,12.07489 -4.86539,12.58073 -1.28635,0.34005 -1.4622,0.99327 -0.93095,3.45825 1.12144,5.20347 -0.0651,14.67447 -2.65707,21.20853 -1.38057,3.48027 -4.97919,6.99245 -8.45762,8.25446 -2.7118,0.98388 -2.71373,0.98972 -0.682,2.07604 1.1206,0.59916 2.03746,1.80166 2.03746,2.67222 0,0.87057 0.63701,2.49144 1.41557,3.60194 1.39622,1.99147 1.362,2.01975 -2.50068,2.06599 -3.46152,0.0414 -4.25942,0.4748 -6.87162,3.73214 -1.62544,2.02689 -2.95536,4.66308 -2.95536,5.85821 0,1.58144 -0.50492,2.17295 -1.8549,2.17295 -1.02021,0 -3.45912,0.81762 -5.41982,1.81695 -4.70952,2.40032 -6.5369,2.26931 -14.09479,-1.01053 z"
       id="path3767"
       inkscape:connector-curvature="0" />
    <path
       style="display:inline;fill:#c6e9af;fill-opacity:1"
       d="m 140.09318,604.36217 c -2.20644,-0.52506 -4.6691,-2.21132 -7.139,-4.88828 -3.16396,-3.42924 -3.70021,-4.54902 -3.33318,-6.96027 0.24056,-1.58046 0.0419,-3.628 -0.44151,-4.5501 -0.67979,-1.29672 -0.44568,-1.97968 1.03343,-3.0147 2.42362,-1.69595 1.63712,-3.03081 -1.78577,-3.03081 -1.98886,0 -2.98255,-0.64052 -3.97841,-2.56447 -0.73007,-1.41047 -1.96328,-3.09171 -2.74046,-3.7361 -1.26538,-1.04917 -1.20881,-1.46951 0.54126,-4.02197 3.09937,-4.52043 5.42058,-5.98783 9.50661,-6.00982 6.16653,-0.0332 7.93123,-4.66008 2.72767,-7.15171 -2.40223,-1.15026 -2.54791,-1.51327 -2.00797,-5.00353 1.48756,-9.61592 2.71525,-13.22379 4.59112,-13.49216 1.3532,-0.19359 1.92456,-1.05953 2.13418,-3.23455 0.36394,-3.77603 3.61737,-6.1068 7.45414,-5.34017 1.49479,0.29867 3.79786,0.13279 5.11793,-0.36862 1.84468,-0.70068 2.75556,-0.59032 3.93591,0.47687 0.84468,0.76369 2.60472,1.38853 3.9112,1.38853 1.30647,0 2.62831,0.40882 2.93742,0.90848 1.00294,1.62125 3.91772,0.96222 5.68789,-1.28605 1.0153,-1.28951 2.17324,-1.91951 2.80787,-1.52766 1.7397,1.07417 4.68968,7.52346 4.68968,10.25266 0,3.50925 3.31322,5.40494 10.18274,5.82616 3.73194,0.22883 5.90311,0.79882 6.39626,1.67921 0.41061,0.73303 1.3222,1.1121 2.02574,0.84238 0.70354,-0.26972 3.14794,0.60374 5.43199,1.94101 3.71945,2.17767 4.15492,2.77792 4.1728,5.75187 0.011,1.82625 0.82939,5.10256 1.81869,7.28069 0.98929,2.17812 1.79871,4.84665 1.79871,5.93007 0,2.07237 2.29485,5.98533 4.19238,7.14845 1.276,0.78214 -0.45429,5.06742 -2.84724,7.0515 -1.53608,1.27362 -1.78743,4.14642 -0.4358,4.98098 1.6712,1.03187 0.93981,2.00255 -3.13684,4.16315 -3.99051,2.11495 -5.03442,3.39079 -6.8335,8.35167 -0.50295,1.38687 -1.47343,2.73588 -2.1566,2.99779 -0.68319,0.26192 -6.92968,-2.30873 -13.8811,-5.71255 -11.91153,-5.83258 -20.5311,-9.7949 -22.68556,-10.4283 -0.52426,-0.15413 -4.2865,1.87912 -8.36054,4.51835 -6.9,4.46993 -7.42639,5.03266 -7.68553,8.21607 l -0.2782,3.41749 -3.36841,-0.80156 z"
       id="path3770"
       inkscape:connector-curvature="0" />
    <path
       style="display:inline;fill:#c6e9af;fill-opacity:1"
       d="m 301.90365,877.11692 c -0.88106,-0.52516 -2.57537,-2.874 -3.76513,-5.21965 -2.00631,-3.95549 -8.18379,-9.26021 -10.78375,-9.26021 -0.54091,0 -1.72135,-0.66714 -2.62321,-1.48253 -1.31215,-1.18635 -2.14396,-1.29013 -4.16363,-0.51949 -2.87286,1.09618 -13.68366,4.09289 -21.29627,5.90321 l -5.13224,1.22049 -5.42079,-8.69305 c -2.98144,-4.78118 -6.07387,-9.96275 -6.87208,-11.51462 -0.98267,-1.91051 -2.90266,-3.44535 -5.94626,-4.75343 -2.47225,-1.06251 -12.21082,-5.65492 -21.64129,-10.20533 -9.43046,-4.55041 -18.57851,-8.78887 -20.32899,-9.41879 -5.82512,-2.09622 -15.88921,-6.15362 -17.73215,-7.14882 -7.80503,-4.21478 -16.10614,-7.8395 -19.12649,-8.35166 -6.02409,-1.02153 -6.3999,-1.24567 -9.54465,-5.69272 -1.67214,-2.36461 -3.98798,-5.27588 -5.14631,-6.4695 -1.15833,-1.19362 -2.6812,-4.10512 -3.38417,-6.47001 -1.90752,-6.41722 -3.51809,-9.07791 -9.46041,-15.62879 -2.96951,-3.27362 -7.33201,-8.96384 -9.69444,-12.64493 -2.36244,-3.68109 -5.66504,-8.12374 -7.33913,-9.87256 -2.98899,-3.12243 -3.06154,-3.39226 -4.02995,-14.98985 -0.5424,-6.49561 -1.21893,-13.11392 -1.5034,-14.70736 l -0.51723,-2.89717 5.50826,-0.6226 c 6.27277,-0.709 7.62697,-1.83078 9.00072,-7.45588 0.94375,-3.86433 6.9917,-15.16789 10.1995,-19.06274 l 1.68621,-2.04737 8.68019,1.46512 c 12.09248,2.04106 14.56738,1.35018 18.96912,-5.2953 3.10587,-4.68906 3.75889,-5.1865 7.55531,-5.75527 10.96738,-1.6431 16.76212,3.1623 16.78054,13.91558 0.003,2.05415 0.85107,3.84524 2.76775,5.84896 2.28721,2.39107 2.66051,3.36687 2.16899,5.66971 -0.32653,1.52986 -0.90979,3.3638 -1.29614,4.07543 -1.0465,1.92759 0.76122,6.17709 2.86108,6.72569 1.00953,0.26375 3.74591,-0.0997 6.08086,-0.80762 5.49413,-1.6658 5.0542,-1.73829 8.66311,1.42736 l 3.11706,2.73421 13.05538,-0.57033 c 15.89178,-0.69424 17.69135,-0.6827 21.5556,0.13828 1.8116,0.38489 4.4677,0.17739 6.56003,-0.51249 3.02896,-0.99869 4.24455,-0.93091 8.77727,0.48937 2.89377,0.90673 7.71662,2.80666 10.71744,4.22205 6.4174,3.0269 9.49068,3.17936 14.8761,0.73799 2.18021,-0.98835 4.50554,-1.797 5.16743,-1.797 1.81712,0 2.47988,3.20098 2.36755,11.43487 l -0.10164,7.4506 3.0775,1.45898 c 1.69262,0.80243 4.65246,1.49125 6.57743,1.53069 1.92496,0.0394 2.98842,0.27793 2.36325,0.52995 -0.62517,0.25202 -1.13667,1.36322 -1.13667,2.46933 0,1.16097 -1.56928,3.52917 -3.71231,5.60227 -5.14723,4.97923 -6.69036,8.12778 -5.47915,11.17938 0.52502,1.32275 1.81462,5.87993 2.86578,10.12706 1.05117,4.24712 2.67021,9.76612 3.59787,12.26442 0.92767,2.49831 2.18136,7.45446 2.78601,11.01367 0.93154,5.48342 0.89177,6.88702 -0.26055,9.19469 -1.46031,2.92447 -1.65024,16.75225 -0.31753,23.11737 0.6819,3.25681 0.84254,3.37031 5.61231,3.96569 4.16567,0.51997 4.92666,0.90703 5.01805,2.55231 0.16893,3.0406 -0.18223,4.5562 -1.39652,6.02754 -2.84551,3.44785 -4.37954,12.25658 -3.97097,22.80214 0.2207,5.69648 0.57372,10.97045 0.7845,11.71994 0.47214,1.67888 -4.27188,2.28494 -6.67475,0.85272 z"
       id="path3773"
       inkscape:connector-curvature="0" />
    <path
       style="display:inline;fill:#bec8b7;fill-opacity:1"
       d="m 315.41352,1093.8442 c -1.84249,-1.2491 -3.97251,-2.2712 -4.73338,-2.2712 -0.76087,0 -2.24821,-0.4624 -3.30518,-1.0275 -1.05698,-0.5652 -3.9968,-1.2806 -6.53294,-1.5899 -4.21528,-0.514 -4.63628,-0.781 -4.90365,-3.1097 -0.38038,-3.313 -3.73029,-5.0033 -6.98225,-3.523 -1.25034,0.5692 -2.27335,1.6568 -2.27335,2.417 0,1.7826 -0.81601,1.7482 -2.88375,-0.1213 -1.54793,-1.3995 -1.77995,-1.3977 -3.35446,0.026 -1.38248,1.25 -2.16986,1.3477 -4.3099,0.5348 -1.44013,-0.547 -3.92067,-0.7505 -5.51232,-0.4522 -1.61688,0.303 -3.14952,0.1292 -3.47315,-0.394 -0.31859,-0.5149 -2.82012,-0.9363 -5.55895,-0.9363 -3.06558,0 -5.84674,-0.5676 -7.23534,-1.4765 -1.5606,-1.0216 -3.30198,-1.3113 -5.65139,-0.9401 -3.21889,0.5086 -3.4793,0.3608 -5.00006,-2.8387 -2.89797,-6.0969 -4.15166,-7.8623 -8.9569,-12.6129 -4.70492,-4.6515 -4.73515,-4.717 -3.23212,-7.0088 0.83448,-1.2723 1.51723,-3.5041 1.51723,-4.9595 0,-1.4554 0.6138,-3.1551 1.36401,-3.7771 1.74748,-1.4489 1.74748,-4.0019 0,-5.4509 -1.7683,-1.4661 -1.72204,-2.6413 0.18697,-4.7488 1.30873,-1.4447 1.36809,-2.0047 0.38001,-3.5854 -0.83987,-1.3435 -0.89274,-2.1512 -0.18696,-2.8563 1.89081,-1.889 1.06628,-5.8485 -1.81794,-8.73 -2.79184,-2.7892 -2.80247,-2.8379 -2.95535,-13.5492 -0.1001,-7.0133 0.21248,-11.19612 0.89923,-12.0334 1.82043,-2.21941 3.00299,-11.46474 2.42471,-18.95652 l -0.55632,-7.2073 2.85884,-2.40327 c 4.38882,-3.68942 3.62043,-7.49603 -2.22232,-11.00943 -1.70119,-1.02298 -1.69946,-1.0595 0.0798,-1.68492 7.41658,-2.60693 10.2062,-4.0341 13.45833,-6.88529 l 3.71446,-3.25652 -1.53901,-3.24011 c -2.14878,-4.52391 -1.95721,-9.36709 0.50702,-12.81851 1.81777,-2.54598 2.0325,-3.8742 1.92484,-11.90596 -0.11727,-8.74801 -0.20348,-9.10586 -2.66669,-11.06808 l -2.5455,-2.02778 1.53274,-5.50769 c 0.843,-3.02924 1.95006,-8.47337 2.46013,-12.09807 0.51006,-3.6247 1.63415,-9.56513 2.49795,-13.20095 1.50398,-6.33029 1.70552,-6.64671 4.75327,-7.4623 1.75048,-0.46843 6.45631,-1.71968 10.45741,-2.78053 4.00111,-1.06087 8.86058,-2.49366 10.79884,-3.18399 3.04138,-1.08322 3.78532,-1.07237 5.43104,0.0793 1.04882,0.73392 2.53199,1.3367 3.29595,1.3395 1.73479,0.006 7.42288,5.49796 11.28654,10.89661 2.71572,3.79464 3.21623,4.08814 6.97154,4.08814 3.77633,0 4.02902,-0.15126 3.79426,-2.27119 -0.13833,-1.24916 -0.4971,-6.8801 -0.79726,-12.51321 -0.57523,-10.79525 0.0867,-14.1871 4.32955,-22.18579 1.11857,-2.10875 1.57218,-4.18568 1.22018,-5.58684 l -0.56029,-2.23026 6.6684,1.27051 c 3.66763,0.69878 8.1395,1.27099 9.9375,1.27158 4.3065,0.002 5.70185,1.81212 7.11181,9.2288 1.69232,8.90206 0.33976,14.33886 -5.17126,20.78651 -2.36517,2.76714 -9.74934,11.6541 -16.40928,19.74879 l -12.10898,14.71762 5.163,6.59702 c 2.83966,3.62836 6.9226,8.53078 9.07321,10.89426 2.63654,2.8975 3.76249,4.86155 3.45673,6.02969 -0.24941,0.95283 -0.008,2.00711 0.53508,2.34282 0.54372,0.33571 0.98856,1.31304 0.98856,2.17183 0,0.85878 0.8099,2.25422 1.79977,3.10097 1.02109,0.87345 1.56915,2.13999 1.26673,2.92733 -0.29318,0.76328 -0.11657,1.38779 0.39245,1.38779 0.50905,0 1.77534,1.73746 2.81401,3.86102 1.03866,2.12356 4.45109,6.60083 7.58317,9.94949 4.98142,5.32587 6.37809,6.2749 11.15074,7.57689 10.93516,2.98311 11.84489,3.28215 13.19795,4.33823 0.75709,0.59093 2.12331,2.23961 3.03604,3.66377 1.53819,2.40003 1.95431,2.54521 5.69102,1.98538 l 4.03149,-0.60398 -0.58791,3.6731 c -0.32748,2.04595 0.1307,8.91409 1.03428,15.50417 1.38614,10.10938 1.44736,12.36035 0.42074,15.46807 -0.66081,2.0003 -0.93425,3.904 -0.60764,4.2302 0.3266,0.3263 0.21156,1.0534 -0.25562,1.6158 -1.24466,1.4983 0.24939,3.3253 2.96265,3.6228 1.30013,0.1426 4.32681,-0.2394 6.72594,-0.8489 3.06326,-0.7783 4.97127,-0.8315 6.40808,-0.1789 2.1066,0.957 2.6865,3.2496 1.20691,4.7714 -0.46152,0.4747 -0.94858,2.9071 -1.08237,5.4054 -0.13379,2.4983 -0.55573,4.7593 -0.93765,5.0244 -0.38191,0.265 -0.79689,2.0025 -0.92217,3.861 -0.22518,3.3404 -0.27503,3.3811 -4.3613,3.5624 -2.27342,0.1009 -5.56122,0.1018 -7.30619,0 -1.74498,-0.1 -4.96513,0.6604 -7.15589,1.6892 -2.19075,1.0288 -4.50436,1.6707 -5.14133,1.4265 -0.63698,-0.2442 -2.83386,0.3843 -4.88197,1.3967 -2.94626,1.4563 -3.91735,2.5586 -4.65061,5.2791 -1.22625,4.5496 -2.7508,5.7606 -5.79608,4.6039 -1.8767,-0.7128 -3.0256,-0.5191 -5.47107,0.9224 -2.98013,1.7566 -3.72509,3.4701 -4.31877,9.9341 -0.0688,0.7495 -0.48364,1.8195 -0.92176,2.3778 -0.48966,0.6239 -0.26238,1.458 0.58983,2.1646 0.97593,0.8092 1.11069,1.4815 0.45512,2.2706 -0.51221,0.6166 -0.82416,2.0955 -0.69322,3.2863 0.18993,1.7271 -0.14354,2.1131 -1.64824,1.9079 -2.50212,-0.3411 -4.09895,3.2009 -4.62107,10.2505 -0.72937,9.8477 -1.14127,11.3559 -3.10137,11.3559 -1.03433,0 -2.23658,0.9639 -2.83278,2.2712 -0.83319,1.8269 -1.69396,2.2712 -4.40032,2.2712 -2.08924,0 -4.63425,-0.8609 -6.71447,-2.2712 l 0,2e-4 z"
       id="path3776"
       inkscape:connector-curvature="0" />
    <path
       style="display:inline;fill:#b7b7c8;fill-opacity:1"
       d="m 230.40821,1057.31 c -0.16762,-1.7691 -3.75093,-3.3389 -4.93077,-2.1602 -0.54647,0.546 -1.90224,0.9926 -3.01281,0.9926 -1.50249,0 -2.17199,-0.6947 -2.61612,-2.715 -0.75765,-3.4463 -1.50801,-3.8748 -7.18305,-4.1022 -9.28167,-0.372 -8.66549,-0.082 -8.18317,-3.8574 1.25036,-9.788 2.60365,-16.4244 3.26591,-16.0155 0.40926,0.2527 1.00412,-0.2174 1.32189,-1.0448 0.39537,-1.0293 -0.68336,-2.7592 -3.41644,-5.4787 -4.21998,-4.199 -6.25048,-4.8811 -8.05705,-2.7063 -2.18834,2.6342 -4.46186,2.5325 -7.97013,-0.3565 -1.86206,-1.5334 -4.12934,-2.788 -5.0384,-2.788 -0.90904,0 -2.65722,-1.0035 -3.88483,-2.2299 -2.08564,-2.0837 -2.23203,-2.8539 -2.23203,-11.7443 0,-9.10838 -0.0986,-9.59183 -2.31144,-11.33078 -2.1413,-1.68274 -2.1915,-1.88464 -0.68201,-2.74285 1.37285,-0.78051 1.44656,-1.18437 0.46806,-2.56474 -0.63877,-0.9011 -2.27558,-3.351 -3.63736,-5.44425 -1.3618,-2.09324 -3.29016,-3.9329 -4.28525,-4.08814 -1.44798,-0.22589 -1.94734,-1.28004 -2.50061,-5.27887 -1.40271,-10.13809 -4.89319,-11.8512 -11.13507,-5.46502 -5.22338,5.34413 -8.36311,6.10254 -13.82233,3.33878 -8.29154,-4.19765 -11.3823,-8.87765 -9.47426,-14.34585 1.52001,-4.35617 1.27258,-14.53703 -0.41169,-16.93937 -0.77856,-1.1105 -1.90387,-2.0082 -2.50068,-1.99489 -0.59681,0.0133 -3.50934,1.85298 -6.47229,4.08815 -6.71081,5.06245 -8.67003,5.13457 -12.43212,0.45761 -2.95302,-3.67115 -7.78293,-6.00996 -10.789254,-5.22453 -1.863395,0.48682 -2.956628,-1.35133 -4.558993,-7.66545 -0.550544,-2.16943 -1.661588,-5.47747 -2.468979,-7.3512 -1.341655,-3.11359 -1.776885,-3.40678 -5.057158,-3.40678 -6.243033,0 -9.069816,-2.03694 -11.930334,-8.59682 -1.403572,-3.21876 -2.306469,-6.24911 -2.006433,-6.73412 0.300036,-0.48501 1.768443,-1.15018 3.263115,-1.47815 2.986856,-0.65541 3.14065,-1.03896 1.81418,-4.52453 -0.841176,-2.21036 -0.649409,-4.01635 1.37185,-12.91959 0.292388,-1.28789 -0.209902,-2.62079 -1.407753,-3.7357 -1.024283,-0.95335 -2.1045,-3.32282 -2.400482,-5.26549 -0.295983,-1.94266 -1.524119,-4.85586 -2.729187,-6.47379 -1.962306,-2.63458 -2.089645,-3.31786 -1.2198,-6.54514 0.53418,-1.9819 2.019856,-4.8485 3.301506,-6.3702 1.99912,-2.37356 2.948661,-2.76674 6.681813,-2.76674 2.393348,0 6.088098,-0.6121 8.210561,-1.36024 2.922345,-1.03009 5.984977,-1.22269 12.617768,-0.79352 6.77748,0.43852 9.49976,0.25562 12.03461,-0.80859 3.84572,-1.61455 4.45353,-3.56228 4.45353,-14.27144 0,-8.30116 0.19586,-8.54388 9.88312,-12.2467 4.18408,-1.59932 8.37888,-4.05045 11.16977,-6.5268 2.45815,-2.1811 5.21892,-3.96564 6.13505,-3.96564 0.91614,0 2.76902,-0.86705 4.11752,-1.92677 1.84511,-1.44999 3.231,-1.80044 5.60069,-1.41627 4.08856,0.66286 14.6918,4.89507 17.84142,7.12128 1.35326,0.95651 3.80848,2.17383 5.45604,2.70514 1.64757,0.53131 4.83699,1.79661 7.08761,2.81176 2.25062,1.01515 6.13805,2.56936 8.63874,3.45379 2.50069,0.88442 13.75377,6.10246 25.00687,11.59563 21.63477,10.56096 20.26585,9.55191 25.51569,18.80804 0.85018,1.49899 3.02722,4.96458 4.83785,7.70133 3.67909,5.56086 3.86737,6.84029 1.95397,13.27725 -0.73594,2.47586 -1.75627,7.55803 -2.26738,11.29372 -0.51112,3.73569 -1.60734,9.62288 -2.43605,13.08263 l -1.50674,6.29047 2.35401,1.88582 c 2.19592,1.75917 2.37303,2.47542 2.63745,10.66593 0.25598,7.92887 0.0851,9.04831 -1.76256,11.54628 -2.42872,3.28357 -2.69393,8.61671 -0.66923,13.45787 1.25177,2.99307 1.23906,3.44401 -0.14004,4.96644 -1.87381,2.06859 -11.85251,7.12732 -14.0591,7.12732 -3.13735,0 -2.96235,2.0812 0.40172,4.77739 4.04021,3.23809 4.16474,4.98277 0.5992,8.39552 l -2.72802,2.61112 0,10.69811 c 0,8.74469 -0.3492,11.57514 -1.91243,15.50124 -1.694,4.25454 -1.84242,5.89254 -1.29959,14.34214 0.57299,8.9187 0.78603,9.719 3.27644,12.3077 2.90134,3.0158 3.21373,4.5701 1.62057,8.0633 -0.81649,1.7903 -0.77644,2.608 0.18438,3.7646 1.04492,1.2579 0.99719,1.6063 -0.32098,2.3433 -1.96111,1.0964 -1.99291,4.2297 -0.0646,6.3585 1.37482,1.5178 1.3619,1.8234 -0.17585,4.1597 -0.91284,1.3869 -1.94271,3.9524 -2.28863,5.7013 -0.3459,1.7487 -0.67598,2.683 -0.73349,2.076 l 3e-5,0 z"
       id="path3779"
       inkscape:connector-curvature="0" />
    <path
       style="display:inline;fill:#c6e9af;fill-opacity:1"
       d="m 236.90481,1081.8439 c -1.3778,-0.7141 -3.16572,-1.8957 -3.97316,-2.6258 -2.06822,-1.8699 -6.4788,-3.0501 -14.90411,-3.9882 -5.93717,-0.6611 -8.00632,-0.5387 -11.25373,0.6658 l -3.979,1.4757 -2.47502,-3.0296 c -2.30911,-2.8265 -2.66721,-2.9627 -5.34175,-2.0312 -2.53628,0.8833 -2.86671,0.8066 -2.86671,-0.6654 0,-1.9578 -2.40044,-2.7544 -8.35221,-2.7717 -5.62932,-0.016 -8.92527,-1.3289 -8.92527,-3.5541 0,-0.9734 -1.03737,-3.0014 -2.30527,-4.5068 -1.67499,-1.9887 -2.15116,-3.3505 -1.74161,-4.9807 0.38285,-1.5239 -0.18436,-3.5822 -1.76821,-6.4164 -1.82304,-3.2623 -2.39884,-5.7244 -2.63883,-11.2834 -0.24404,-5.6529 -0.80706,-8.0045 -2.74658,-11.4713 -1.34179,-2.3985 -2.43961,-4.9498 -2.43961,-5.6697 0,-1.7298 -4.22853,-7.2179 -6.18573,-8.0284 -0.84902,-0.3516 -4.95738,-0.9689 -9.1297,-1.3718 -5.80823,-0.5608 -8.47204,-0.4242 -11.36676,0.5832 -5.30893,1.8474 -9.51825,3.8889 -10.16116,4.9282 -0.30083,0.4863 -1.52167,0.8841 -2.71298,0.8841 -1.19131,0 -2.39517,0.3705 -2.67526,0.8232 -0.28009,0.4528 -1.28541,0.6204 -2.23405,0.3726 -2.62404,-0.6855 -5.33282,1.2077 -5.98732,4.1848 -0.8138,3.7017 -2.58516,4.8847 -6.59566,4.405 -3.36013,-0.4019 -10.242604,2.1814 -10.242604,3.8444 0,0.4004 -1.125312,1.168 -2.50069,1.7058 -1.375378,0.5378 -3.523691,1.7668 -4.774039,2.7311 -1.250342,0.9643 -3.741533,2.0011 -5.535972,2.3042 -2.685462,0.4535 -3.705741,0.1407 -5.767534,-1.7683 -1.593247,-1.4752 -3.110203,-2.1273 -4.168041,-1.7919 -1.631644,0.5174 -5.44329,-2.5371 -5.44329,-4.362 0,-0.4596 -0.955393,-0.5961 -2.123105,-0.3033 -1.1677,0.2928 -3.481113,0.1433 -5.140906,-0.3323 -1.881878,-0.5392 -5.248577,-0.5491 -8.944289,-0.026 -5.756737,0.8144 -6.02286,0.7622 -9.291465,-1.8241 -1.850738,-1.4645 -3.861162,-3.8594 -4.467602,-5.3221 -0.875598,-2.1118 -2.257114,-3.0649 -6.709806,-4.6288 -12.247131,-4.3017 -23.7469535,-10.8094 -22.0670785,-12.4877 0.3150132,-0.3147 2.5888044,-0.8306 5.0528695,-1.1464 4.137717,-0.5303 4.655706,-0.3743 6.777598,2.0416 2.073438,2.3606 2.679251,2.5585 6.212447,2.0292 3.263701,-0.489 4.199645,-0.2723 5.626279,1.3027 1.239434,1.3682 2.815154,1.8891 5.714416,1.8891 2.201699,0 5.718805,0.4312 7.81579,0.9582 3.025404,0.7602 4.501476,0.6704 7.148245,-0.4354 3.314471,-1.3846 3.334564,-1.4258 3.181446,-6.5173 -0.140931,-4.6861 0.04025,-5.2012 2.120505,-6.02873 1.25103,-0.49767 5.957427,-1.00831 10.458668,-1.13478 4.501236,-0.12647 9.336012,-0.69256 10.74395,-1.25799 3.224467,-1.29495 3.096591,-1.30851 7.442863,0.7889 2.000552,0.96541 4.48112,1.76917 5.512374,1.78612 2.099748,0.0345 5.247096,-3.72704 6.147371,-7.34707 0.918987,-3.69524 5.95274,-6.99893 11.16799,-7.32963 4.14895,-0.26307 4.47283,-0.46018 4.75091,-2.89123 0.22019,-1.925 -0.42705,-3.35669 -2.46903,-5.46148 l -2.76746,-2.85258 1.25841,-4.98599 c 0.69214,-2.74229 1.5065,-5.80362 1.80969,-6.80294 0.81526,-2.68702 -2.30002,-7.05114 -8.07683,-11.31466 -4.743791,-3.5011 -6.247531,-5.49215 -4.14798,-5.49215 1.190214,0 1.1694,-4.17635 -0.03203,-6.41905 -0.849132,-1.58513 -0.622669,-1.75723 2.31232,-1.75723 2.60184,0 4.13004,0.81899 7.62837,4.08815 2.68573,2.5098 5.22242,4.08813 6.57043,4.08813 1.22181,0 4.14806,-1.61178 6.59742,-3.6339 5.0101,-4.13616 8.25142,-4.70328 9.08659,-1.58983 0.8963,3.34133 0.64944,10.36352 -0.51755,14.72261 -1.49877,5.59844 0.30078,9.18409 6.75847,13.46638 8.35078,5.53766 10.87055,5.38948 17.97509,-1.05705 2.25062,-2.04217 4.79375,-3.71881 5.65139,-3.72586 1.82394,-0.015 3.43987,2.61272 3.44709,5.60543 0.0107,4.43558 1.84164,8.91736 3.64304,8.91736 0.95917,0 2.22834,0.91983 2.82037,2.04407 0.59205,1.12424 2.05552,3.2197 3.25218,4.65659 2.0106,2.41424 2.06499,2.73476 0.71654,4.22337 -1.35016,1.49049 -1.302,1.72084 0.64452,3.08282 1.94029,1.35762 2.13904,2.28868 2.55839,11.98462 0.41834,9.6726 0.6262,10.6512 2.60143,12.247 1.18072,0.954 2.88849,1.7345 3.79505,1.7345 0.90655,0 3.54539,1.4467 5.86408,3.2149 l 4.2158,3.2149 2.74368,-2.3064 c 1.50902,-1.2686 3.0534,-2.3065 3.43195,-2.3065 0.37854,0 2.49546,1.7085 4.70426,3.7967 3.21389,3.0384 3.69817,3.8682 2.42466,4.1548 -1.02532,0.2307 -1.59606,1.223 -1.60458,2.7897 -0.007,1.3375 -0.63148,4.2052 -1.3871,6.3727 -0.75564,2.1675 -1.32954,5.2336 -1.27533,6.8135 0.0542,1.58 -0.16151,3.6923 -0.47935,4.694 -0.54079,1.7045 -0.12238,1.8361 6.51727,2.05 3.90234,0.1257 7.58222,0.294 8.17752,0.3741 0.59529,0.08 1.33896,1.6629 1.65259,3.5175 0.5205,3.0779 0.80742,3.3534 3.28861,3.1585 1.49509,-0.1176 3.18059,-0.6755 3.74556,-1.2399 1.46726,-1.4659 4.26915,1.2398 3.66683,3.5409 -0.33296,1.272 0.83459,2.979 4.19067,6.1269 2.55873,2.4 4.65223,4.6289 4.65223,4.9531 0,0.3242 1.22761,2.4068 2.72803,4.6278 1.50041,2.2211 2.72802,4.6468 2.72802,5.3905 0,1.9207 -4.07928,2.4538 -7.03895,0.9197 z"
       id="path3782"
       inkscape:connector-curvature="0" />
    <path
       style="display:inline;fill:#c6e9af;fill-opacity:1"
       d="m 100.2679,1035.2332 c 0,-0.4124 1.26907,-1.0283 2.82015,-1.3686 1.55109,-0.3404 5.04758,-1.6376 7.77,-2.8828 4.08796,-1.8698 4.76187,-2.4902 3.87032,-3.5635 -1.43543,-1.7279 -0.3256,-2.7303 1.42026,-1.2827 1.12182,0.9301 1.47584,0.8783 1.92124,-0.2813 0.3003,-0.7818 0.31258,-1.7988 0.0273,-2.26 -0.30249,-0.489 1.17277,-0.6481 3.53897,-0.3816 2.84554,0.3204 4.73259,0.015 6.31688,-1.022 1.24254,-0.8133 3.60347,-1.4512 5.24652,-1.4173 2.81085,0.058 2.86647,0.1197 0.94133,1.0473 -1.12531,0.5422 -2.04602,1.3326 -2.04602,1.7564 0,0.4239 -1.69124,2.4104 -3.75831,4.4145 -2.92854,2.8394 -4.03015,3.4185 -4.98956,2.623 -1.47434,-1.2224 -4.59059,-0.5583 -10.80295,2.3021 -4.75221,2.1881 -12.2761,3.6079 -12.2761,2.3165 z"
       id="path3784"
       inkscape:connector-curvature="0" />
    <path
       style="display:inline;fill:#939dac;fill-opacity:1"
       d="m 44.798108,1011.6255 c -1.250342,-0.3991 -4.527831,-0.7665 -7.283316,-0.8163 -3.964255,-0.072 -5.247045,-0.4698 -6.145766,-1.9075 -0.930482,-1.4885 -2.120601,-1.817 -6.584116,-1.817 -3.166127,0 -5.448344,-0.3958 -5.448344,-0.9449 0,-1.412 -7.261976,-7.98383 -10.9858256,-9.94184 -4.187961,-2.20205 -7.67172373,-6.79829 -9.01029244,-11.88759 -1.31948766,-5.01672 -4.95484766,-10.4352 -8.34251196,-12.43445 -1.56829,-0.92552 -2.578959,-2.29224 -2.578959,-3.4875 0,-1.08105 -1.005688,-4.16121 -2.234863,-6.84482 -1.229182,-2.6836 -2.91245,-7.53657 -3.7406,-10.78437 -1.788111,-7.01253 -3.374095,-10.31755 -6.881406,-14.34011 -1.431056,-1.64128 -2.601926,-3.59336 -2.601926,-4.33794 0,-0.74458 -1.453156,-4.23663 -3.229241,-7.76011 -2.90043,-5.75399 -3.670682,-6.5896 -7.564466,-8.20624 -4.766699,-1.97907 -7.393106,-5.39029 -7.393106,-9.60228 0,-3.29664 -1.471532,-4.81102 -4.674905,-4.81102 -1.370872,0 -2.772632,-0.45285 -3.115034,-1.00634 -0.37499,-0.60617 -1.933139,-0.79698 -3.918367,-0.47986 -4.808611,0.76814 -7.29159,-0.19488 -8.762859,-3.39867 -0.716598,-1.56045 -2.227187,-3.98108 -3.35686,-5.37919 -2.685439,-3.32357 -1.26026,-4.31818 5.772649,-4.02863 3.829983,0.15768 5.579256,-0.19223 6.89166,-1.37852 0.967363,-0.87441 2.461325,-1.58983 3.319916,-1.58983 0.858597,0 2.580111,-1.01806 3.825589,-2.26236 2.04303,-2.04108 2.204226,-2.72971 1.648098,-7.04069 -0.339026,-2.62808 -0.957323,-5.69816 -1.373992,-6.8224 -0.577077,-1.55703 -0.427185,-2.04407 0.629076,-2.04407 1.862725,0 6.150698,2.26919 7.611971,4.02824 1.674234,2.01541 5.737165,1.76267 8.666163,-0.53909 2.136746,-1.67917 2.430375,-2.45265 2.038658,-5.37033 -0.376249,-2.80247 -0.151525,-3.48859 1.263709,-3.85833 1.449002,-0.37857 1.721341,-1.31709 1.721341,-5.93201 0,-3.01526 0.396783,-5.72728 0.881736,-6.02672 0.484959,-0.29943 1.73855,-3.4187 2.785765,-6.9317 2.083439,-6.98914 1.578594,-8.98367 -2.273892,-8.98367 -1.723231,0 -5.03097,-2.45202 -5.03097,-3.72945 0,-0.22368 1.534511,-0.27028 3.410027,-0.10354 2.831832,0.25177 4.23499,-0.3218 8.275379,-3.38277 5.638147,-4.27142 6.501412,-4.47404 6.501412,-1.526 0,2.87601 1.306668,3.78381 7.3732312,5.12249 4.31323163,0.95178 5.78599936,0.90718 9.5480781,-0.28914 10.1674547,-3.23321 13.8709817,-2.83907 21.7256777,2.31211 4.495477,2.94817 9.478586,10.06276 9.526833,13.60186 0.07393,5.42175 7.784824,21.73424 13.539146,28.64219 5.618866,6.74532 6.116868,7.7824 6.845403,14.25521 0.333725,2.96507 1.078467,5.95883 1.654974,6.65282 0.576501,0.69398 3.636724,2.43438 6.800487,3.86753 3.189155,1.44466 5.972549,3.3379 6.246588,4.24889 0.271865,0.90374 1.292384,3.27842 2.267826,5.27706 0.975437,1.99865 1.772396,4.07366 1.771004,4.61114 -0.0064,2.55108 4.766072,5.37914 9.840449,5.83099 l 5.161144,0.45958 1.667844,5.45086 c 0.917315,2.99797 2.861032,8.26317 4.319364,11.70043 3.062583,7.21841 3.203429,8.3343 1.151303,9.12103 -1.314048,0.50377 -1.229405,0.86604 0.682003,2.91913 1.200227,1.2892 3.858976,3.50378 5.908326,4.92128 5.15971,3.5689 6.91712,7.37689 5.39439,11.68867 -0.63716,1.80417 -1.44331,4.96468 -1.79146,7.02335 -0.58726,3.47267 -0.42776,3.88904 2.20797,5.76407 2.15897,1.53585 2.77417,2.59721 2.5627,4.42123 -0.24885,2.14658 -0.66264,2.40111 -3.91562,2.40868 -5.23787,0.0122 -12.276103,5.12508 -12.276103,8.91794 0,1.16205 -1.036968,3.08609 -2.304373,4.27562 -1.993781,1.87127 -2.637242,2.02663 -4.774039,1.15256 -8.657374,-3.54132 -8.121031,-3.45871 -11.623321,-1.79018 -2.206524,1.05122 -3.671191,1.28447 -4.379247,0.69739 -1.383971,-1.14749 -14.869569,0.55291 -17.480725,2.20417 -1.631303,1.03164 -1.873906,1.94574 -1.639013,6.17564 0.249088,4.4856 0.08275,5.0068 -1.722643,5.3991 -1.099097,0.2388 -2.612157,0.6497 -3.362361,0.9131 -0.75021,0.2634 -2.38702,0.1523 -3.637367,-0.2469 z"
       id="path3787"
       inkscape:connector-curvature="0" />
    <path
       style="display:inline;fill:#bec8b7;fill-opacity:1"
       d="m 68.767694,898.89225 c -1.410481,-0.92438 -3.642527,-1.91725 -4.960097,-2.20635 -4.308748,-0.94546 -5.998127,-3.42805 -6.683468,-9.82157 -0.576529,-5.37845 -1.068538,-6.43539 -5.636158,-12.10752 -6.806899,-8.45291 -14.873929,-24.88996 -14.873929,-30.30652 0,-0.79362 -1.048071,-3.54416 -2.32905,-6.1123 -2.498537,-5.00913 -8.877452,-10.06422 -15.478306,-12.26606 -2.787811,-0.92992 -3.661061,-1.83507 -4.802021,-4.97742 -1.275477,-3.51282 -1.256352,-4.37317 0.223975,-10.0752 0.96412,-3.71369 1.680534,-10.05809 1.771886,-15.69143 0.151659,-9.35276 0.178411,-9.46039 2.426703,-9.76139 1.250342,-0.1674 3.296357,-1.24168 4.546699,-2.3873 4.564913,-4.18257 5.800602,-4.3896 13.814185,-2.31435 8.544996,2.21286 10.78218,1.94698 18.467416,-2.19474 3.000827,-1.6172 8.320468,-3.65032 11.821433,-4.51803 14.716021,-3.64738 16.776069,-4.43568 19.99462,-7.65117 1.756462,-1.75479 3.193572,-3.6886 3.193572,-4.29735 0,-0.60875 0.96023,-1.73539 2.133851,-2.50364 1.173621,-0.76826 2.649838,-2.64134 3.280491,-4.16242 0.630647,-1.52107 2.023333,-3.03195 3.094857,-3.35749 1.071518,-0.32555 2.562027,-1.12492 3.312227,-1.77638 0.75021,-0.65147 2.46166,-1.45812 3.80322,-1.79257 2.99947,-0.74776 5.76137,1.96627 13.08341,12.85662 2.734,4.06641 6.61647,8.97218 8.6277,10.90171 4.68197,4.49179 8.73088,11.01375 10.02497,16.1481 0.57205,2.2697 2.6679,6.04593 4.79038,8.63113 8.46637,10.31219 8.26531,9.94111 6.4639,11.92975 -0.88463,0.97657 -2.4657,1.77753 -3.51349,1.77992 -1.04779,0.002 -3.42457,1.39864 -5.28172,3.10279 -3.81064,3.49669 -8.25389,6.02685 -14.58372,8.3045 -2.37614,0.85501 -5.35011,2.50808 -6.60881,3.6735 -2.17222,2.01123 -2.27619,2.55195 -2.04514,10.63671 0.1722,6.02529 -0.10781,8.94105 -0.95688,9.96429 -1.67235,2.01537 -10.36748,2.94526 -15.80819,1.69059 -3.827466,-0.88264 -5.158191,-0.77372 -9.599421,0.78577 -2.835785,0.99575 -7.050229,1.81045 -9.365425,1.81045 -4.990147,0 -8.217258,2.32569 -10.35941,7.46574 -1.894167,4.54502 -1.790465,5.69495 0.865713,9.60015 1.278614,1.87986 2.273349,4.64139 2.273349,6.31113 0,1.81212 0.749986,3.71806 1.924966,4.89192 1.646839,1.64526 1.829063,2.53126 1.261193,6.13221 -0.901097,5.71405 -0.958451,10.27834 -0.15073,11.99519 0.509457,1.08287 -0.08458,1.65853 -2.46449,2.38825 -2.604855,0.79869 -3.569932,0.67692 -5.700261,-0.71922 z"
       id="path3790"
       inkscape:connector-curvature="0" />
    <path
       style="display:inline;fill:#bec8b7;fill-opacity:1"
       d="m 4.5122817,1004.6904 c -1.1244507,-1.1234 -0.6771393,-2.148 0.9377159,-2.148 1.3569341,0 1.2954086,-0.2799 -0.4493241,-2.0441 -1.1118549,-1.12425 -3.0495112,-3.33257 -4.30590226,-4.90737 -1.65136245,-2.06988 -3.58867214,-3.1759 -6.99131954,-3.9914 -3.2165555,-0.77091 -5.5902077,-2.0664 -7.4964047,-4.0914 -2.683936,-2.85119 -3.101181,-2.97681 -11.031189,-3.32097 -6.40991,-0.27819 -8.835265,-0.76925 -10.91209,-2.20937 -1.468687,-1.01841 -3.386451,-2.10977 -4.261691,-2.42522 -0.87524,-0.31547 -1.591347,-1.38371 -1.591347,-2.37389 0,-0.99017 -0.663816,-2.17146 -1.475154,-2.62507 -0.831873,-0.46509 -1.642569,-2.36657 -1.859068,-4.3604 -0.231528,-2.13221 -1.467748,-4.88793 -3.114392,-6.94242 -1.935934,-2.41544 -2.892362,-4.79467 -3.286797,-8.17629 -0.748767,-6.4194 -3.475343,-11.58308 -6.116208,-11.58308 -1.210955,0 -2.499308,-0.88004 -3.198134,-2.18456 -1.332329,-2.48712 -0.634779,-4.34331 1.346731,-3.58366 0.952889,0.36531 1.33489,-0.13416 1.33489,-1.74539 0,-2.82263 -1.662393,-4.23804 -5.75723,-4.90191 -3.190804,-0.51731 -3.191464,-0.51842 -3.080997,-5.232 0.117426,-5.01068 -1.616589,-10.50745 -3.320862,-10.52702 -0.564498,-0.006 -4.40228,-4.07522 -8.528419,-9.04163 -6.578195,-7.91784 -7.50206,-9.46758 -7.50206,-12.58436 0,-2.18219 -0.704108,-4.4488 -1.823746,-5.87083 -2.277153,-2.89218 -1.492339,-3.22922 6.370451,-2.73583 8.939176,0.56093 10.002749,0.9116 10.002749,3.29809 0,1.14963 1.22761,3.46396 2.728024,5.14293 1.500408,1.67897 2.728018,3.58284 2.728018,4.23082 0,2.05604 4.190701,4.03525 8.317052,3.92803 2.177481,-0.0566 5.595866,0.23749 7.596418,0.65347 3.408282,0.70872 3.668859,0.99116 4.137493,4.48468 0.7018,5.23173 2.827723,8.01253 7.633282,9.98469 3.598607,1.47684 4.565646,2.4983 7.326929,7.73934 1.74963,3.32087 3.181144,6.63605 3.181144,7.36707 0,0.73102 1.384513,3.07708 3.076694,5.21345 1.692185,2.13637 3.792849,6.17985 4.668145,8.98549 2.641033,8.4655 5.286868,15.87111 6.528863,18.27408 0.645641,1.24915 1.176411,3.02636 1.179491,3.94936 0.0034,0.92299 1.964011,3.43728 4.3576277,5.5873 3.3798876,3.03592 4.7252881,5.09624 6.0230057,9.22354 1.87750598,5.97128 5.8472007,11.53615 9.6195439,13.48505 1.3865089,0.71631 3.8786057,2.44147 5.5379847,3.83368 l 3.017069,2.5313 -4.044733,0.542 c -2.224599,0.2981 -4.6799144,0.8218 -5.4562326,1.1639 -0.776335,0.342 -1.6970384,0.3365 -2.0460207,-0.012 l 0,0 z"
       id="path3793"
       inkscape:connector-curvature="0" />
    <path
       style="display:inline;fill:#b7b7c8;fill-opacity:1"
       d="m -36.735781,856.2526 c -5.342037,-4.04495 -7.047383,-7.75814 -6.146901,-13.3841 0.448893,-2.80455 0.03097,-5.04526 -1.788424,-9.58872 -2.719481,-6.79115 -2.905417,-9.12242 -1.016226,-12.74117 0.940539,-1.80161 1.08176,-3.07446 0.468176,-4.21986 -0.631933,-1.17966 -0.503834,-1.95085 0.45629,-2.74692 0.734192,-0.60875 1.086529,-1.50828 0.782977,-1.99898 -0.303553,-0.49069 -0.0022,-1.91843 0.669787,-3.17276 1.16557,-2.17581 0.989564,-2.49533 -3.830861,-6.95406 -2.77891,-2.57041 -6.244699,-5.53339 -7.701757,-6.58443 -2.283312,-1.64704 -2.481843,-2.1124 -1.43749,-3.36957 1.327896,-1.59849 0.6436,-6.98389 -0.887406,-6.98389 -0.486418,0 -1.312342,-1.22645 -1.835391,-2.72543 -1.040534,-2.98205 -2.651694,-3.47986 -4.410443,-1.36271 -0.658365,0.79253 -2.64248,1.36271 -4.741954,1.36271 -2.150069,0 -4.484642,0.6874 -5.772922,1.6998 -1.718127,1.35019 -2.921921,1.56115 -5.852898,1.02569 -2.029438,-0.37075 -4.488883,-1.39649 -5.465431,-2.27941 -1.394652,-1.26094 -2.053149,-1.37514 -3.069628,-0.53234 -0.711747,0.59014 -2.253936,0.83306 -3.427085,0.53982 -1.463513,-0.36581 -3.111515,0.18886 -5.250573,1.76718 -3.630669,2.67893 -4.174989,2.5347 -2.693494,-0.71372 1.504734,-3.29939 -0.207583,-5.14092 -4.780205,-5.14092 -2.97239,0 -3.69251,-0.37835 -4.43536,-2.33034 -1.31469,-3.45462 -1.18838,-3.73215 2.5232,-5.54401 2.48379,-1.2125 3.33798,-2.15817 3.1448,-3.4816 -0.14587,-0.99933 -0.35047,-2.42417 -0.45467,-3.16633 -0.12116,-0.86302 1.29007,-1.84534 3.915457,-2.72543 5.402271,-1.81096 6.352517,-2.50094 6.352517,-4.61262 0,-0.97165 0.806726,-3.27038 1.792724,-5.10829 1.360939,-2.5368 1.545692,-3.63902 0.767073,-4.57631 -0.797795,-0.96037 -0.361476,-1.91926 1.964023,-4.31629 1.644321,-1.69489 4.061261,-3.46077 5.370978,-3.92418 4.339557,-1.53543 8.705631,-2.73366 11.994704,-3.29184 1.786411,-0.30316 4.628032,-1.56838 6.314717,-2.8116 1.686684,-1.24321 4.214813,-2.26039 5.61806,-2.26039 2.193638,0 2.551353,-0.35992 2.551353,-2.56707 0,-1.56357 0.88868,-3.40113 2.273355,-4.70073 2.303634,-2.1621 3.028199,-5.78602 1.362486,-6.81451 -0.54331,-0.33547 -0.69058,-2.64831 -0.364961,-5.73159 0.410983,-3.8916 1.098135,-5.67438 2.780258,-7.21326 2.026453,-1.85388 3.141506,-2.04406 11.984055,-2.04406 7.045085,0 10.2719,-0.36542 11.632127,-1.31725 1.681183,-1.17643 2.310371,-1.10359 5.885709,0.68136 3.399578,1.6972 5.263298,1.96232 12.358347,1.75804 7.2645368,-0.20916 9.02996616,0.0576 13.5259297,2.04407 2.8439805,1.25654 5.5256184,2.28463 5.9591993,2.28463 0.433575,0 2.608165,1.3878 4.832422,3.084 3.225378,2.45964 5.205993,3.20725 9.783279,3.69282 3.156556,0.33487 7.989806,0.98279 10.740562,1.43983 12.975598,2.15592 23.198658,2.93614 45.467041,3.47003 l 24.097525,0.57774 1.07961,6.81358 c 0.59378,3.74745 1.08371,10.08408 1.08873,14.08137 l 0.009,7.26781 -5.63543,2.82272 c -3.9688,1.98792 -6.008877,3.64098 -6.898172,5.58954 -0.69451,1.52174 -2.229027,3.20666 -3.410033,3.74425 -1.180978,0.53759 -2.147252,1.72734 -2.147252,2.6439 0,4.18558 -7.114409,8.08003 -19.457767,10.65124 -3.484859,0.72593 -9.699581,2.96154 -13.810513,4.96803 -8.334808,4.06811 -11.736153,4.45534 -20.074846,2.28545 -7.217916,-1.87824 -7.808299,-1.78981 -12.129414,1.81695 -2.095185,1.74882 -4.766156,3.17967 -5.935478,3.17967 -2.897461,0 -3.580453,2.47618 -3.259156,11.81596 0.174838,5.08232 -0.255406,9.73747 -1.256794,13.59827 -1.438267,5.54518 -1.447816,8.93121 -0.03735,13.26026 0.558365,1.71378 -0.06511,2.05274 -7.0058774,3.80855 -6.36409395,1.60995 -8.2839159,1.76447 -11.6575252,0.93833 -5.2352824,-1.28204 -6.3120894,-2.19926 -6.3120894,-5.37662 0,-1.43781 -0.251866,-2.61419 -0.559718,-2.61419 -0.307835,0 -3.399667,1.8862 -6.870739,4.19157 -5.138077,3.41253 -6.815062,4.09087 -9.022972,3.6497 -5.457944,-1.09055 -4.213489,4.16305 1.336332,5.64146 2.677501,0.71326 2.829965,0.98581 2.649234,4.73602 -0.105468,2.18855 -1.263184,6.36437 -2.572703,9.27959 -1.865738,4.15347 -2.249673,6.07659 -1.774324,8.88749 0.564146,3.33596 0.457766,3.58346 -1.519333,3.53495 -1.169266,-0.0287 -4.238506,-1.65178 -6.820535,-3.60688 z"
       id="path3796"
       inkscape:connector-curvature="0" />
    <path
       style="display:inline;fill:#e9ddaf;fill-opacity:1"
       d="m 60.389553,716.30069 c -5.178487,-0.39688 -13.771758,-1.33026 -19.096156,-2.07418 -5.324399,-0.74393 -12.135524,-1.62959 -15.135826,-1.96815 -5.952848,-0.67172 -10.248911,-2.48438 -12.101276,-5.10596 -0.653535,-0.92491 -1.708292,-1.68166 -2.343909,-1.68166 -0.635618,0 -3.67331,-1.02204 -6.7504224,-2.2712 -4.60688293,-1.87015 -7.1178537,-2.27118 -14.2207132,-2.27118 -11.4599164,0 -17.8502814,-2.75287 -13.5992514,-5.85835 1.067023,-0.77948 1.588584,-3.22305 1.960449,-9.18491 0.388492,-6.22844 0.94414,-8.71433 2.382464,-10.65887 2.014215,-2.72311 2.081957,-2.50144 -2.545315,-8.32905 -2.432332,-3.0633 -2.568164,-3.60103 -1.591346,-6.2998 0.587392,-1.62285 1.067979,-4.0959 1.067979,-5.49568 0,-1.90742 0.284779,-2.32095 1.136677,-1.6506 0.625169,0.49195 2.194079,1.14599 3.486469,1.45342 1.292384,0.30745 3.906173,1.79466 5.808418,3.30494 2.6456899,2.10053 4.3838032,2.74595 7.3947721,2.74595 2.1648733,0 5.335451,0.66665 7.045717,1.48145 2.317516,1.10409 4.2362646,1.31332 7.5329119,0.82144 3.791827,-0.56577 5.185274,-1.42045 9.760245,-5.98656 5.151495,-5.14151 5.312759,-5.44622 4.64178,-8.77061 -1.289035,-6.38661 -1.122756,-7.05209 1.842744,-7.37497 1.500413,-0.16336 3.116767,-0.67438 3.591897,-1.1356 0.475131,-0.46121 2.859529,-0.83857 5.298659,-0.83857 3.758976,0 4.805202,-0.40937 6.865523,-2.68639 6.20164,-6.8539 8.23147,-9.88804 8.853653,-13.23426 0.96478,-5.18881 2.727649,-7.39778 7.294279,-9.14013 2.947794,-1.1247 5.362594,-1.37694 9.043926,-0.94469 6.211099,0.7293 9.00743,-0.55214 13.794507,-6.32144 5.257354,-6.33606 7.063322,-6.98186 17.464338,-6.24517 10.741274,0.7608 11.907244,0.075 11.907244,-7.00355 0,-2.51044 0.59732,-5.64955 1.32738,-6.9758 0.73006,-1.32625 2.21267,-4.55764 3.29467,-7.18086 1.08202,-2.62322 2.32143,-4.7695 2.75426,-4.7695 1.26105,0 4.44512,3.02651 4.44512,4.22516 0,1.88516 2.75271,3.95025 5.29366,3.97133 l 2.43574,0.0202 -2.22853,1.71108 c -1.96137,1.50595 -2.07528,1.89556 -0.95012,3.24999 0.71044,0.85523 1.17462,3.01221 1.04482,4.85517 -0.20477,2.90727 0.31715,3.85669 4.23191,7.6983 4.96786,4.87501 8.5588,6.22981 16.97916,6.40594 6.4971,0.1359 7.09568,1.22177 4.09136,7.42195 -1.71627,3.54197 -1.89543,4.9602 -1.34582,10.65327 0.87825,9.09735 2.90234,13.26115 8.40996,17.30026 3.89598,2.8572 7.50491,6.81344 7.50491,8.22717 0,0.22014 -1.43222,2.11287 -3.1827,4.20606 -1.75048,2.0932 -3.1827,4.40066 -3.1827,5.12769 0,3.60183 -2.75087,6.46951 -8.13604,8.4815 -4.4355,1.6572 -7.06811,3.60109 -13.68224,10.10281 -4.50448,4.42793 -8.18996,8.46628 -8.18996,8.9741 0,0.50781 -1.37083,2.86612 -3.0463,5.24067 -3.8385,5.44011 -8.18175,13.99535 -9.80172,19.30721 l -1.24676,4.08814 -5.45605,0.58276 c -7.52772,0.80403 -40.712997,0.6766 -52.154447,-0.20027 z"
       id="path3799"
       inkscape:connector-curvature="0" />
    <path
       style="display:inline;fill:#bec8b7;fill-opacity:1"
       d="m 67.612243,611.88948 c -1.70614,-0.40189 -3.57517,-0.54935 -4.153399,-0.32767 -0.578223,0.22167 -3.478921,-1.03265 -6.445998,-2.78739 -2.967076,-1.75474 -5.981137,-3.53462 -6.69792,-3.95531 -1.090996,-0.64031 -1.016952,-1.05447 0.454669,-2.54314 0.966855,-0.97805 2.550151,-3.27001 3.518442,-5.09326 1.894222,-3.56673 2.006142,-2.44133 -1.653554,-16.62741 -0.773411,-2.99797 -1.42078,-5.80458 -1.438597,-6.2369 -0.01783,-0.43231 2.139905,-0.51488 4.794937,-0.18347 6.173596,0.77061 11.654327,-0.47116 15.187053,-3.44093 2.076412,-1.74552 3.437287,-2.21421 5.330649,-1.8359 2.079128,0.41543 2.99797,-0.0329 5.042347,-2.46017 1.703351,-2.02239 2.366122,-3.66745 2.080001,-5.16276 -0.5277,-2.75787 1.197616,-7.47991 2.732972,-7.47991 0.635807,0 2.888851,-1.83967 5.006768,-4.08814 2.117912,-2.24848 4.577018,-4.08815 5.46468,-4.08815 0.887657,0 1.613927,-0.40881 1.613927,-0.90847 0,-0.49966 0.385814,-0.90848 0.857361,-0.90848 0.471553,0 2.398439,-0.90839 4.281979,-2.01865 3.96251,-2.33571 4.46462,-2.48134 11.46019,-3.32389 2.87802,-0.34663 5.90222,-0.25595 6.72044,0.20151 0.81823,0.45747 3.65819,0.78177 6.31104,0.72067 2.65285,-0.0611 5.08441,0.31088 5.40346,0.82662 0.54353,0.87863 -0.59694,7.0402 -2.41654,13.05564 -0.61078,2.01916 -0.44236,3.04434 0.7089,4.31526 0.8305,0.91681 2.0166,1.66693 2.63578,1.66693 1.44251,0 2.33491,2.30293 1.61683,4.17241 -0.41233,1.0735 -1.4025,1.33844 -3.83615,1.02646 -3.28323,-0.42089 -9.19109,2.12112 -9.19109,3.95471 0,0.45601 -1.83906,2.69281 -4.0868,4.97066 -2.24774,2.27785 -4.35182,5.24412 -4.67574,6.59172 -0.32392,1.3476 -1.34928,3.96694 -2.27858,5.82077 -0.92931,1.85383 -1.68965,5.04901 -1.68965,7.10042 0,7.34478 -2.3974,8.4659 -13.574833,6.34816 -6.228704,-1.18012 -9.452494,0.18711 -14.421308,6.11616 -2.103152,2.50959 -5.217213,5.22343 -6.920133,6.03076 -3.391393,1.60779 -3.28777,1.60041 -7.742133,0.55114 z"
       id="path3802"
       inkscape:connector-curvature="0" />
    <path
       style="display:inline;fill:#c6e9af;fill-opacity:1"
       d="m -17.270796,642.68797 c -0.878762,-0.51126 -2.404009,-2.50847 -3.389442,-4.43825 -2.630846,-5.15196 -6.377495,-7.43172 -13.099538,-7.97079 -4.64438,-0.37246 -5.829518,-0.80226 -6.524989,-2.36635 -0.541498,-1.2178 -2.517573,-2.4136 -5.446476,-3.29587 -2.528151,-0.76154 -5.59718,-2.04113 -6.820055,-2.84352 -1.22288,-0.80239 -3.246421,-1.77903 -4.496768,-2.17033 -1.250342,-0.39129 -3.12753,-1.57445 -4.17153,-2.62925 -1.044001,-1.05479 -4.113024,-3.26811 -6.820054,-4.91848 -2.707037,-1.65037 -6.354093,-4.18746 -8.104572,-5.63797 l -3.182693,-2.63731 1.994486,-1.41816 c 1.394157,-0.99131 2.078424,-2.55443 2.273355,-5.19314 0.238896,-3.23394 0.649974,-3.89781 2.868328,-4.63219 2.05884,-0.68157 3.083715,-0.49386 5.001379,0.916 6.828451,5.0203 19.826703,10.24749 25.482014,10.24749 1.330099,0 4.033015,0.86458 6.006474,1.92128 7.04631,3.77301 13.997125,3.76931 28.6665584,-0.0152 3.7510315,-0.96773 8.6614723,-2.19963 10.91209,-2.73755 2.2506178,-0.53793 9.4836736,-2.41056 16.0734576,-4.16139 13.895514,-3.69191 13.771965,-3.67744 13.606419,-1.59352 -0.09729,1.22474 0.500183,1.54784 2.601725,1.407 1.500414,-0.10056 5.730802,0.0399 9.400875,0.31213 6.663129,0.49424 6.670089,0.49754 4.774039,2.2623 -2.55611,2.37911 -2.389893,3.86584 0.601872,5.38344 1.375378,0.69767 4.076706,2.22891 6.002952,3.40274 l 3.502251,2.13425 -2.982943,1.52027 c -3.890715,1.98291 -6.206833,5.24072 -6.908874,9.71785 -0.338035,2.15575 -1.703624,4.89816 -3.386294,6.80043 -1.550898,1.7533 -3.469289,4.18477 -4.2631,5.40326 -1.165855,1.78957 -2.564233,2.36201 -7.274723,2.97801 -3.207292,0.41943 -7.580338,0.99381 -9.71789,1.27641 -2.360631,0.31209 -4.386352,0.0993 -5.159774,-0.54196 -0.77936,-0.64619 -2.513079,-0.82341 -4.469067,-0.45681 -2.246788,0.42109 -3.812434,0.1674 -5.27264,-0.85439 -1.1422959,-0.79934 -2.9065624,-1.45587 -3.9205913,-1.45894 -1.0140233,-0.003 -3.0056745,-0.61107 -4.4258897,-1.35109 -3.12721069,-1.62948 -4.1931604,-1.13641 -9.6558891,4.46646 -4.1542379,4.2608 -6.9310689,5.11842 -10.2744829,3.17321 z"
       id="path3805"
       inkscape:connector-curvature="0" />
    <path
       style="display:inline;fill:#939dac;fill-opacity:1"
       d="m -25.647707,680.41859 c -0.984823,-0.74382 -3.328068,-1.76601 -5.207212,-2.27153 -1.87915,-0.50552 -5.232314,-2.48909 -7.451484,-4.40794 -2.36228,-2.0426 -5.461778,-3.75626 -7.477117,-4.13398 -1.893249,-0.35484 -4.272744,-1.22629 -5.287762,-1.93657 -1.302101,-0.91116 -3.120413,-1.12244 -6.175403,-0.71757 l -4.329909,1.69091 1.862428,-6.45665 c 1.316117,-4.5627 1.700091,-5.89318 0.84935,-8.79438 -1.161758,-3.96184 -4.338955,-5.7456 -5.0276,-3.02496 -0.920491,3.63662 -1.964167,1.25542 -2.364405,-1.37093 -0.0312,-0.20485 -1.343986,-2.42286 -2.31495,-2.06579 -1.47232,0.54143 0.777671,3.98656 -0.639709,4.65858 -1.277826,0.60585 -2.033207,-1.45716 -3.621356,-2.20948 -1.747947,-0.82801 -4.552535,0.18651 -4.843447,-1.47442 -0.151474,-0.86482 1.295006,-1.25202 2.111124,-1.57765 3.203652,-1.27821 4.676638,-0.92122 10.277468,-1.21406 5.600836,-0.29283 9.997358,-0.40277 10.806544,-0.18199 1.028022,0.28047 2.382401,0.32184 2.223122,-1.7954 -0.15002,-1.99412 0.441017,-3.42147 2.03702,-4.91942 1.946311,-1.82672 2.560728,-1.96802 4.573495,-1.05182 3.177242,1.44627 4.053259,1.33237 4.087161,-0.53144 0.06192,-3.40383 2.218175,-4.76949 7.530604,-4.76949 6.551896,0 9.031358,1.19178 11.459625,5.50818 4.686361,8.33032 9.844397,9.31814 16.1625573,3.09528 5.50602865,-5.42298 6.43431309,-5.87297 9.2800099,-4.49858 4.8008968,2.31871 8.8258108,3.48341 12.3720888,3.58018 6.461322,0.17629 7.490965,0.94866 8.271678,6.20492 0.946314,6.37116 0.789221,6.87758 -3.502632,11.29098 -2.884037,2.96571 -4.831975,4.07899 -8.618446,4.92556 -4.4475648,0.99438 -5.2579974,0.91624 -8.9168942,-0.8597 -2.75929826,-1.33929 -4.8994607,-1.77869 -6.8070055,-1.39754 -2.2138478,0.44234 -3.4712061,0.009 -6.1539673,-2.12181 -4.451797,-3.53558 -11.036249,-6.18174 -11.468409,-4.60892 -2.874914,10.46301 -2.719353,11.9791 1.647885,16.0602 2.82718,2.64195 2.985721,4.66943 0.538166,6.88233 -1.000276,0.90437 -1.818681,2.60299 -1.818681,3.77471 0,2.42851 -1.459647,2.68718 -4.063937,0.72019 z"
       id="path3808"
       inkscape:connector-curvature="0"
       sodipodi:nodetypes="sssssscssssaasaassssssssssssssssssssss" />
    <path
       style="display:inline;fill:#bec8b7;fill-opacity:1"
       d="m -60.171462,711.92304 c -1.047618,-2.02394 -2.157382,-2.79714 -4.31885,-3.00904 -2.313933,-0.22685 -3.384808,-1.07494 -5.235411,-4.14626 -1.279554,-2.1236 -4.175466,-5.18971 -6.435359,-6.81357 -4.952475,-3.55865 -5.155585,-6.36631 -0.599926,-8.29299 1.58958,-0.67226 3.669664,-2.09635 4.622425,-3.16463 0.952755,-1.06829 2.505866,-1.94234 3.451359,-1.94234 0.945493,0 2.72349,-1.00345 3.9511,-2.22989 1.802652,-1.80095 2.234695,-3.15533 2.245938,-7.0407 0.0077,-2.64593 0.314566,-5.26273 0.682009,-5.8151 0.367443,-0.55237 2.581363,-1.21415 4.919817,-1.47062 3.199442,-0.3509 4.887384,-0.0476 6.820054,1.22545 1.412578,0.93046 3.668742,1.69444 5.013701,1.69773 1.530161,0.004 3.979897,1.33284 6.54545,3.5512 2.255035,1.94986 6.065053,4.20738 8.466709,5.0167 2.401651,0.80932 5.334669,2.2153 6.51781,3.12439 1.94483,1.49435 2.090076,2.09664 1.514285,6.27915 -0.489561,3.55618 -1.36536,5.37564 -3.786287,7.86602 l -3.149405,3.23976 -10.291015,0 c -9.03422,0 -10.583625,0.22995 -12.686995,1.88289 -1.632718,1.28307 -2.424863,2.80245 -2.486629,4.7695 -0.234217,7.45888 -3.21631,10.18814 -5.76078,5.27235 z"
       id="path3811"
       inkscape:connector-curvature="0" />
    <path
       style="display:inline;fill:#c6e9af;fill-opacity:1"
       d="m -92.903753,738.77496 c 0.510239,-2.32089 0.368592,-2.62328 -0.985634,-2.1041 -0.869828,0.33346 -2.114907,0.16404 -2.766842,-0.37651 -0.893708,-0.74101 -1.448715,-0.49115 -2.255838,1.01553 -0.588774,1.0991 -1.333423,1.59551 -1.654763,1.10314 -0.32134,-0.49236 -1.50497,-1.3796 -2.63028,-1.97165 -1.51397,-0.79652 -2.04602,-1.88576 -2.04602,-4.18875 0,-3.35402 -2.79642,-6.817 -5.50488,-6.817 -1.96549,0 -6.31655,3.41064 -6.31655,4.95132 0,3.14875 -7.55702,4.72132 -10.59276,2.20428 -2.16165,-1.79231 -0.6852,-11.7151 2.05601,-13.81782 3.01943,-2.31613 2.93421,-7.61211 -0.20872,-12.97 -1.70973,-2.91467 -2.23128,-4.80074 -1.85176,-6.69653 0.42884,-2.14218 0.0637,-2.99356 -1.93929,-4.52173 l -2.4676,-1.88266 2.72802,0.55269 c 1.50041,0.30397 3.44413,0.74663 4.31937,0.9837 1.72158,0.46629 2.27998,-1.88443 0.68201,-2.87109 -1.51154,-0.93329 -1.02589,-3.24838 1.03039,-4.91187 1.61857,-1.30939 1.76913,-1.88768 0.90934,-3.49268 -1.54636,-2.88665 -1.44004,-2.95099 4.19832,-2.54047 5.21104,0.3794 5.22775,0.39002 4.94593,3.14421 -0.23501,2.29664 0.22588,3.07348 2.72802,4.59817 2.92585,1.78288 3.0326,1.78652 3.78335,0.12873 0.51993,-1.14807 0.16309,-3.0824 -1.09122,-5.91527 -1.54292,-3.48472 -2.61517,-4.53881 -6.22859,-6.1231 -4.32764,-1.89743 -4.34419,-1.92097 -1.94236,-2.76227 3.33476,-1.16807 3.8368,-3.15097 1.68037,-6.63684 -1.00622,-1.62654 -1.82345,-3.72672 -1.81608,-4.66707 0.0109,-1.38482 0.23196,-1.27813 1.16353,0.56147 1.93349,3.81813 3.86496,2.89955 3.56852,-1.69714 -0.25543,-3.96076 -0.25056,-3.96754 2.55396,-3.55631 2.09793,0.30761 3.13754,-0.0553 4.10308,-1.43254 0.73582,-1.04954 3.35842,-2.37216 6.08478,-3.06865 2.635365,-0.67325 6.931933,-2.20254 9.547927,-3.39843 3.858016,-1.76366 5.316742,-2.01376 7.723394,-1.3242 1.631871,0.46757 4.039866,0.85013 5.351097,0.85013 1.311235,0 3.424495,0.81762 4.696138,1.81695 3.099307,2.4356 3.442123,2.30828 2.773801,-1.03015 -0.441196,-2.20388 -0.281978,-2.7503 0.70474,-2.41862 0.701084,0.23566 1.286508,1.30381 1.300943,2.37365 0.01442,1.06985 0.53934,2.45779 1.16646,3.08431 0.914067,0.9132 1.245528,0.73682 1.671164,-0.88926 0.743551,-2.84065 2.016055,-2.52559 3.437159,0.851 1.055741,2.50848 0.98309,3.64953 -0.563967,8.85764 -0.9767,3.28803 -2.143662,9.01285 -2.593243,12.72181 -0.799369,6.59465 -1.69142,8.20422 -4.562532,8.23237 -0.780299,0.008 -2.621712,1.15136 -4.092036,2.54158 -1.470325,1.39022 -3.804652,3.01946 -5.187393,3.62053 -1.382746,0.60106 -2.9985,2.15501 -3.590566,3.45322 -0.995335,2.18244 -0.805811,2.59179 2.514078,5.43013 1.974812,1.68836 4.037035,3.08509 4.58272,3.10385 0.545685,0.0188 2.09211,2.05317 3.436499,4.52091 2.02259,3.71262 2.933885,4.53557 5.281529,4.7695 1.687931,0.16819 3.242669,1.01869 3.838224,2.09966 1.337786,2.42814 2.431968,3.14912 4.804469,3.16575 3.667702,0.0257 3.595621,5.07125 -0.11641,8.14903 -0.777514,0.64466 -1.413657,2.14409 -1.413657,3.33207 0,1.61863 -0.500512,2.15995 -1.997141,2.15995 -1.098426,0 -3.533308,1.06355 -5.410842,2.36345 -2.080152,1.44017 -4.855406,2.43699 -7.104246,2.55169 -2.029796,0.10354 -4.177992,0.67525 -4.77377,1.27046 -0.595778,0.59521 -2.167613,1.08221 -3.492956,1.08221 -1.325344,0 -4.010235,1.1583 -5.966425,2.57401 -4.839619,3.50247 -6.990558,3.45516 -6.200971,-0.13639 z"
       id="path3814"
       inkscape:connector-curvature="0" />
    <path
       style="display:inline;fill:#939dac;fill-opacity:1"
       d="m -56.523791,845.82168 c -2.182618,-0.77691 -5.540809,-3.37385 -8.649794,-6.68901 -4.253635,-4.53573 -5.468828,-5.34519 -7.454961,-4.96588 -2.371159,0.45285 -7.407167,-1.55384 -8.554655,-3.40875 -0.334183,-0.5402 0.274865,-1.92064 1.353438,-3.06764 2.340259,-2.48872 1.832138,-6.02991 -1.215211,-8.469 -3.045302,-2.43746 -6.009861,-7.08104 -6.025261,-9.43776 -0.01705,-2.60981 -0.659341,-3.55115 -3.771754,-5.52793 -1.331918,-0.84594 -2.676194,-2.69581 -2.987281,-4.11084 -0.311087,-1.41502 -1.526511,-3.60807 -2.700941,-4.87343 -1.174431,-1.26537 -2.4105,-3.55232 -2.74682,-5.08212 -0.534899,-2.43306 -0.23497,-3.04974 2.394588,-4.92346 3.404022,-2.42557 10.340551,-3.12342 12.554155,-1.26301 2.582386,2.17035 8.216952,2.40099 10.96134,0.44867 1.477894,-1.05135 3.986126,-1.78191 6.117835,-1.78191 2.09031,0 4.086563,-0.57009 4.736693,-1.35271 1.386302,-1.6688 2.736337,-0.96089 2.736337,1.43484 0,0.98551 0.576876,2.013 1.281941,2.2833 1.708455,0.65497 2.680263,4.7794 1.469547,6.23684 -1.258236,1.51464 -0.486328,3.39187 2.040106,4.9614 3.597327,2.23481 10.524991,8.3761 11.080717,9.82292 0.296821,0.77276 -0.124086,2.13776 -0.935346,3.03335 -0.81126,0.89557 -1.1951,2.0808 -0.852977,2.63384 0.342116,0.55303 0.127495,1.60083 -0.476937,2.32843 -0.859094,1.03416 -0.858954,1.61184 5.59e-4,2.64661 0.871148,1.04867 0.799816,1.7513 -0.343324,3.3818 -2.049985,2.92398 -1.793081,6.83902 0.880031,13.41133 2.684657,6.6007 2.631769,9.46883 -0.181989,9.86957 -1.073077,0.15283 -2.671015,1.07266 -3.550962,2.04407 -1.874415,2.06923 -2.425881,2.10131 -7.159153,0.41648 z"
       id="path3817"
       inkscape:connector-curvature="0" />
    <path
       style="display:inline;fill:#e9ddaf;fill-opacity:1"
       d="m -133.20536,718.63035 c -1.62544,-0.70581 -2.95535,-1.73037 -2.95535,-2.27679 0,-1.15363 -6.16253,-0.28663 -7.93342,1.11614 -0.66061,0.52329 -3.434,0.61436 -6.82006,0.22396 -4.41457,-0.50899 -6.38302,-1.24975 -8.69369,-3.27157 -1.64285,-1.43748 -3.48427,-2.61471 -4.09204,-2.61606 -0.60777,-10e-4 -2.91626,-1.56284 -5.12998,-3.46998 -2.83655,-2.44371 -3.85297,-3.91528 -3.44247,-4.984 0.47051,-1.22497 1.03709,-1.3438 2.94747,-0.61816 4.68606,1.77994 5.67267,1.25206 6.02915,-3.22584 0.18058,-2.26829 -0.033,-4.48515 -0.47465,-4.92637 -0.89257,-0.89171 -5.12658,0.70106 -5.12658,1.92854 0,0.41946 -0.40921,0.76265 -0.90935,0.76265 -0.50013,0 -0.90934,-0.80984 -0.90934,-1.79964 0,-1.21291 -0.81528,-1.99422 -2.50068,-2.39646 -5.14953,-1.22899 -6.20291,-3.46756 -2.02456,-4.30244 1.51222,-0.30215 2.97396,-1.27309 3.24831,-2.15762 0.27435,-0.88455 0.89037,-2.22148 1.36894,-2.97098 0.47858,-0.74949 1.11058,-2.07814 1.40446,-2.95255 0.29388,-0.8744 1.0503,-1.58983 1.68094,-1.58983 0.63064,0 1.65979,-0.61775 2.28701,-1.37278 1.00985,-1.21564 1.28291,-1.18964 2.3853,0.22711 1.1722,1.50648 1.35108,1.47466 3.06298,-0.5448 3.08885,-3.6438 2.38821,-7.13031 -2.27396,-11.31566 -2.25062,-2.02044 -4.09203,-4.22674 -4.09203,-4.90289 0,-0.67616 -1.03768,-3.27518 -2.30595,-5.77561 -2.18141,-4.30072 -2.29813,-6.29507 -0.36841,-6.29507 0.47062,0 0.85568,0.58909 0.85568,1.3091 0,2.11012 1.40297,2.39273 4.41817,0.88998 3.93435,-1.96085 4.26431,-2.91465 1.88397,-5.446 -3.37923,-3.59361 -0.5685,-2.5075 3.70061,1.42997 4.14727,3.8251 5.37716,4.22621 8.2495,2.69044 1.38359,-0.73977 2.62245,-0.44118 5.73821,1.38304 3.25216,1.90408 4.40691,2.16195 6.35973,1.42019 1.43038,-0.54331 2.38608,-1.60415 2.38608,-2.64856 0,-3.19596 3.81728,-3.15819 7.916,0.0783 0.84542,0.66757 0.85062,1.25788 0.0228,2.58221 -1.68239,2.69137 0.0634,3.53627 7.7819,3.76622 5.59518,0.16668 7.01535,0.49028 7.02525,1.60073 0.007,0.76551 0.25916,2.31166 0.56073,3.43589 0.30322,1.13039 0.1385,2.04407 -0.36851,2.04407 -0.50425,0 -1.18264,-1.05811 -1.50753,-2.35136 -0.48671,-1.93738 -0.82427,-2.15771 -1.91726,-1.25148 -1.68567,1.39765 -1.65551,4.45465 0.0664,6.72903 2.15427,2.84548 1.65041,4.83654 -1.39293,5.50433 -4.44066,0.97441 -3.12055,3.10993 3.20825,5.18994 3.06246,1.00649 3.78763,1.78755 5.20563,5.60678 0.90613,2.44056 1.43144,4.65324 1.16736,4.91707 -0.26408,0.26383 -1.49422,0.0181 -2.73366,-0.5461 -1.88647,-0.85872 -2.22034,-1.5856 -2.04985,-4.46284 l 0.20365,-3.43704 -6.13805,-0.26863 c -6.51554,-0.28515 -7.35128,0.3945 -5.26777,4.28387 0.68908,1.28632 0.39844,1.87688 -1.3958,2.83621 -1.24635,0.6664 -2.08644,1.64591 -1.86687,2.17671 1.65559,4.00215 1.71938,3.89581 -2.10758,3.51348 -4.00945,-0.40056 -4.84967,0.79713 -1.86542,2.65905 1.34115,0.83676 1.81868,2.11859 1.81868,4.8818 0,2.4543 0.67203,4.60062 1.94784,6.22101 2.86094,3.63364 3.17382,9.88386 0.61404,12.26639 -2.33258,2.17106 -2.93769,2.21528 -6.88125,0.50287 z"
       id="path3820"
       inkscape:connector-curvature="0" />
    <path
       style="display:inline;fill:#e9ddaf;fill-opacity:1"
       d="m -70.690085,886.00874 c 0.0011,-0.37474 -0.582667,-0.68136 -1.297147,-0.68136 -2.349433,0 -4.156988,-2.77008 -4.156988,-6.3706 0,-1.93347 -0.409206,-3.76806 -0.909344,-4.07687 -1.232569,-0.76104 -1.14962,-4.63689 0.143514,-6.70555 1.554117,-2.48617 0.481358,-4.1861 -4.013468,-6.35994 -2.209085,-1.06839 -4.561826,-2.96047 -5.228315,-4.20463 -1.264212,-2.35996 -3.103726,-2.94337 -4.116836,-1.30568 -1.211035,1.95763 -2.595473,0.16634 -2.889639,-3.73885 -0.988325,-13.12048 -1.403091,-11.97312 5.419992,-14.99322 1.875516,-0.83016 3.416294,-1.97382 3.423953,-2.54146 0.0076,-0.56765 0.375237,-1.60215 0.816841,-2.29889 0.664811,-1.04891 1.34562,-0.93171 3.958107,0.68136 1.735357,1.07149 4.566484,1.94816 6.291398,1.94816 2.633776,0 4.073368,0.92596 8.986073,5.77995 6.52661,6.44861 11.412569,8.35713 14.424153,5.63427 2.741487,-2.47865 5.246587,-1.8018 5.883429,1.58963 0.570782,3.03964 3.888551,6.75312 9.410312,10.53269 5.202996,3.56138 4.881453,10.21948 -0.551097,11.41153 -2.159663,0.47389 -3.502967,0.0262 -6.560065,-2.18622 -4.737123,-3.42829 -9.038989,-3.79429 -8.675175,-0.73807 0.133836,1.12424 0.48814,2.65729 0.787349,3.40678 1.108254,2.77606 1.312672,7.78441 0.3995,9.7879 -0.517872,1.13622 -1.996745,2.30909 -3.286384,2.60639 -1.289633,0.29729 -3.192907,1.06703 -4.229494,1.71051 -2.049548,1.27232 -14.033777,2.22227 -14.030669,1.11217 z"
       id="path3823"
       inkscape:connector-curvature="0" />
    <path
       style="display:inline;fill:#939dac;fill-opacity:1"
       d="m -168.33299,779.71706 c -0.27523,-1.08426 -1.17687,-3.65956 -3.73726,-10.67459 -0.83896,-2.29861 -3.35921,-4.85844 -9.09534,-9.23821 -4.36415,-3.33219 -9.01559,-6.32681 -10.33654,-6.6547 -5.36691,-1.33218 -13.78454,-8.68919 -13.76428,-12.02999 0.008,-1.34499 5.68934,-6.73449 8.05665,-7.64299 1.31811,-0.50585 3.91071,-1.06193 5.76132,-1.23573 2.40595,-0.22596 4.15411,-1.17586 6.1348,-3.33349 2.86026,-3.1158 2.91423,-3.60542 1.5341,-13.91921 -0.0669,-0.49966 1.10604,-1.04214 2.60645,-1.2055 3.675,-0.40013 4.50218,-1.40414 4.24916,-5.15756 -0.16235,-2.40836 0.14147,-3.17594 1.25708,-3.17594 1.59237,0 9.49789,5.33937 9.49789,6.41485 0,0.3608 1.12531,0.93502 2.50068,1.27606 1.37538,0.34104 3.45309,1.50959 4.61713,2.59679 2.77678,2.59348 12.2231,4.4298 14.51988,2.82261 2.46415,-1.72432 6.76124,-1.82421 9.2799,-0.21572 1.25034,0.79851 3.19406,1.72637 4.31936,2.06189 2.29979,0.68572 2.65608,3.37109 1.14548,8.63326 -1.08014,3.76264 -0.52397,4.4464 4.54166,5.58348 4.41133,0.99022 7.5361,-0.4209 9.24902,-4.17677 0.54224,-1.18896 2.17086,-2.65211 3.61916,-3.25144 3.67945,-1.52263 6.22422,0.79906 6.22422,5.67859 0,2.53348 0.44652,3.67981 1.59135,4.08542 0.87524,0.3101 2.28166,1.15495 3.12539,1.87744 1.763361,1.50999 3.454054,0.82511 3.496247,-1.4163 0.02619,-1.39161 0.1332,-1.40043 1.136676,-0.0938 0.609267,0.79335 1.587064,1.28102 2.172879,1.08371 0.676759,-0.22792 0.887817,0.31866 0.578841,1.49906 -0.313459,1.19755 0.03247,2.05665 0.973267,2.41734 1.02521,0.39304 1.220136,0.98697 0.655035,1.9958 -0.491117,0.87674 -0.424635,2.04397 0.170647,2.99627 0.736139,1.17762 0.600865,2.13078 -0.551861,3.88838 -0.839867,1.28059 -1.527038,3.29914 -1.527038,4.48567 0,2.37818 -3.542555,4.59387 -5.899943,3.69012 -0.75613,-0.28989 -1.37478,-0.12219 -1.37478,0.37266 0,0.49484 -0.81841,1.11353 -1.81869,1.37485 -1.90647,0.49809 -2.52812,3.73388 -0.90934,4.73339 1.60755,0.99257 0.97539,2.29107 -1.58968,3.26539 -1.37446,0.52207 -3.12427,1.51452 -3.88845,2.20544 -0.76419,0.69093 -3.0773,1.52587 -5.14025,1.85543 -3.48867,0.55733 -4.03431,0.33814 -7.80733,-3.1364 -3.61516,-3.32917 -4.54764,-3.73562 -8.57036,-3.73562 -3.67509,0 -4.92294,-0.43506 -6.71554,-2.34138 -1.78613,-1.89944 -2.71716,-2.2265 -4.93255,-1.73272 -1.50196,0.33476 -5.46998,0.80781 -8.81782,1.05121 -3.54446,0.2577 -6.51769,0.96105 -7.11815,1.68387 -0.56715,0.68272 -1.9654,3.91236 -3.10723,7.17697 -2.10771,6.02615 -3.70399,8.69767 -5.19704,8.69767 -0.45459,0 -0.95625,-0.51102 -1.1148,-1.1356 z"
       id="path3828"
       inkscape:connector-curvature="0" />
    <path
       style="display:inline;fill:#bec8b7;fill-opacity:1"
       d="m -81.936461,645.26263 c -1.096249,-4.08675 -0.632856,-4.84336 3.9817,-6.50115 4.7166,-1.69445 8.175926,-5.02699 8.175926,-7.87625 0,-0.90245 0.409205,-1.89348 0.909343,-2.20229 2.107921,-1.30153 0.815543,-4.09902 -2.728024,-5.90509 -2.000551,-1.01964 -3.637361,-2.51878 -3.637361,-3.33144 0,-2.90982 18.585821,0.0269 22.758178,3.59598 0.998146,0.85383 2.27416,1.55241 2.835589,1.55241 0.561434,0 2.595999,0.4715 4.521261,1.04777 2.981227,0.89235 3.588561,1.51682 4.09425,4.20979 0.448687,2.38943 0.239405,3.36015 -0.856528,3.97287 -0.872534,0.48784 -1.221315,1.40698 -0.875514,2.30726 0.457688,1.19159 0.218457,1.35076 -1.174442,0.78139 -0.962069,-0.39327 -2.416382,-0.90795 -3.231796,-1.14374 -2.079621,-0.60135 -6.424384,4.22066 -5.985285,6.64274 0.323192,1.78273 -0.04691,1.91895 -5.185464,1.90851 -7.604932,-0.0155 -18.661122,1.24841 -19.25013,2.20053 -0.974676,1.57557 -3.811472,0.75466 -4.351703,-1.25929 z"
       id="path3837"
       inkscape:connector-curvature="0" />
    <path
       style="display:inline;fill:#b7b7c8;fill-opacity:1"
       d="m -119.56524,655.71556 c -6.93635,-0.28298 -9.44996,-1.35979 -6.13806,-2.62948 2.17613,-0.83426 1.61692,-1.9525 -2.25734,-4.51392 -2.19239,-1.44948 -4.34615,-2.20486 -5.45819,-1.91433 -2.96637,0.77498 -3.76949,-1.91734 -1.75104,-5.87008 0.95545,-1.87104 1.73718,-4.03141 1.73718,-4.80081 0,-1.88452 0.53623,-1.77491 3.92537,0.80235 2.62176,1.99373 3.10902,2.08242 5.16804,0.94068 1.25034,-0.69333 3.22096,-1.27508 4.37915,-1.29279 2.27918,-0.0349 5.22599,-1.34264 7.52708,-3.34054 1.29519,-1.12453 1.31694,-1.95471 0.20504,-7.82946 -1.3998,-7.39589 -2.49277,-8.77997 -8.73901,-11.0666 -4.49496,-1.64552 -7.38731,-4.74988 -6.85758,-7.36026 0.16644,-0.82019 2.62667,-2.85663 5.46717,-4.52542 l 5.16455,-3.03416 1.44147,2.19787 c 3.95127,6.02467 15.01218,7.64772 23.803261,3.49283 6.573959,-3.10703 9.3149,-2.53324 17.259975,3.61319 3.450341,2.66924 7.577313,5.52091 9.171047,6.33706 5.176921,2.65109 4.420003,3.29524 -3.18375,2.70944 -8.599231,-0.66249 -10.201792,0.46356 -5.918985,4.159 1.498206,1.29274 3.494905,2.79603 4.437116,3.34065 1.634551,0.94481 1.641394,1.09957 0.149171,3.37482 -0.860167,1.31153 -1.563941,3.16656 -1.563941,4.12228 0,2.16299 -1.148988,3.04947 -6.521092,5.0312 -5.45565,2.01254 -6.515791,3.27411 -5.342392,6.35744 0.67222,1.7664 0.618539,2.38315 -0.207789,2.3873 -0.612793,0.003 -2.341779,0.65625 -3.842191,1.45151 -3.150659,1.66992 -12.82789,4.90222 -14.67682,4.90222 -0.68994,0 -1.95519,0.81763 -2.81165,1.81696 -1.01664,1.18622 -2.51296,1.75275 -4.31047,1.63203 -1.51429,-0.1017 -6.12919,-0.32264 -10.25532,-0.49098 z"
       id="path3840"
       inkscape:connector-curvature="0" />
    <path
       style="display:inline;fill:#bec8b7;fill-opacity:1"
       d="m -110.50952,604.61594 c -2.72894,-1.23737 -4.18735,-2.5861 -4.85005,-4.48531 -0.52121,-1.49373 -1.68661,-2.95018 -2.58977,-3.23656 -0.99167,-0.31444 -2.02663,-2.03845 -2.61285,-4.35238 -0.75115,-2.96496 -2.21417,-4.92304 -6.46785,-8.65643 -5.24536,-4.60377 -5.47265,-4.97823 -4.96282,-8.17628 0.45356,-2.84514 0.17421,-3.6637 -1.84884,-5.41745 -1.31072,-1.13625 -4.36326,-6.26036 -6.78342,-11.38689 -4.03522,-8.54769 -4.33845,-9.65758 -3.65502,-13.37818 1.56768,-8.5345 2.45188,-11.79272 3.56338,-13.13072 0.95983,-1.15543 0.75471,-1.69556 -1.23887,-3.26222 -1.70071,-1.3365 -2.38118,-2.70931 -2.3615,-4.76413 0.023,-2.40072 0.18367,-2.619 0.95453,-1.29677 0.99828,1.71231 4.91715,2.16969 5.83787,0.68135 0.30911,-0.49966 1.28084,-0.90847 2.15942,-0.90847 1.36275,0 1.76166,1.50142 2.71541,10.22035 1.98897,18.18266 2.60303,20.92444 5.66322,25.28647 2.93657,4.18582 12.17482,8.35795 20.96617,9.46864 4.32375,0.54626 8.620388,0.72299 9.548084,0.39273 1.03246,-0.36755 2.527913,0.0553 3.855369,1.09028 1.192756,0.92992 3.086368,1.69075 4.208024,1.69075 2.471188,0 3.303312,1.01492 5.331246,6.50238 1.574541,4.26062 9.284537,12.57212 11.66865,12.57901 0.646597,0.002 -0.154281,0.81349 -1.779725,1.8036 -2.390268,1.45599 -2.955358,2.38382 -2.955358,4.85242 0,4.4646 -2.337732,6.20245 -7.409262,5.50798 -3.308627,-0.45306 -4.957548,-0.11171 -8.760451,1.81353 -5.772336,2.92228 -12.530217,3.13112 -18.195587,0.5623 z"
       id="path3843"
       inkscape:connector-curvature="0" />
    <path
       style="display:inline;fill:#939dac;fill-opacity:1"
       d="m -144.77844,649.88633 c -2.26788,-1.78222 -2.7964,-1.8548 -5.74634,-0.7891 -3.00605,1.08597 -3.3721,1.02147 -4.89976,-0.86333 -0.90806,-1.12033 -1.65101,-2.59901 -1.65101,-3.28596 0,-0.68694 -2.45522,-2.48721 -5.45605,-4.00057 -5.00296,-2.52309 -6.66608,-4.5965 -4.67371,-5.82668 1.6475,-1.01724 1.95976,-8.87974 0.52083,-13.11398 -1.80437,-5.30961 -2.81586,-6.49667 -5.53575,-6.49667 -1.20517,0 -3.71258,-0.64703 -5.57203,-1.43784 -1.85946,-0.79081 -5.00706,-1.53156 -6.99468,-1.64611 -3.61165,-0.20814 -3.61542,-0.21238 -6.19585,-6.96556 -2.52097,-6.59754 -2.81721,-12.66239 -0.61851,-12.66239 0.47088,0 2.8968,-2.02801 5.39094,-4.5067 6.56777,-6.52708 8.59123,-7.32133 19.72575,-7.74275 7.7266,-0.29244 10.07003,-0.0784 11.84195,1.08148 2.06409,1.35115 2.38258,1.31791 4.85264,-0.50655 3.11431,-2.30031 4.80345,-2.45712 6.35458,-0.5899 1.26949,1.52819 3.73932,1.78892 5.04684,0.53278 1.78654,-1.71634 4.75027,-1.3593 7.75784,0.93459 5.735,4.37413 9.0195,8.31745 9.0195,10.82872 0,1.32668 0.82443,3.15755 1.83208,4.06858 1.81046,1.63689 1.76754,1.69278 -3.63737,4.7358 -4.68819,2.63951 -5.46944,3.4496 -5.46944,5.67142 0,3.14855 3.58507,6.43182 9.47813,8.68027 4.51275,1.72179 5.42274,3.39096 6.50785,11.93723 0.57861,4.55709 0.51597,4.73218 -2.19398,6.13221 -1.53427,0.79266 -3.49697,1.44119 -4.36154,1.44119 -0.86456,0 -2.92254,0.48792 -4.57328,1.08427 -2.70055,0.9756 -3.22641,0.87303 -5.24701,-1.02341 -2.42162,-2.27283 -5.06621,-2.01979 -5.06621,0.48475 0,0.83112 -0.86153,2.90377 -1.9145,4.60589 -1.66037,2.68398 -1.76732,3.44973 -0.80578,5.76889 0.60979,1.47077 0.87035,3.29468 0.57902,4.05315 -0.77653,2.02169 -5.39315,1.69682 -8.29515,-0.58372 z"
       id="path3846"
       inkscape:connector-curvature="0" />
    <path
       style="display:inline;fill:#b7b7c8;fill-opacity:1"
       d="m -205.04328,600.16776 c -0.62517,-0.25202 -1.14289,-1.34399 -1.15048,-2.42658 -0.0318,-4.53854 -2.36873,-9.6962 -5.40844,-11.93669 -2.76385,-2.03716 -3.2511,-2.13535 -4.58991,-0.92489 -0.8238,0.74481 -2.16087,1.35421 -2.97128,1.35421 -0.81041,0 -2.56587,1.43085 -3.90102,3.17967 -1.33516,1.74881 -2.88286,3.17966 -3.43933,3.17966 -0.55647,0 -3.52572,-2.62525 -6.59834,-5.8339 -5.46199,-5.70377 -5.67155,-5.8225 -9.39609,-5.32341 -3.44596,0.46176 -4.12937,0.20443 -7.16118,-2.69653 -1.84341,-1.76385 -4.72463,-3.89801 -6.4027,-4.74257 -3.04561,-1.53284 -3.04992,-1.54447 -2.42635,-6.53057 0.55784,-4.46061 0.37073,-5.36109 -1.74902,-8.41697 -1.97964,-2.85391 -2.50786,-4.9651 -3.18188,-12.71749 -0.67128,-7.72075 -1.20606,-9.86909 -3.15669,-12.68117 -3.50588,-5.05417 -3.09008,-7.00993 2.67669,-12.59017 l 5.02518,-4.86264 -0.98023,-3.63685 c -1.02744,-3.81197 -0.77363,-5.45615 1.70093,-11.019 1.00167,-2.25175 2.11333,-3.39269 3.32373,-3.41128 2.00612,-0.0308 10.64575,2.80388 11.36676,3.72947 0.25006,0.32102 2.15746,0.60487 4.23865,0.63077 2.0812,0.0259 4.58636,0.5477 5.56703,1.15955 1.48501,0.92652 2.31337,0.78502 4.95582,-0.84655 2.72221,-1.68081 3.78585,-1.84458 7.49,-1.15323 4.8129,0.89829 4.23413,1.2594 11.27518,-7.03493 2.65267,-3.12484 4.66742,-4.68031 6.06227,-4.68031 1.14904,0 2.28091,-0.51101 2.51527,-1.13559 0.5146,-1.37146 2.57059,0.93779 5.17069,5.80763 1.376,2.57715 1.64522,4.33585 1.21687,7.94916 -0.30253,2.55192 -0.18615,4.63262 0.25862,4.62378 0.44477,-0.009 1.83168,-1.25666 3.08202,-2.77295 1.25035,-1.51628 3.47025,-4.06414 4.93311,-5.6619 l 2.65976,-2.90503 1.16393,2.72543 c 2.06938,4.84561 1.56089,8.89762 -1.48207,11.81018 -3.56834,3.41544 -3.4458,4.44225 0.45467,3.80989 4.15449,-0.67354 4.1101,0.20696 -0.45467,9.01978 -2.00055,3.86229 -3.63736,7.14967 -3.63736,7.30529 0,0.15563 1.73911,1.39875 3.8647,2.7625 2.84988,1.82844 5.04867,2.48746 8.37361,2.5097 4.43528,0.0297 4.5295,0.0895 5.77003,3.66407 4.04529,11.65644 3.96345,11.51028 7.20184,12.86208 2.64916,1.10584 3.06209,1.64588 2.53419,3.31427 -0.34686,1.09624 -0.84634,4.33503 -1.10995,7.19731 -0.4685,5.08698 -0.41488,5.24036 2.38203,6.81356 1.57371,0.88519 3.02879,2.42707 3.2335,3.42639 0.20471,0.99932 0.58862,2.85498 0.85313,4.12368 l 0.48092,2.30673 -11.30281,0.11395 -11.30282,0.11396 -5.03094,3.4844 c -2.76701,1.91643 -5.26205,4.19142 -5.54452,5.05554 -0.28247,0.86413 -1.71682,2.28122 -3.18744,3.14912 -2.51376,1.4835 -3.48409,3.06467 -3.98872,6.49966 -0.31099,2.11687 -6.98889,3.58528 -10.27689,2.25981 z"
       id="path3851"
       inkscape:connector-curvature="0" />
    <path
       style="display:inline;fill:#c6e9af;fill-opacity:1"
       d="m -260.23247,632.22325 c 0.33247,-1.3234 0.19514,-2.9119 -0.30516,-3.52999 -0.50031,-0.61808 -1.43203,-3.57668 -2.07047,-6.57465 -1.40518,-6.59834 -2.36915,-7.99304 -5.1566,-7.4607 -1.51055,0.28849 -2.42938,-0.15438 -3.14679,-1.51677 -0.5573,-1.05834 -1.40347,-2.17886 -1.88036,-2.49007 -0.53859,-0.35145 -0.48701,-1.27534 0.13612,-2.43857 1.76221,-3.28959 1.22124,-7.09139 -1.23813,-8.70131 -1.23275,-0.80696 -3.13758,-1.4672 -4.23297,-1.4672 -1.87184,0 -1.9011,-0.0999 -0.48666,-1.66136 0.8738,-0.96462 1.50494,-3.18945 1.50494,-5.30504 0,-3.00496 -0.39848,-3.82505 -2.27335,-4.67848 -1.25034,-0.56916 -2.31055,-1.4524 -2.35601,-1.96277 -0.27223,-3.05572 -0.0629,-6.1285 0.51025,-7.49177 0.48517,-1.15392 -0.49142,-2.66835 -3.70337,-5.74291 -3.56332,-3.4109 -4.1858,-4.45501 -3.39859,-5.70062 0.66102,-1.04592 0.67555,-2.35146 0.0462,-4.15644 -0.6436,-1.84597 -0.61164,-3.12084 0.10707,-4.27058 1.29417,-2.07031 -0.79121,-4.45382 -3.89672,-4.45382 -1.24063,0 -2.71498,-0.93186 -3.59337,-2.27119 -0.92527,-1.41078 -2.34284,-2.27119 -3.74195,-2.27119 -1.23881,0 -2.25239,-0.35684 -2.25239,-0.79299 0,-1.23147 3.47893,-8.54256 5.00087,-10.50947 0.75048,-0.96991 1.36452,-2.68419 1.36452,-3.80951 0,-1.12532 0.82757,-2.62514 1.83904,-3.33294 2.77458,-1.94154 1.40367,-4.26699 -2.5155,-4.26699 l -3.2099,0 0.47445,-5.90509 c 0.26095,-3.2478 0.1601,-5.90509 -0.22411,-5.90509 -0.99539,0 -1.8505,-3.7603 -1.12047,-4.92716 1.188,-1.89886 1.15967,-4.60679 -0.0577,-5.51223 -1.84092,-1.36924 -3.09551,-6.00529 -2.46066,-9.09284 0.64885,-3.15567 -0.64993,-6.81357 -2.41922,-6.81357 -0.66993,0 -1.24936,-0.51102 -1.28763,-1.1356 -0.10147,-1.65609 -0.55645,-3.80925 -1.29855,-6.14517 -0.6335,-1.9941 -0.50984,-2.04085 4.20167,-1.58857 5.75287,0.55225 9.3052,-0.72202 8.67924,-3.11338 -0.23648,-0.90344 -0.0976,-1.84783 0.30864,-2.09866 0.40624,-0.25083 0.53677,-1.22713 0.29009,-2.16957 -0.24669,-0.94243 -0.004,-1.98818 0.54004,-2.3239 0.5437,-0.33571 0.98856,-1.51743 0.98856,-2.62605 0,-1.10862 0.88649,-2.774 1.96999,-3.70083 1.80862,-1.54711 2.05892,-1.56365 3.0556,-0.2019 0.59709,0.81579 1.44971,1.49524 1.89471,1.50988 2.28653,0.0753 9.44783,8.58104 9.44783,11.22159 0,0.72539 1.03812,2.07439 2.30692,2.99778 1.26881,0.92338 2.86752,3.30799 3.55269,5.29913 1.01308,2.94406 1.8136,3.75934 4.2858,4.36485 2.06458,0.50567 3.86942,1.93219 5.62482,4.44576 2.80538,4.01706 2.81394,5.21046 0.0919,12.81022 -1.31274,3.66517 -1.39153,4.955 -0.4869,7.9715 1.05017,3.50182 0.99866,3.66555 -1.91125,6.07479 -5.53869,4.58571 -7.09864,6.73165 -7.09864,9.7652 0,1.61467 0.63615,3.46322 1.41366,4.10789 2.48524,2.0606 3.05479,4.0644 4.006,14.09387 0.75377,7.94778 1.35412,10.43919 3.14707,13.06012 1.8476,2.70081 2.13081,3.95926 1.70504,7.5763 -0.39927,3.39199 -0.15618,4.72875 1.11515,6.13222 0.89415,0.98708 2.1185,1.79469 2.72077,1.79469 0.60228,0 2.95457,1.63526 5.22732,3.6339 3.4587,3.04158 4.77253,3.63391 8.06028,3.63391 3.59052,0 4.40929,0.47653 9.52905,5.54594 6.20857,6.14753 7.87937,6.42068 10.54643,1.7242 1.03167,-1.8167 2.26172,-2.72776 3.68282,-2.72776 1.17358,0 2.58792,-0.45371 3.14298,-1.00824 0.73936,-0.73867 1.75393,-0.56873 3.79461,0.63558 2.441,1.44056 2.85867,2.29063 3.3778,6.87478 0.81013,7.15377 2.36517,8.45156 9.2092,7.68574 l 5.25178,-0.58767 1.7429,4.25013 c 0.9586,2.33755 1.69526,4.6943 1.63702,5.2372 -0.55316,5.15686 -1.45006,6.48766 -4.96664,7.36943 -3.08543,0.77366 -9.44846,-1.05987 -10.90931,-3.14355 -1.02551,-1.46271 -1.77513,-1.59406 -5.26201,-0.92199 -5.82747,1.12323 -15.28018,1.03565 -18.62455,-0.17254 -1.95057,-0.70468 -3.71402,-0.75466 -5.5206,-0.15652 -2.29329,0.7593 -2.69256,1.3947 -2.93413,4.66932 -0.24179,3.2775 -0.5648,3.79041 -2.38702,3.79041 -4.04855,0 -7.79079,1.14549 -7.79079,2.38475 0,0.68704 -0.40919,1.24915 -0.90933,1.24915 -0.50014,0 -0.90935,0.61322 -0.90935,1.36272 0,0.74949 -0.76725,2.12924 -1.70501,3.0661 -0.93776,0.93687 -1.85846,2.15405 -2.04602,2.70487 -0.18755,0.55079 -1.69263,1.27056 -3.34463,1.59946 -2.88963,0.57533 -2.98069,0.5067 -2.39915,-1.80817 z"
       id="path3854"
       inkscape:connector-curvature="0" />
    <path
       style="display:inline;fill:#bec8b7;fill-opacity:1"
       d="m -209.13532,688.24089 c -1.76691,-0.26741 -2.50069,-0.9109 -2.50069,-2.19301 0,-0.998 -0.9884,-2.91271 -2.19646,-4.25492 -9.36741,-10.40763 -12.79935,-13.7606 -15.02923,-14.68337 -1.41158,-0.58413 -3.78265,-2.76979 -5.26906,-4.85701 -2.77938,-3.90283 -4.3049,-8.79155 -2.7434,-8.79155 0.48429,0 0.64499,-0.61322 0.35711,-1.36272 -0.97285,-2.53281 0.43348,-3.89751 4.67057,-4.5323 2.32063,-0.34767 4.7353,-1.30979 5.36593,-2.13805 1.37354,-1.804 1.40141,-2.05994 0.39682,-3.64379 -0.61945,-0.97662 -1.19305,-1.00843 -2.78975,-0.15472 -1.6315,0.87233 -2.31029,0.80316 -3.60489,-0.36732 -1.52111,-1.37528 -5.20072,-1.31938 -9.16588,0.13923 -3.28016,1.20662 -4.60425,0.70623 -6.76573,-2.55688 -1.24172,-1.87458 -3.08036,-3.66919 -4.08585,-3.98802 -1.5872,-0.50328 -1.68171,-0.84212 -0.71701,-2.57063 0.61114,-1.09502 1.62268,-2.31786 2.24784,-2.71743 0.62518,-0.39958 1.13668,-1.31942 1.13668,-2.04408 0,-0.72466 0.40921,-1.31757 0.90934,-1.31757 0.50014,0 0.90934,-0.61322 0.90934,-1.36271 0,-0.95653 0.9665,-1.36272 3.24248,-1.36272 5.11119,0 6.76027,-1.32742 6.76027,-5.44165 0,-3.3523 0.18692,-3.59581 3.19267,-4.15915 1.97408,-0.36999 3.68723,-0.18831 4.48844,0.476 1.83286,1.51969 8.93648,1.7455 16.18974,0.51463 5.24219,-0.88959 6.361,-0.84566 7.30083,0.28662 1.75154,2.1102 6.60268,3.78117 10.97741,3.78117 4.07902,0 5.18299,-1.09493 5.49583,-5.45085 0.0538,-0.74949 0.50654,-1.20846 1.00602,-1.01993 0.49947,0.18853 1.43729,0.54564 2.08403,0.79359 0.64674,0.24794 1.39719,0.22971 1.66767,-0.0405 0.27047,-0.27022 2.77211,0.2925 5.55918,1.25048 2.78708,0.95798 5.97626,1.74179 7.08707,1.74179 2.54561,0 3.58384,1.25778 5.36526,6.49985 1.51834,4.4679 1.17386,8.89234 -0.95898,12.31693 -1.11658,1.79285 -1.03697,2.20995 0.73694,3.86102 1.09381,1.01808 2.36457,1.85105 2.82391,1.85105 0.45935,0 0.60388,0.60215 0.32119,1.33811 -0.28268,0.73596 0.4998,2.54177 1.73886,4.0129 l 2.25283,2.67479 -2.78668,1.38885 c -2.69482,1.34307 -2.81477,1.31503 -3.639,-0.8508 -0.75235,-1.97693 -1.06753,-2.10539 -2.68684,-1.09508 -2.36766,1.47722 -2.31217,2.43927 0.43885,7.60831 1.25035,2.34934 2.27336,4.87671 2.27336,5.61639 0,0.73967 1.89695,3.10971 4.21546,5.26676 3.81368,3.54808 4.15875,4.20526 3.62032,6.89484 -0.83025,4.14727 -2.07276,5.1421 -3.72306,2.9809 -1.1669,-1.52817 -1.47179,-1.58319 -2.2465,-0.40541 -0.493,0.74949 -1.42148,1.40222 -2.0633,1.45052 -0.64181,0.0483 -1.94573,0.42267 -2.89759,0.83196 -1.35909,0.58438 -2.43288,-0.0364 -5.00138,-2.89108 -4.75067,-5.28012 -9.6361,-7.04423 -9.6361,-3.47954 0,1.32865 -0.60623,1.81695 -2.25578,1.81695 -1.57132,0 -2.62683,0.77004 -3.47859,2.53778 -0.85275,1.76979 -1.69942,2.38666 -2.79772,2.03841 -1.55385,-0.4927 -5.56269,3.71202 -5.56269,5.83449 0,0.5199 -0.65211,0.94526 -1.44915,0.94526 -0.79702,0 -1.66316,0.81764 -1.92473,1.81696 -0.47733,1.82355 -1.43579,1.98659 -6.85621,1.16625 z"
       id="path3857"
       inkscape:connector-curvature="0" />
    <path
       style="display:inline;fill:#c6e9af;fill-opacity:1"
       d="m -251.57092,731.15116 c -2.14454,-4.26368 -3.60878,-6.08769 -5.20909,-6.48896 -2.0357,-0.51044 -2.1058,-0.69088 -0.81985,-2.11047 0.77338,-0.85378 1.40616,-2.01083 1.40616,-2.57124 0,-0.5604 0.56531,-1.34584 1.25626,-1.74541 0.69094,-0.39958 1.54012,-2.43322 1.88705,-4.51921 0.51148,-3.07527 0.301,-4.1222 -1.11264,-5.5345 -2.32798,-2.32576 -3.0835,-5.41324 -1.47551,-6.02969 0.69493,-0.26643 1.26352,-1.27181 1.26352,-2.23419 0,-1.53122 0.39817,-1.66008 3.18753,-1.03158 1.88577,0.42491 3.40805,0.36177 3.7275,-0.15461 0.77261,-1.24893 -0.46422,-7.11429 -1.50019,-7.11429 -0.47748,0 -0.86814,-0.35162 -0.86814,-0.78139 0,-1.15674 6.08528,-7.39489 7.21366,-7.39489 0.95302,0 1.32575,-1.69755 1.03073,-4.6942 -0.17492,-1.77675 2.79603,-2.94369 5.39573,-2.11937 1.00027,0.31718 1.81868,0.188 1.81868,-0.28706 0,-0.47505 0.87155,-1.09143 1.93678,-1.36974 1.27385,-0.3328 1.75433,-0.98103 1.40373,-1.89381 -0.29318,-0.7633 -0.11507,-1.6459 0.3958,-1.96134 0.57767,-0.35668 0.33746,-1.22639 -0.63532,-2.30028 -1.37554,-1.51852 -1.3911,-1.72676 -0.12901,-1.72676 2.89475,0 13.35228,10.0433 15.26756,14.66279 0.59249,1.42904 1.61424,2.59825 2.27054,2.59825 0.65631,0 1.32277,1.10115 1.48103,2.44699 0.27592,2.34646 0.51189,2.4491 5.74378,2.49831 4.70731,0.0443 5.41938,-0.16686 5.18885,-1.53852 -0.15311,-0.911 0.30056,-1.58983 1.06251,-1.58983 0.73134,0 2.22609,-1.449 3.32167,-3.22 1.18289,-1.91213 2.59806,-3.12057 3.48419,-2.97522 2.1315,0.34964 3.76559,-0.90257 3.76559,-2.8856 0,-1.26041 0.7716,-1.78009 2.95535,-1.99045 2.40079,-0.23126 2.94181,-0.66825 2.88316,-2.32875 -0.0749,-2.1212 0.91382,-2.71501 1.89088,-1.13559 0.30911,0.49966 1.3525,0.90847 2.31866,0.90847 1.01423,0 2.62492,1.35159 3.81103,3.19797 1.12991,1.75888 2.97509,3.43846 4.1004,3.73239 2.38735,0.62358 2.58008,1.48911 0.682,3.06288 -0.7502,0.62202 -1.36401,1.90874 -1.36401,2.85938 0,1.20438 -0.85079,1.89842 -2.80618,2.28912 -1.5434,0.30839 -3.03948,1.16811 -3.32463,1.91049 -0.59685,1.55389 3.02689,4.70025 5.44881,4.73099 0.96204,0.0122 1.59134,0.71752 1.59134,1.78354 0,2.6928 1.75549,3.18942 3.74243,1.05871 2.63051,-2.82083 3.5323,-2.35648 3.5323,1.81882 0,4.01207 -0.0132,4.01629 -6.51938,2.09159 -0.96486,-0.28542 -1.72608,0.20589 -2.08901,1.3483 -0.31405,0.98855 -1.47237,1.92547 -2.57403,2.08204 -1.65122,0.23468 -2.05213,0.96281 -2.28264,4.1457 -0.25808,3.56358 -0.47717,3.86102 -2.84402,3.86102 -3.13944,0 -4.70324,1.70256 -4.00698,4.36253 0.43752,1.67146 0.14464,1.9968 -1.79754,1.9968 -1.27611,0 -3.34211,0.38816 -4.59111,0.86258 -2.06839,0.78565 -2.18205,1.09776 -1.27446,3.49993 1.56437,4.14055 0.39972,5.94729 -3.37736,5.23938 -2.07964,-0.38977 -4.06672,-0.1152 -5.85596,0.80917 -5.64129,2.91445 -13.72603,1.24135 -19.81632,-4.10092 -2.5498,-2.23661 -3.68628,-2.66731 -5.80913,-2.20149 -1.84154,0.40408 -3.53166,0.0292 -5.59224,-1.24047 -2.62061,-1.61471 -3.20902,-1.67765 -5.22643,-0.55911 -1.25034,0.69325 -3.40646,1.27494 -4.79136,1.29265 -2.15123,0.0275 -2.44336,0.32994 -2.00549,2.07626 0.60312,2.40533 -1.63042,11.81547 -2.9052,12.23999 -0.4834,0.16098 -2.22129,-2.37616 -3.86198,-5.6381 z"
       id="path3860"
       inkscape:connector-curvature="0" />
    <path
       style="display:inline;fill:#c6e9af;fill-opacity:1"
       d="m -152.93196,578.76386 c -0.77856,-1.11049 -1.41557,-3.10604 -1.41557,-4.43455 0,-1.70877 -0.96437,-3.15033 -3.2962,-4.9272 -3.21924,-2.4531 -3.28254,-2.62002 -2.71112,-7.14852 0.3218,-2.55022 0.82853,-5.96542 1.12606,-7.58932 0.45706,-2.49458 0.26983,-2.95254 -1.20712,-2.95254 -3.26798,0 -5.25712,-2.55351 -7.5457,-9.68664 l -2.28442,-7.12017 -4.54419,-0.0848 c -2.72589,-0.0509 -6.08618,-0.87394 -8.39787,-2.05692 l -3.85369,-1.97208 3.66453,-6.99185 c 4.47314,-8.53468 4.46243,-10.79053 -0.0497,-10.47568 l -3.18214,0.22206 2.79982,-2.56871 c 3.88539,-3.56467 4.27848,-5.15346 2.65523,-10.73191 -2.01186,-6.91399 -2.6058,-6.75786 -10.89202,2.86328 l -2.34728,2.72543 0.56739,-4.1956 c 0.60493,-4.47327 -0.79713,-8.43023 -4.37188,-12.33846 l -1.82793,-1.99845 2.77369,-2.77105 c 1.52552,-1.52408 3.35048,-2.77105 4.05545,-2.77105 0.70498,0 2.56956,-1.60095 4.14351,-3.55767 1.71065,-2.12664 3.96648,-3.80007 5.60824,-4.16032 1.51057,-0.33146 2.74649,-0.90371 2.74649,-1.27166 0,-0.36796 1.63682,-1.58807 3.63737,-2.71138 2.00055,-1.1233 3.63736,-2.42502 3.63736,-2.89271 0,-0.46769 0.93196,-0.85035 2.07102,-0.85035 1.13906,0 2.99805,-0.6487 4.1311,-1.44156 2.51677,-1.76114 2.77991,-1.5718 9.90092,7.12391 2.89641,3.53691 4.85706,6.56768 4.357,6.73503 -3.48277,1.16554 -7.31691,3.7363 -7.56641,5.07322 -0.33736,1.80771 3.35007,6.91171 5.04853,6.98798 0.61564,0.0276 1.39209,1.13591 1.72544,2.46281 0.71145,2.83198 -1.36896,4.83827 -5.06461,4.88416 -2.83759,0.0352 -5.50958,1.92709 -5.50958,3.90096 0,1.87375 4.96469,6.97186 6.78941,6.97186 0.76706,0 1.39466,0.61011 1.39466,1.3558 0,2.06089 3.67468,5.84067 5.13425,5.28112 2.28356,-0.87545 5.77548,4.27118 5.77673,8.51411 8.4e-4,2.94351 0.5005,4.18753 2.22666,5.54404 1.40723,1.10588 1.90758,2.06662 1.36077,2.6129 -0.47562,0.47517 -1.42857,3.09053 -2.11767,5.81191 -2.73069,10.78407 -2.73174,10.7722 1.79397,20.31698 2.30904,4.8698 5.39948,10.221 6.86762,11.89153 3.39457,3.86253 2.87028,6.81752 -1.58632,8.9407 -3.89351,1.85493 -5.27527,1.88323 -6.72524,0.13779 -0.62262,-0.74949 -1.85023,-1.36271 -2.72802,-1.36271 -0.8778,0 -2.10541,0.61322 -2.72803,1.36271 -1.53934,1.85304 -2.37648,1.71704 -4.04047,-0.65638 z"
       id="path3863"
       inkscape:connector-curvature="0" />
    <g
       id="g3873"
       style="display:inline;fill:#bec8b7"
       transform="matrix(0.55906941,0,0,0.55853765,-135.74003,483.89346)">
      <path
         inkscape:connector-curvature="0"
         id="path3866"
         d="m -107.07343,444.99854 c -5.37009,1.77229 -18.92153,12.61244 -18.92153,16.44366 0,6.01135 15.59526,19.70313 25.76417,22.61954 2.604122,0.74685 10.676715,5.64378 17.939095,10.88206 10.495147,7.57004 13.533356,10.70248 14.807989,15.26725 0.882013,3.1587 2.69326,7.18435 4.024991,8.94589 1.331729,1.76153 2.444607,4.60903 2.473058,6.32777 0.02845,1.71874 1.250648,4.44977 2.715997,6.06896 1.873854,2.07059 2.174185,3.55622 1.012332,5.00765 -0.908566,1.13502 -2.180766,3.78601 -2.827114,5.89108 -0.646345,2.10508 -2.901824,6.37178 -5.012176,9.48156 -2.683594,3.95449 -3.565838,7.00995 -2.934931,10.16449 0.715715,3.57858 -0.01529,5.23201 -3.538871,8.0036 -4.603888,3.62142 -7.081648,4.37285 -7.496116,2.27335 -0.132453,-0.67094 -0.396474,-2.3178 -0.586716,-3.65968 -0.805615,-5.68248 -2.963019,-9.75916 -5.164613,-9.75916 -1.540261,0 -2.033967,-1.02627 -1.421709,-2.95532 1.711166,-5.39141 -6.046055,-10.6646 -15.911196,-10.8161 -9.17224,-0.14087 -15.16795,-3.71874 -28.71034,-17.13257 -14.87536,-14.73415 -20.99202,-18.33452 -34.5971,-20.36446 -7.67502,-1.14515 -12.24539,-3.98339 -6.5821,-4.08754 2.61995,-0.0482 2.55132,-0.38062 -0.62625,-3.03344 l -3.56867,-2.97932 4.03215,-1.83717 c 4.87985,-2.22341 4.70119,-7.96703 -0.42296,-13.59674 -1.85745,-2.0407 -4.07709,-5.90617 -4.93254,-8.58994 -0.85545,-2.68377 -3.14008,-5.67685 -5.07696,-6.65129 -1.93688,-0.97444 -3.09314,-2.20017 -2.56946,-2.72384 0.52367,-0.52368 0.45466,-2.51955 -0.15337,-4.43527 -0.87604,-2.76016 -2.17292,-3.37662 -6.24799,-2.96995 -4.97864,0.49685 -5.12463,0.33187 -4.58229,-5.1787 0.30809,-3.13054 1.56282,-8.6092 2.78827,-12.17481 1.43023,-4.1614 1.66651,-7.04451 0.65983,-8.05119 -1.00667,-1.00668 1.43058,-2.33573 6.80614,-3.71144 7.3599,-1.88353 8.8637,-1.82257 12.41329,0.50321 2.61116,1.7109 5.92396,2.34047 9.37158,1.781 4.3985,-0.71378 6.46612,0.10479 11.8027,4.6727 3.5585,3.04595 8.42929,6.28301 10.82398,7.19347 6.3791,2.42533 19.05101,1.73141 24.40697,-1.06192 0.91978,-0.60162 3.58991,-2.34119 6.64979,-2.30942 3.05988,0.0318 6.50951,1.83488 8.98828,0.31862 5.190504,-3.17503 -0.54852,-10.6498 0.49022,-13.80367 0,0 2.181731,-1.41835 4.596788,-2.45248 2.415057,-1.03414 7.926031,-0.53392 8.859316,-0.14717 1.86657,0.7735 3.558208,4.85765 0.91797,12.08864 -3.372658,5.13068 -5.61005,6.30319 -9.880729,7.82382 -4.270675,1.52062 -8.274385,1.95172 -10.579175,2.72427 z"
         style="fill:#bec8b7;fill-opacity:1"
         sodipodi:nodetypes="cssssssssssssssssssssscsssscsssssssssscssssscsc" />
    </g>
    <path
       style="fill:#c6e9af;fill-opacity:1"
       d="m -145.55074,895.87632 c -1.78825,-0.9998 -4.61256,-6.7076 -3.89388,-7.86934 0.7919,-1.28011 -4.83858,-8.5545 -6.21336,-8.02746 -0.66653,0.25553 -1.63669,-0.52007 -2.20257,-1.76084 -0.55623,-1.21965 -2.08271,-2.62448 -3.39217,-3.12187 l -2.38084,-0.90433 0.32364,-11.11474 0.32365,-11.11473 -6.13805,-0.26863 -6.13805,-0.26862 0,-8.61639 c 0,-8.46468 1.13704,-12.90857 5.59074,-21.85029 0.91964,-1.84635 0.14268,-3.86935 -3.09572,-8.06053 -0.38608,-0.49966 -1.68774,-2.41338 -2.89259,-4.25269 l -2.19064,-3.34422 2.85311,-2.19815 c 2.42195,-1.86597 2.81803,-2.71867 2.62094,-5.64245 -0.15969,-2.36888 0.3123,-4.04223 1.51168,-5.35934 0.95912,-1.05328 2.22676,-3.42256 2.81697,-5.26507 0.59021,-1.84251 1.94176,-4.45327 3.00344,-5.80169 1.06168,-1.34842 2.84795,-5.07528 3.9695,-8.2819 2.8384,-8.11527 3.45945,-8.70211 8.48225,-8.01503 2.83567,0.3879 5.22987,0.11925 7.53669,-0.84569 4.25269,-1.77888 3.84314,-1.83655 6.61364,0.93131 1.80515,1.80344 3.36116,2.38208 6.73299,2.50383 3.67376,0.13265 4.99671,0.71021 8.15365,3.5596 3.30518,2.98319 4.33274,3.40126 8.35977,3.40126 4.31888,0 4.64983,0.16749 5.57606,2.82195 0.91245,2.61497 1.22578,2.78366 4.27206,2.29999 4.66481,-0.74066 6.131439,0.37228 4.81233,3.6518 -1.40211,3.48587 -0.22237,8.07266 3.33996,12.98563 1.575477,2.17281 2.864503,4.46611 2.864503,5.09622 0,0.63011 1.199707,2.15418 2.666015,3.38682 1.674711,1.40784 2.906508,3.52187 3.312792,5.6855 0.432601,2.30377 1.913971,4.71031 4.473566,7.26748 5.107047,5.10218 5.454911,6.86561 2.169196,10.99621 -1.462957,1.83914 -2.89284,4.27104 -3.177518,5.40422 -0.355517,1.41516 -1.676298,2.43476 -4.21781,3.25604 -2.035113,0.65763 -4.46177,2.22507 -5.392573,3.4832 -1.54955,2.09446 -1.584997,2.64393 -0.420034,6.51112 0.699784,2.32299 1.069837,5.28191 0.822343,6.57536 -0.247495,1.29346 0.04489,2.94747 0.64975,3.67558 0.962382,1.1585 1.358144,1.15471 3.168588,-0.0304 1.922337,-1.25836 2.173542,-1.19463 3.547229,0.89988 0.813105,1.23978 3.322831,3.33405 5.57716,4.65391 2.254321,1.31987 4.098769,2.70692 4.098769,3.08233 0,0.37542 -0.651159,1.98663 -1.447033,3.58046 -1.323144,2.64979 -1.323144,3.08677 0,5.10423 0.795874,1.21349 1.447033,3.8826 1.447033,5.93136 l 0,3.72501 -5.683377,-0.16498 c -7.753773,-0.22506 -11.293859,0.90953 -18.200219,5.83312 -3.24551,2.31375 -6.33632,4.20682 -6.86847,4.20682 -1.60023,0 -2.21226,-1.8105 -1.07486,-3.17967 1.76537,-2.12512 0.15588,-3.17966 -4.85295,-3.17966 -3.62032,0 -5.11486,-0.43085 -6.30282,-1.81695 -0.85646,-0.99933 -2.30828,-1.81696 -3.22627,-1.81696 -2.35309,0 -5.80975,-3.90876 -5.09721,-5.76386 0.9587,-2.49595 -3.12012,-1.88358 -4.27164,0.64132 -0.75555,1.65666 -0.64755,2.7844 0.47417,4.9515 1.53083,2.95748 1.81619,5.435 0.90058,7.81878 -0.38452,1.00108 -1.7343,1.43702 -4.44941,1.43702 -2.44897,0 -4.07399,0.4596 -4.37246,1.23666 -0.62676,1.63175 -3.63407,2.3687 -5.47224,1.34099 z"
       id="path3871"
       inkscape:connector-curvature="0" />
  </g>
</svg>
