<?xml version="1.0" encoding="UTF-8" standalone="no"?>
<!-- Created with Inkscape (http://www.inkscape.org/) -->

<svg
   xmlns:dc="http://purl.org/dc/elements/1.1/"
   xmlns:cc="http://creativecommons.org/ns#"
   xmlns:rdf="http://www.w3.org/1999/02/22-rdf-syntax-ns#"
   xmlns:svg="http://www.w3.org/2000/svg"
   xmlns="http://www.w3.org/2000/svg"
   xmlns:sodipodi="http://sodipodi.sourceforge.net/DTD/sodipodi-0.dtd"
   xmlns:inkscape="http://www.inkscape.org/namespaces/inkscape"
   width="353.36499mm"
   height="320.85773mm"
   viewBox="0 0 1252.0807 1136.8975"
   id="svg3735"
   version="1.1"
   inkscape:version="0.91 r13725"
   sodipodi:docname="iran.svg">
  <defs
     id="defs3737" />
  <sodipodi:namedview
     id="base"
     pagecolor="#ffffff"
     bordercolor="#666666"
     borderopacity="1.0"
     inkscape:pageopacity="0.0"
     inkscape:pageshadow="2"
     inkscape:zoom="7.8341054"
     inkscape:cx="430.50986"
     inkscape:cy="779.3107"
     inkscape:document-units="px"
     inkscape:current-layer="layer15"
     showgrid="false"
     inkscape:window-width="1440"
     inkscape:window-height="873"
     inkscape:window-x="-9"
     inkscape:window-y="-9"
     inkscape:window-maximized="1"
     fit-margin-top="0"
     fit-margin-left="0"
     fit-margin-right="0"
     fit-margin-bottom="0" />
  <metadata
     id="metadata3740">
    <rdf:RDF>
      <cc:Work
         rdf:about="">
        <dc:format>image/svg+xml</dc:format>
        <dc:type
           rdf:resource="http://purl.org/dc/dcmitype/StillImage" />
        <dc:title />
      </cc:Work>
    </rdf:RDF>
  </metadata>
  <g
     inkscape:groupmode="layer"
     id="layer2"
     inkscape:label="Layer 2"
     style="display:inline"
     transform="translate(307.84898,40.782505)"
     sodipodi:insensitive="true">
    <path
       style="fill:#a7ac93;fill-opacity:1"
       d="m 725.4913,425.8044 c -6.26212,-2.72012 -15.47828,-6.37035 -20.48035,-8.11163 -8.2979,-2.88861 -9.50914,-2.94983 -13.82547,-0.69888 -5.37322,2.8021 -13.87083,3.26889 -16.24725,0.89247 -1.04184,-1.04184 -11.3172,-0.99499 -29.64078,0.13517 l -28.04615,1.72976 -5.88952,-5.17107 c -5.0057,-4.39507 -6.64759,-4.98616 -10.94103,-3.93894 -2.77833,0.67766 -7.97926,1.29699 -11.55761,1.37627 -6.40741,0.14199 -6.50371,0.0577 -6.34781,-5.5487 0.0871,-3.13106 0.7178,-8.02311 1.40164,-10.87123 1.05784,-4.40573 0.55917,-5.86188 -3.34206,-9.75915 -3.64541,-3.64171 -4.84252,-6.71232 -5.83956,-14.9786 -0.68978,-5.7188 -2.42474,-12.18437 -3.85548,-14.36794 -3.43257,-5.23878 -11.80359,-8.58364 -21.40774,-8.55403 -11.90488,0.0368 -15.43974,2.52846 -24.0435,16.94859 -2.91938,4.89295 -13.23184,5.95146 -29.6841,3.04686 -8.27495,-1.46098 -15.04536,-3.11002 -15.04536,-3.66458 0,-0.55457 6.40444,-7.29918 14.2321,-14.98803 11.70863,-11.50099 16.01702,-14.62414 24.29884,-17.61427 10.43306,-3.76682 10.95332,-4.35926 16.65773,-18.96887 1.10071,-2.81906 3.77229,-6.78931 5.93683,-8.82279 2.16454,-2.03348 3.93553,-4.9657 3.93553,-6.51603 0,-2.70828 -15.21096,-17.75899 -17.94807,-17.75899 -2.91527,0 -9.48617,-17.56031 -10.51958,-28.1129 -0.91728,-9.36678 -0.5685,-12.01683 2.30785,-17.53524 4.3922,-8.42661 4.27808,-12.24888 -0.45833,-15.3523 -3.01966,-1.97856 -4.82859,-2.14721 -8.41312,-0.78437 -6.64183,2.52522 -8.8888,0.9852 -8.85879,-6.0716 0.025,-5.88008 0.58534,-6.51314 12.74334,-14.39758 l 12.71718,-8.24707 7.1816,3.21275 c 3.94989,1.76702 18.40341,8.73047 32.11895,15.47433 27.97963,13.75745 28.05027,13.76051 34.00281,1.47571 2.76796,-5.71248 5.57783,-8.56427 11.74635,-11.9216 l 8.10807,-4.41297 -2.79973,-4.73956 c -2.69735,-4.56625 -2.67738,-4.84021 0.54599,-7.49251 1.84014,-1.51413 4.16691,-4.68676 5.1706,-7.0503 1.58884,-3.74148 1.31376,-4.77752 -2.12655,-8.00952 -2.21199,-2.07806 -3.95143,-5.56699 -3.95143,-7.92569 0,-2.31743 -1.45529,-6.92875 -3.23397,-10.24738 -3.89561,-7.26838 -6.30494,-24.00868 -3.45541,-24.00868 1.04012,0 2.32835,2.18613 2.86274,4.85807 0.77521,3.87603 2.16439,5.18939 6.87207,6.49704 8.09906,2.24965 10.94263,2.0754 13.86786,-0.84983 2.22658,-2.22658 3.0268,-2.23808 7.15584,-0.10287 5.06043,2.61685 10.38932,2.51884 11.29819,-0.2078 0.7917,-2.37509 9.06819,0.64751 18.30803,6.68615 4.02565,2.63094 9.51518,5.24368 12.19894,5.80608 4.42846,0.92802 4.96338,1.74645 5.78609,8.85277 0.57337,4.95254 1.91834,8.39645 3.65969,9.37096 1.51424,0.84741 2.7658,2.4193 2.78127,3.49308 0.0587,4.08337 8.28754,9.77794 15.1022,10.45122 3.75529,0.37101 8.29167,2.02308 10.08085,3.67126 1.78918,1.64817 5.03878,3.24383 7.22133,3.5459 2.54526,0.35226 5.46163,2.92271 8.13263,7.16798 2.29039,3.64032 7.09209,11.21115 10.67045,16.82408 l 6.5061,10.20532 25.65581,-0.75309 c 22.29453,-0.65442 25.84586,-0.41349 27.1064,1.83896 0.87422,1.56215 0.80674,3.79506 -0.16981,5.61978 -0.89122,1.66525 -1.24185,3.40627 -0.77919,3.86893 0.46265,0.46266 0.1775,2.58686 -0.63369,4.72044 -1.07618,2.83057 -0.53567,6.33356 1.99945,12.95823 l 3.47433,9.079 -3.55255,7.3122 c -3.64111,7.49452 -3.45596,10.35304 0.6706,10.35304 2.66102,0 2.77299,0.45524 3.40066,13.82547 0.25198,5.36754 0.58622,11.95497 0.74275,14.63873 0.40306,6.9104 -5.27975,21.61876 -8.70266,22.52442 -2.30088,0.60881 -2.61542,1.77833 -1.66518,6.1916 2.00592,9.31624 -0.11646,26.27303 -4.75266,37.97154 -2.46941,6.23104 -8.90621,12.51921 -15.12803,14.7787 -4.85057,1.76152 -4.85401,1.77198 -1.21989,3.71692 2.00441,1.07272 3.64439,3.22567 3.64439,4.78432 0,1.55866 1.13941,4.46065 2.53201,6.44887 2.49739,3.56551 2.43618,3.61613 -4.47294,3.69892 -6.19158,0.0742 -7.61876,0.85008 -12.29117,6.68199 -2.90741,3.62893 -5.28621,8.34873 -5.28621,10.48847 0,2.8314 -0.90316,3.89043 -3.31785,3.89043 -1.82482,0 -6.18727,1.46387 -9.69436,3.25305 -8.42384,4.29752 -11.69246,4.06295 -25.21115,-1.80924 z"
       id="path3767"
       inkscape:connector-curvature="0" />
  </g>
  <g
     inkscape:groupmode="layer"
     id="layer3"
     inkscape:label="Layer 3"
     style="display:inline"
     transform="translate(307.84898,40.782505)"
     sodipodi:insensitive="true">
    <path
       style="fill:#c4c8b7;fill-opacity:1"
       d="m 493.37919,215.68592 c -3.94664,-0.94005 -8.35157,-3.95911 -12.76943,-8.75192 -5.65935,-6.13967 -6.61853,-8.14452 -5.96203,-12.4616 0.4303,-2.82964 0.0749,-6.49553 -0.78971,-8.14644 -1.21594,-2.32164 -0.79718,-3.54441 1.84848,-5.3975 4.3351,-3.03641 2.92829,-5.42632 -3.19418,-5.42632 -3.55746,0 -5.33485,-1.14679 -7.11613,-4.59141 -1.30587,-2.52528 -3.51169,-5.53536 -4.90183,-6.68907 -2.26336,-1.87842 -2.16218,-2.63099 0.96814,-7.2009 5.54381,-8.09332 9.69573,-10.72055 17.00435,-10.75992 11.02999,-0.0594 14.18648,-8.34335 4.87894,-12.80434 -4.29683,-2.05942 -4.5574,-2.70935 -3.59163,-8.95827 2.66079,-17.21624 4.85674,-23.67574 8.21209,-24.15622 2.42045,-0.34661 3.44242,-1.896964 3.81738,-5.791104 0.65096,-6.760568 6.47033,-10.933551 13.33312,-9.560992 2.67371,0.53474 6.79317,0.237751 9.15437,-0.659976 3.29956,-1.25449 4.92883,-1.056902 7.04011,0.853787 1.51086,1.367309 4.65902,2.486017 6.9959,2.486017 2.33688,0 4.70124,0.731936 5.25413,1.626525 1.79395,2.902679 7.00757,1.722746 10.17385,-2.302519 1.81605,-2.308738 3.88725,-3.436679 5.0224,-2.735118 3.11179,1.923194 8.38837,13.469926 8.38837,18.35626 0,6.28292 5.92632,9.67695 18.21373,10.43109 6.67528,0.4097 10.55881,1.43021 11.44091,3.00644 0.73446,1.31241 2.365,1.9911 3.62342,1.5082 1.25841,-0.4829 5.63067,1.08093 9.71613,3.47516 6.65293,3.89888 7.43184,4.97356 7.46383,10.29808 0.0197,3.26971 1.48352,9.13558 3.25306,13.03528 1.76953,3.89969 3.21733,8.6774 3.21733,10.61713 0,3.71035 4.10476,10.71608 7.49885,12.79851 2.28237,1.40035 -0.81258,9.07266 -5.09281,12.62494 -2.74757,2.28028 -3.19716,7.4237 -0.77952,8.91789 2.98925,1.84745 1.68102,3.58535 -5.61083,7.45367 -7.13776,3.78657 -9.005,6.07083 -12.22298,14.95274 -0.89962,2.48304 -2.6355,4.89829 -3.85749,5.36721 -1.222,0.46893 -12.39502,-4.13353 -24.82893,-10.22769 -21.306,-10.44259 -36.72371,-17.53668 -40.57736,-18.67072 -0.93773,-0.27596 -7.66721,3.36436 -14.95438,8.08961 -12.34194,8.00291 -13.28349,9.01041 -13.74702,14.70997 l -0.4976,6.11863 -6.02503,-1.43511 z"
       id="path3770"
       inkscape:connector-curvature="0" />
  </g>
  <g
     inkscape:groupmode="layer"
     id="layer4"
     inkscape:label="Layer 4"
     style="display:inline"
     transform="translate(307.84898,40.782505)"
     sodipodi:insensitive="true">
    <path
       style="fill:#c4c8b7;fill-opacity:1"
       d="m 782.80742,704.02319 c -1.57594,-0.94023 -4.60653,-5.14558 -6.73464,-9.3452 -3.58866,-7.08188 -14.63823,-16.57938 -19.28875,-16.57938 -0.96752,0 -3.07896,-1.19444 -4.6921,-2.65431 -2.34703,-2.12403 -3.83488,-2.30984 -7.44744,-0.93009 -5.13863,1.96259 -24.47578,7.32787 -38.09234,10.56905 l -9.17998,2.18514 -9.69609,-15.56394 c -5.33286,-8.56017 -10.86425,-17.83721 -12.292,-20.61566 -1.75769,-3.42056 -5.19195,-6.16852 -10.636,-8.51048 -4.42207,-1.90232 -21.84133,-10.12451 -38.70948,-18.27152 -16.86814,-8.14701 -33.23114,-15.7355 -36.3622,-16.86331 -10.41931,-3.75305 -28.42082,-11.01737 -31.71725,-12.79918 -13.96075,-7.54609 -28.80884,-14.03575 -34.2113,-14.95272 -10.77521,-1.82893 -11.44742,-2.23023 -17.07239,-10.19219 -2.99093,-4.23357 -7.13324,-9.44588 -9.20513,-11.58292 -2.07189,-2.13705 -4.79584,-7.34977 -6.05322,-11.58383 -3.41197,-11.48934 -6.29276,-16.25301 -16.92171,-27.98163 -5.31152,-5.86105 -13.11467,-16.04876 -17.34032,-22.63935 -4.22566,-6.59059 -10.13299,-14.54467 -13.1274,-17.67573 -5.34638,-5.59036 -5.47614,-6.07347 -7.20833,-26.83768 -0.97017,-11.62966 -2.18027,-23.47901 -2.68911,-26.3319 l -0.92516,-5.18706 9.85255,-1.11469 c 11.22002,-1.2694 13.64226,-3.27781 16.09948,-13.34893 1.68806,-6.91866 12.50596,-27.15644 18.2437,-34.12973 l 3.01611,-3.6656 15.52613,2.62313 c 21.62966,3.6543 26.05649,2.41736 33.92981,-9.48064 5.55543,-8.39525 6.72348,-9.28586 13.51408,-10.30418 19.61722,-2.94178 29.98218,5.66176 30.01513,24.91432 0.006,3.67772 1.5223,6.88447 4.95065,10.47191 4.0911,4.28094 4.75881,6.028 3.87964,10.15098 -0.58406,2.73905 -1.62734,6.02253 -2.3184,7.29662 -1.87185,3.45113 1.36159,11.05939 5.11758,12.04161 1.80574,0.47221 6.70027,-0.17848 10.87675,-1.44597 9.82729,-2.98243 9.04039,-3.11221 15.4956,2.55554 l 5.57544,4.89529 23.35199,-1.02111 c 28.42541,-1.24296 31.64428,-1.22229 38.5562,0.24759 3.24039,0.6891 7.99133,0.31759 11.73385,-0.91756 5.41785,-1.78805 7.59217,-1.6667 15.69978,0.87616 5.17605,1.6234 13.80262,5.02501 19.17015,7.55912 11.47872,5.41933 16.97584,5.69229 26.60867,1.32128 3.89971,-1.76953 8.05901,-3.21733 9.24292,-3.21733 3.25026,0 4.43572,5.73101 4.23481,20.47287 l -0.1818,13.33948 5.50467,2.61214 c 3.02757,1.43667 8.3218,2.66992 11.76496,2.74054 3.44315,0.0706 5.34536,0.49759 4.22712,0.94881 -1.11823,0.45122 -2.03315,2.4407 -2.03315,4.42107 0,2.07858 -2.80695,6.31859 -6.64016,10.03024 -9.20678,8.91477 -11.96696,14.55189 -9.80047,20.01544 0.93909,2.36825 3.24578,10.52738 5.12598,18.13138 1.8802,7.60401 4.77616,17.48516 6.43546,21.9581 1.6593,4.47295 3.90177,13.34638 4.9833,19.71875 1.66623,9.81746 1.59509,12.33045 -0.46605,16.46208 -2.61204,5.23594 -2.95175,29.99306 -0.56796,41.3891 1.21971,5.83096 1.50705,6.03418 10.03867,7.10014 7.45108,0.93094 8.81224,1.62393 8.97572,4.56963 0.30215,5.44385 -0.32595,8.15737 -2.49795,10.79164 -5.08971,6.17299 -7.83361,21.94405 -7.10281,40.82471 0.39476,10.19892 1.02621,19.64139 1.40322,20.98327 0.84451,3.00584 -7.64106,4.09092 -11.93903,1.52669 z"
       id="path3773"
       inkscape:connector-curvature="0" />
  </g>
  <g
     inkscape:groupmode="layer"
     id="layer5"
     inkscape:label="Layer 5"
     style="display:inline"
     transform="translate(307.84898,40.782505)"
     sodipodi:insensitive="true">
    <path
       style="fill:#8a916f;fill-opacity:1"
       d="m 806.97234,1092.0494 c -3.29563,-2.2364 -7.10557,-4.0663 -8.46654,-4.0663 -1.36096,0 -4.02133,-0.8278 -5.91193,-1.8396 -1.8906,-1.0119 -7.14902,-2.2927 -11.68538,-2.8465 -7.53982,-0.9203 -8.29285,-1.3983 -8.77109,-5.5676 -0.68038,-5.9316 -6.67233,-8.9578 -12.48905,-6.3075 -2.23648,1.019 -4.06632,2.9663 -4.06632,4.3274 0,3.1914 -1.45958,3.1299 -5.15813,-0.2172 -2.76876,-2.5057 -3.18377,-2.5025 -6.00007,0.046 -2.47283,2.2379 -3.88121,2.4128 -7.70907,0.9574 -2.57593,-0.9793 -7.01284,-1.3436 -9.8598,-0.8096 -2.89209,0.5426 -5.63351,0.2314 -6.21239,-0.7053 -0.56985,-0.922 -5.0443,-1.6764 -9.94322,-1.6764 -5.48335,0 -10.45798,-1.0162 -12.94175,-2.6436 -2.79142,-1.829 -5.90621,-2.3476 -10.10856,-1.683 -5.75759,0.9106 -6.22339,0.6459 -8.94354,-5.0824 -5.18357,-10.9159 -7.42602,-14.0767 -16.02109,-22.5821 -8.41563,-8.3279 -8.46971,-8.4453 -5.78125,-12.5484 1.49262,-2.278 2.71385,-6.2738 2.71385,-8.8795 0,-2.6057 1.0979,-5.6488 2.43979,-6.7625 3.12568,-2.594 3.12568,-7.165 0,-9.7591 -3.16295,-2.625 -3.08019,-4.72908 0.33443,-8.5022 2.3409,-2.58666 2.44707,-3.58933 0.67972,-6.41931 -1.50228,-2.40552 -1.59684,-3.85148 -0.33443,-5.11389 3.38207,-3.38207 1.90725,-10.47119 -3.25171,-15.63015 -4.99374,-4.99375 -5.01275,-5.08098 -5.2862,-24.25842 -0.17905,-12.55652 0.38005,-20.04533 1.60844,-21.54439 3.25617,-3.97362 5.3714,-20.52635 4.33705,-33.93956 l -0.99508,-12.90388 5.11357,-4.30278 c 7.85021,-6.60551 6.47581,-13.42082 -3.97504,-19.71118 -3.0429,-1.83152 -3.0398,-1.89692 0.14272,-3.01665 13.26593,-4.66742 18.25569,-7.22262 24.07273,-12.32736 l 6.644,-5.83043 -2.75279,-5.80107 c -3.8435,-8.09956 -3.50085,-16.77073 0.9069,-22.95013 3.25141,-4.55829 3.6355,-6.93632 3.44292,-21.31631 -0.20975,-15.66234 -0.36396,-16.30302 -4.76986,-19.81616 l -4.5531,-3.63052 2.74158,-9.86092 c 1.50787,-5.42351 3.48805,-15.17062 4.4004,-21.66025 0.91235,-6.48963 2.92298,-17.12531 4.46806,-23.63485 2.69014,-11.33369 3.05064,-11.90019 8.5021,-13.36042 3.13106,-0.83868 11.54833,-3.07889 18.70504,-4.97824 7.15672,-1.89936 15.8488,-4.46461 19.31573,-5.70058 5.44008,-1.93938 6.77075,-1.91995 9.71444,0.14189 1.876,1.314 4.52894,2.39321 5.89542,2.39823 3.10299,0.0114 13.27721,9.84349 20.18809,19.50917 4.85757,6.79389 5.75282,7.31937 12.4699,7.31937 6.75467,0 7.20665,-0.27081 6.78673,-4.06632 -0.24743,-2.23647 -0.88915,-12.31806 -1.42605,-22.40352 -1.0289,-19.3277 0.15506,-25.40044 7.74421,-39.7212 2.00078,-3.77548 2.81214,-7.49401 2.18252,-10.00262 l -1.00218,-3.99304 11.92768,2.27471 c 6.56024,1.25109 14.55902,2.27557 17.77507,2.27662 7.70298,0.003 10.19882,3.24441 12.7208,16.52316 3.02704,15.93814 0.60773,25.67213 -9.24976,37.21595 -4.23055,4.95426 -17.43852,20.86537 -29.35107,35.35802 l -21.65917,26.35028 9.235,11.81123 c 5.07925,6.49618 12.38236,15.27342 16.22913,19.50497 4.71594,5.18766 6.72992,8.70406 6.183,10.7955 -0.44612,1.70594 -0.0146,3.59351 0.9571,4.19456 0.97253,0.60105 1.76822,2.35084 1.76822,3.88841 0,1.53755 1.44865,4.03594 3.21922,5.55196 1.82641,1.56381 2.80672,3.8314 2.26579,5.24106 -0.52441,1.36656 -0.20852,2.48467 0.70197,2.48467 0.91052,0 3.17552,3.11073 5.03337,6.91273 1.85785,3.802 7.96162,11.81806 13.56392,17.81347 8.91021,9.53539 11.40841,11.23452 19.94519,13.56558 19.55956,5.34094 21.18679,5.87633 23.60699,7.76713 1.3542,1.05799 3.79793,4.00978 5.43053,6.55957 2.75134,4.297 3.49565,4.55692 10.17945,3.55461 l 7.21106,-1.08136 -1.05158,6.57627 c -0.58575,3.66306 0.23378,15.95971 1.85001,27.75851 2.47936,18.09974 2.58887,22.12985 0.75256,27.69392 -1.18198,3.58143 -1.67108,6.98965 -1.08688,7.57383 0.58419,0.58419 0.37843,1.88599 -0.45721,2.89289 -2.22631,2.68253 0.44607,5.95348 5.29925,6.48623 2.32552,0.25527 7.7393,-0.42872 12.0306,-1.52 5.47921,-1.39337 8.89204,-1.48868 11.46204,-0.32014 3.76805,1.71329 4.80531,5.81791 2.15878,8.54255 -0.8255,0.84986 -1.6967,5.20488 -1.93601,9.67783 -0.23931,4.47294 -0.99403,8.52093 -1.67716,8.99553 -0.68312,0.4746 -1.42539,3.58534 -1.64947,6.91274 -0.40278,5.98067 -0.49196,6.05358 -7.801,6.37812 -4.06644,0.18056 -9.94728,0.18219 -13.0685,0.003 -3.12122,-0.17858 -8.88106,1.18237 -12.79964,3.02431 -3.91857,1.84196 -8.05688,2.99128 -9.19623,2.55407 -1.13935,-0.43721 -5.06889,0.68804 -8.73231,2.50055 -5.26993,2.60736 -7.00691,4.58098 -8.31848,9.45175 -2.19338,8.1456 -4.92033,10.3137 -10.36737,8.2427 -3.35683,-1.2762 -5.41185,-0.9294 -9.78604,1.6514 -5.33052,3.1451 -6.66302,6.213 -7.72493,17.786 -0.12313,1.3419 -0.86507,3.2576 -1.64874,4.2571 -0.87584,1.1171 -0.4693,2.6104 1.05503,3.8755 1.74563,1.4488 1.98667,2.6525 0.81407,4.0654 -0.91619,1.1039 -1.47417,3.7516 -1.23995,5.8836 0.33972,3.0922 -0.25676,3.7833 -2.94819,3.416 -4.47551,-0.6108 -7.33174,5.7309 -8.26564,18.3523 -1.30462,17.6313 -2.04138,20.3316 -5.54738,20.3316 -1.8501,0 -4.00054,1.7257 -5.06696,4.0663 -1.49032,3.2709 -3.02996,4.0663 -7.87079,4.0663 -3.73701,0 -8.28922,-1.5413 -12.01009,-4.0663 l 0,3e-4 z"
       id="path3776"
       inkscape:connector-curvature="0" />
  </g>
  <g
     inkscape:groupmode="layer"
     id="layer6"
     inkscape:label="Layer 6"
     style="display:inline"
     transform="translate(307.84898,40.782505)"
     sodipodi:insensitive="true">
    <path
       style="fill:#676c53;fill-opacity:1"
       d="m 654.92448,1026.639 c -0.29983,-3.1673 -6.70925,-5.9779 -8.81961,-3.8676 -0.97746,0.9775 -3.40251,1.7772 -5.38897,1.7772 -2.68749,0 -3.88501,-1.2439 -4.67942,-4.8609 -1.35519,-6.1702 -2.69735,-6.9374 -12.84822,-7.3446 -16.60201,-0.6661 -15.49986,-0.1461 -14.63714,-6.9062 2.23651,-17.52441 4.65712,-29.40604 5.8417,-28.67394 0.73204,0.45243 1.79605,-0.38937 2.36445,-1.87065 0.70718,-1.84285 -1.22233,-4.94002 -6.11095,-9.80901 -7.54822,-7.51792 -11.18014,-8.73905 -14.41154,-4.84545 -3.91425,4.71639 -7.98086,4.53433 -14.25606,-0.63822 -3.33064,-2.74539 -7.38609,-4.99163 -9.01211,-4.99163 -1.626,0 -4.75295,-1.79658 -6.94876,-3.99239 -3.73055,-3.73053 -3.99239,-5.10956 -3.99239,-21.02678 0,-16.30758 -0.17641,-17.17315 -4.13445,-20.28655 -3.83011,-3.01276 -3.91991,-3.37424 -1.21989,-4.91076 2.45559,-1.39743 2.58744,-2.1205 0.8372,-4.59189 -1.14255,-1.61332 -4.0703,-5.9996 -6.5061,-9.74733 -2.43582,-3.74771 -5.88505,-7.04143 -7.66497,-7.31937 -2.58998,-0.40442 -3.48318,-2.29176 -4.4728,-9.45122 -2.509,-18.15113 -8.75239,-21.21827 -19.91715,-9.78453 -9.34299,9.56809 -14.95899,10.92593 -24.72381,5.97773 -14.83098,-7.51543 -20.35938,-15.89446 -16.9465,-25.68466 2.71883,-7.79924 2.27626,-26.02696 -0.73637,-30.32807 -1.39261,-1.98824 -3.40543,-3.59547 -4.47294,-3.57163 -1.06751,0.0239 -6.27711,3.31755 -11.57689,7.31937 -12.00355,9.06376 -15.50798,9.19288 -22.23717,0.81931 -5.28204,-6.57279 -13.92123,-10.76018 -19.2986,-9.35395 -3.33303,0.8716 -5.28848,-2.4194 -8.15461,-13.72414 -0.98475,-3.88413 -2.97206,-9.8068 -4.41623,-13.16151 -2.3998,-5.57454 -3.17829,-6.09947 -9.04567,-6.09947 -11.16683,0 -16.22306,-3.64691 -21.33963,-15.39166 -2.51055,-5.76283 -4.12555,-11.18834 -3.58888,-12.05669 0.53667,-0.86836 3.16319,-2.05927 5.83669,-2.64647 5.34255,-1.17343 5.61764,-1.86015 3.245,-8.10067 -1.5046,-3.9574 -1.16159,-7.19083 2.45381,-23.1311 0.52299,-2.30583 -0.37545,-4.69223 -2.51803,-6.68835 -1.83212,-1.70688 -3.76429,-5.94915 -4.29371,-9.42728 -0.52942,-3.47812 -2.72617,-8.69389 -4.88166,-11.59061 -3.50995,-4.71693 -3.73772,-5.94026 -2.18184,-11.71835 0.95548,-3.54838 3.61289,-8.6807 5.90536,-11.40514 3.5758,-4.2496 5.27423,-4.95354 11.95167,-4.95354 4.28095,0 10.8897,-1.09591 14.68612,-2.43537 5.22716,-1.84425 10.70525,-2.18909 22.56923,-1.42071 12.12279,0.78513 16.99209,0.45766 21.52615,-1.44768 6.87879,-2.89068 7.96597,-6.37788 7.96597,-25.55145 0,-14.86231 0.35034,-15.29686 17.6778,-21.92636 7.48401,-2.8634 14.9872,-7.25188 19.97923,-11.68551 4.39685,-3.90503 9.33501,-7.10005 10.97368,-7.10005 1.63868,0 4.9529,-1.55235 7.36495,-3.44967 3.30033,-2.59604 5.77925,-3.22349 10.01787,-2.53566 7.31316,1.18677 26.27904,8.76407 31.91271,12.74986 2.42056,1.71253 6.81218,3.892 9.75915,4.84325 2.94699,0.95126 8.65186,3.21663 12.67752,5.03415 4.02565,1.81752 10.97905,4.60015 15.45199,6.18362 4.47295,1.58347 24.6012,10.92579 44.72946,20.7607 38.69783,18.90824 36.24926,17.10164 45.63958,33.67372 1.52071,2.68377 5.41474,8.88854 8.6534,13.78838 6.58073,9.95611 6.91751,12.24679 3.49504,23.77146 -1.31638,4.43275 -3.14142,13.53182 -4.05564,20.22016 -0.91424,6.68834 -2.87503,17.22869 -4.35733,23.423 l -2.69509,11.26239 4.21059,3.37635 c 3.92781,3.1496 4.24461,4.43197 4.71757,19.09617 0.45787,14.19577 0.15224,16.20001 -3.15266,20.67235 -4.34422,5.87887 -4.8186,15.42726 -1.19704,24.09483 2.23902,5.35876 2.21629,6.16611 -0.25049,8.89186 -3.35167,3.70357 -21.20043,12.76068 -25.14732,12.76068 -5.61174,0 -5.29872,3.72616 0.71855,8.55338 7.22667,5.79744 7.4494,8.92111 1.07178,15.03125 l -4.87958,4.67493 0,19.15378 c 0,15.65641 -0.6246,20.72401 -3.42073,27.75327 -3.03004,7.61733 -3.29552,10.55002 -2.32456,25.67799 1.02489,15.96801 1.40595,17.40085 5.86052,22.03554 5.18959,5.39945 5.74835,8.18227 2.89869,14.43659 -1.46044,3.20533 -1.38881,4.66925 0.3298,6.74005 1.86904,2.25205 1.78366,2.87581 -0.57413,4.19531 -3.50782,1.96307 -3.5647,7.57294 -0.11549,11.38434 2.45913,2.7173 2.43602,3.2645 -0.31453,7.4474 -1.63278,2.4831 -3.47491,7.0764 -4.09364,10.2075 -0.61872,3.131 -1.20912,4.8037 -1.31199,3.7169 l 6e-5,0 z"
       id="path3779"
       inkscape:connector-curvature="0" />
  </g>
  <g
     inkscape:groupmode="layer"
     id="layer7"
     inkscape:label="Layer 7"
     style="display:inline"
     transform="translate(307.84898,40.782505)"
     sodipodi:insensitive="true">
    <path
       style="fill:#a7ac93;fill-opacity:1"
       d="m 666.54485,1070.5642 c -2.46444,-1.2785 -5.66247,-3.394 -7.10673,-4.7011 -3.6994,-3.3479 -11.58855,-5.461 -26.65879,-7.1405 -10.61973,-1.1836 -14.32079,-0.9644 -20.12939,1.192 l -7.11719,2.6422 -4.42703,-5.4242 c -4.13027,-5.0606 -4.7708,-5.3044 -9.55472,-3.6367 -4.53661,1.5814 -5.12765,1.4441 -5.12765,-1.1913 0,-3.5052 -4.29362,-4.9314 -14.93948,-4.9624 -10.06909,-0.029 -15.96451,-2.3792 -15.96451,-6.3633 0,-1.7427 -1.85553,-5.3737 -4.12341,-8.0689 -2.99603,-3.5605 -3.84774,-5.9986 -3.1152,-8.9174 0.6848,-2.7284 -0.32976,-6.4135 -3.16277,-11.4879 -3.26084,-5.8407 -4.29077,-10.2488 -4.72004,-20.20157 -0.43651,-10.12099 -1.44358,-14.33114 -4.91276,-20.53819 -2.40004,-4.29413 -4.36371,-8.86207 -4.36371,-10.15096 0,-3.09691 -7.56351,-12.92289 -11.06433,-14.374 -1.51862,-0.62949 -8.8672,-1.73466 -16.33017,-2.45595 -10.38911,-1.00409 -15.15382,-0.75942 -20.33157,1.04406 -9.49602,3.30759 -17.02516,6.96275 -18.17513,8.82344 -0.53809,0.87065 -2.7218,1.583 -4.85267,1.583 -2.13088,0 -4.28422,0.66322 -4.78521,1.47383 -0.50099,0.8106 -2.29919,1.11077 -3.99602,0.66704 -4.69358,-1.2274 -9.53874,2.1623 -10.70943,7.49237 -1.45563,6.62746 -4.62405,8.74557 -11.79757,7.88677 -6.01022,-0.71956 -18.32081,3.90543 -18.32081,6.88298 0,0.71676 -2.01283,2.09105 -4.47295,3.05398 -2.46012,0.96294 -6.30278,3.1633 -8.53926,4.88972 -2.23647,1.72641 -6.69243,3.58283 -9.90212,4.1254 -4.80345,0.81198 -6.62841,0.25192 -10.31631,-3.1659 -2.84982,-2.64114 -5.56318,-3.80877 -7.45532,-3.20823 -2.9185,0.92631 -9.73634,-4.54236 -9.73634,-7.80963 0,-0.82289 -1.7089,-1.06724 -3.79757,-0.54303 -2.08865,0.52423 -6.22662,0.25649 -9.19547,-0.59497 -3.36609,-0.96537 -9.38806,-0.98302 -15.99853,-0.0468 -10.297,1.45823 -10.77301,1.36469 -16.61952,-3.26584 -3.31039,-2.62189 -6.90641,-6.90971 -7.99114,-9.52849 -1.56617,-3.78107 -4.03727,-5.48743 -12.00174,-8.28753 -21.90628,-7.70169 -42.47586,-19.35299 -39.47109,-22.35777 0.56346,-0.56345 4.63056,-1.48709 9.038,-2.05251 7.40108,-0.94947 8.3276,-0.67011 12.123,3.6552 3.70873,4.22654 4.79234,4.58083 11.11212,3.63312 5.83774,-0.87542 7.51185,-0.48745 10.06365,2.33227 2.21696,2.4497 5.03543,3.38238 10.2213,3.38238 3.93815,0 10.22915,0.77194 13.98,1.71542 5.4115,1.3612 8.05173,1.20026 12.78597,-0.77942 5.92855,-2.47909 5.96449,-2.55278 5.69061,-11.66859 -0.25208,-8.38997 0.072,-9.31215 3.79292,-10.79375 2.2377,-0.89101 10.65597,-1.80527 18.70728,-2.03169 8.0513,-0.22643 16.6992,-1.23996 19.21756,-2.2523 5.76756,-2.31846 5.53883,-2.34273 13.31295,1.41244 3.57836,1.72847 8.01532,3.16751 9.85991,3.19786 3.75579,0.0618 9.38541,-6.67286 10.99572,-13.15412 1.64378,-6.61593 10.64758,-12.53082 19.97603,-13.12289 7.42117,-0.47101 8.0005,-0.82391 8.49789,-5.17644 0.39385,-3.4465 -0.76386,-6.00978 -4.41632,-9.77818 l -4.95012,-5.10722 2.25091,-8.92686 c 1.23802,-4.90978 2.69465,-10.39074 3.23697,-12.17992 1.45823,-4.81081 -4.11402,-12.62428 -14.44693,-20.25765 -8.48515,-6.26834 -11.17487,-9.83308 -7.41943,-9.83308 2.12892,0 2.09169,-7.47731 -0.0573,-11.49261 -1.51883,-2.838 -1.11376,-3.14612 4.13603,-3.14612 4.65387,0 7.38734,1.4663 13.64475,7.31937 4.80393,4.49352 9.34128,7.31936 11.75244,7.31936 2.18545,0 7.41958,-2.88573 11.80072,-6.5061 8.9615,-7.40534 14.75921,-8.4207 16.25306,-2.84642 1.60321,5.98229 1.16165,18.55473 -0.92572,26.35921 -2.68084,10.02338 0.53799,16.4431 12.08877,24.11006 14.93694,9.91458 19.44402,9.64928 32.15181,-1.89252 4.02565,-3.65628 8.57451,-6.65812 10.10856,-6.67075 3.26247,-0.0268 6.15286,4.67779 6.16577,10.0359 0.0192,7.94143 3.29412,15.96555 6.51626,15.96555 1.71565,0 3.9858,1.64686 5.04476,3.65969 1.05899,2.01282 3.67668,5.76452 5.81713,8.3371 3.59634,4.32243 3.69362,4.8963 1.28167,7.56148 -2.41502,2.66857 -2.32888,3.08097 1.15284,5.51946 3.47056,2.43067 3.82607,4.09762 4.57615,21.45712 0.74829,17.31782 1.12008,19.06983 4.65314,21.927 2.11194,1.70791 5.16661,3.10529 6.78816,3.10529 1.62154,0 6.34159,2.59019 10.48901,5.75598 l 7.54075,5.75598 4.90757,-4.12945 c 2.69917,-2.2712 5.46158,-4.12946 6.13869,-4.12946 0.67709,0 4.4636,3.05891 8.41445,6.79757 5.74863,5.43988 6.61486,6.92561 4.33695,7.43863 -1.83397,0.41304 -2.85484,2.18963 -2.87008,4.99474 -0.013,2.39453 -1.12953,7.52883 -2.4811,11.40957 -1.3516,3.88073 -2.37812,9.37025 -2.28116,12.19887 0.0969,2.8287 -0.28889,6.6106 -0.8574,8.4041 -0.96732,3.0517 -0.2189,3.2873 11.65734,3.6702 6.98007,0.2251 13.56223,0.5264 14.62702,0.6698 1.06479,0.1433 2.39499,2.9773 2.95598,6.2978 0.93101,5.5106 1.44421,6.0039 5.88228,5.6548 2.67426,-0.2104 5.68909,-1.2093 6.69963,-2.2198 2.62448,-2.6245 7.63618,2.2197 6.55882,6.3396 -0.59557,2.2774 1.49281,5.3336 7.4958,10.9695 4.57676,4.2969 8.32138,8.2875 8.32138,8.868 0,0.5805 2.19581,4.309 4.87958,8.2856 2.68377,3.9766 4.87958,8.3196 4.87958,9.6511 0,3.4388 -7.29655,4.3931 -12.59047,1.6465 z"
       id="path3782"
       inkscape:connector-curvature="0" />
    <path
       style="fill:#a7ac93;fill-opacity:1"
       d="m 422.14424,987.11298 c 0,-0.73838 2.26997,-1.84108 5.04437,-2.45044 2.77441,-0.60937 9.02854,-2.93195 13.89808,-5.1613 7.31209,-3.34758 8.5175,-4.45847 6.92279,-6.37998 -2.56752,-3.09367 -0.58239,-4.88829 2.54041,-2.29659 2.00658,1.66531 2.63981,1.57252 3.43649,-0.5036 0.53715,-1.39979 0.55911,-3.22066 0.0488,-4.04637 -0.54106,-0.87546 2.09772,-1.16026 6.33011,-0.68321 5.08978,0.57369 8.46512,0.0271 11.29891,-1.82965 2.22252,-1.45625 6.44549,-2.5982 9.38438,-2.53765 5.02774,0.10358 5.12722,0.21436 1.68376,1.87508 -2.01283,0.97075 -3.65969,2.3859 -3.65969,3.14478 0,0.75887 -3.0251,4.31553 -6.72244,7.90368 -5.23825,5.08356 -7.20868,6.12038 -8.92477,4.69614 -2.63713,-2.18862 -8.21113,-0.99968 -19.32309,4.12165 -8.50022,3.91761 -21.9581,6.45955 -21.9581,4.14746 z"
       id="path3784"
       inkscape:connector-curvature="0" />
  </g>
  <g
     inkscape:groupmode="layer"
     id="layer8"
     inkscape:label="Layer 8"
     style="display:inline"
     transform="translate(307.84898,40.782505)"
     sodipodi:insensitive="true">
    <path
       style="fill:#c4c8b7;fill-opacity:1"
       d="m 322.92616,944.84602 c -2.23647,-0.71468 -8.09887,-1.3724 -13.02757,-1.46157 -7.09081,-0.12833 -9.38532,-0.84114 -10.99285,-3.41518 -1.66434,-2.66505 -3.79309,-3.25305 -11.77692,-3.25305 -5.66321,0 -9.74538,-0.70866 -9.74538,-1.6918 0,-2.52795 -12.9894,-14.29417 -19.6502,-17.79977 -7.49095,-3.94252 -13.72231,-12.17159 -16.11659,-21.28342 -2.36015,-8.98188 -8.86267,-18.68307 -14.92214,-22.2625 -2.80518,-1.65705 -4.61295,-4.10402 -4.61295,-6.24399 0,-1.9355 -1.79886,-7.45019 -3.99747,-12.25489 -2.19862,-4.8047 -5.20946,-13.4934 -6.69076,-19.30823 -3.19837,-12.55517 -6.0352,-18.47244 -12.30868,-25.67439 -2.55971,-2.93853 -4.65403,-6.43351 -4.65403,-7.76659 0,-1.33309 -2.59924,-7.58522 -5.7761,-13.89362 -5.18796,-10.3019 -6.5657,-11.79796 -13.53046,-14.69238 -8.52613,-3.5433 -13.22395,-9.65071 -13.22395,-17.19181 0,-5.90228 -2.63211,-8.61361 -8.36194,-8.61361 -2.45206,0 -4.95937,-0.81078 -5.57182,-1.80174 -0.67074,-1.08527 -3.45778,-1.42691 -7.00873,-0.85913 -8.6011,1.37527 -13.04237,-0.34891 -15.67401,-6.08495 -1.28177,-2.79381 -3.98374,-7.12769 -6.00437,-9.63085 -4.80341,-5.95048 -2.25421,-7.73121 10.32546,-7.21281 6.85064,0.2823 9.97954,-0.34416 12.32702,-2.46809 1.73031,-1.56553 4.40254,-2.84642 5.93829,-2.84642 1.53576,0 4.61501,-1.82272 6.84278,-4.0505 3.65434,-3.65433 3.94267,-4.88724 2.94793,-12.60557 -0.60641,-4.70529 -1.71235,-10.20193 -2.45764,-12.21476 -1.03221,-2.78769 -0.7641,-3.65968 1.12522,-3.65968 3.33183,0 11.00167,4.06273 13.61543,7.21212 2.99468,3.60836 10.26199,3.15586 15.50105,-0.96519 3.82197,-3.00636 4.34718,-4.39119 3.64652,-9.61498 -0.67299,-5.01751 -0.27103,-6.24594 2.26038,-6.90792 2.59181,-0.67778 3.07894,-2.3581 3.07894,-10.6206 0,-5.39849 0.70972,-10.25407 1.57715,-10.79017 0.86744,-0.5361 3.10972,-6.12081 4.98286,-12.41046 3.72662,-12.51328 2.82361,-16.08426 -4.06728,-16.08426 -3.08232,0 -8.99883,-4.39007 -8.99883,-6.67716 0,-0.40049 2.74476,-0.48391 6.09947,-0.18538 5.06526,0.45076 7.57507,-0.57616 14.80206,-6.05648 10.08488,-7.6475 11.62899,-8.01028 11.62899,-2.73213 0,5.14917 2.33722,6.77448 13.1884,9.17124 7.71502,1.70407 10.34934,1.62422 17.07852,-0.51767 18.18639,-5.7887 24.81084,-5.08303 38.86043,4.13958 8.041,5.27838 16.95422,18.01627 17.04052,24.35263 0.13224,9.70705 13.92461,38.91275 24.21729,51.28068 10.05039,12.07675 10.94116,13.93352 12.24428,25.52238 0.59693,5.30862 1.92904,10.66863 2.96023,11.91114 1.03118,1.2425 6.50496,4.35848 12.16394,6.92438 5.7044,2.5865 10.68302,5.97615 11.17319,7.60717 0.48628,1.61805 2.31167,5.86965 4.05643,9.448 1.74475,3.57836 3.17026,7.29344 3.16777,8.25574 -0.0114,4.56742 8.52501,9.63074 17.60148,10.43974 l 9.23167,0.82283 2.98325,9.75916 c 1.64079,5.36753 5.11749,14.79429 7.72599,20.94833 5.478,12.92376 5.72993,14.92164 2.05932,16.33019 -2.35042,0.90194 -2.19902,1.55055 1.21989,5.22639 2.14683,2.30817 6.9025,6.27312 10.56814,8.811 9.2291,6.38973 12.37256,13.2075 9.64888,20.92727 -1.13968,3.23017 -2.58164,8.88871 -3.20436,12.57454 -1.05042,6.21743 -0.76513,6.9629 3.94937,10.31992 3.86171,2.74977 4.96211,4.65002 4.58386,7.91573 -0.44512,3.84322 -1.18525,4.29892 -7.00382,4.31247 -9.3689,0.0218 -21.9581,9.1759 -21.9581,15.9666 0,2.08052 -1.85481,5.52529 -4.1218,7.65502 -3.56625,3.35031 -4.7172,3.62845 -8.53926,2.06354 -15.48533,-6.34035 -14.52598,-6.19245 -20.79048,-3.20512 -3.94678,1.88208 -6.56661,2.29969 -7.8331,1.2486 -2.47549,-2.05446 -26.597,0.98992 -31.26754,3.94631 -2.91789,1.84699 -3.35183,3.4836 -2.93168,11.05683 0.44554,8.03087 0.14802,8.96401 -3.08127,9.66638 -1.96594,0.42758 -4.67233,1.16327 -6.01421,1.63488 -1.34189,0.47161 -4.26963,0.27272 -6.50611,-0.44197 z"
       id="path3787"
       inkscape:connector-curvature="0" />
  </g>
  <g
     inkscape:groupmode="layer"
     id="layer9"
     inkscape:label="Layer 9"
     style="display:inline"
     transform="translate(307.84898,40.782505)"
     sodipodi:insensitive="true">
    <path
       style="fill:#a7ac93;fill-opacity:1"
       d="m 365.80024,743.00952 c -2.52291,-1.65501 -6.51534,-3.43262 -8.87206,-3.95023 -7.707,-1.69274 -10.72877,-6.13755 -11.95463,-17.58444 -1.03123,-9.62952 -1.91128,-11.52185 -10.08132,-21.67718 -12.17541,-15.13399 -26.6048,-44.56272 -26.6048,-54.26048 0,-1.42088 -1.87467,-6.34542 -4.16594,-10.94339 -4.4691,-8.9683 -15.87898,-18.01887 -27.68584,-21.96102 -4.98652,-1.66492 -6.54849,-3.28549 -8.58931,-8.91152 -2.28143,-6.28932 -2.24722,-7.82968 0.40062,-18.03854 1.72451,-6.64896 3.00595,-18.0079 3.16935,-28.09377 0.27127,-16.74508 0.31912,-16.93778 4.34061,-17.47669 2.23647,-0.29971 5.89615,-2.2231 8.13262,-4.27421 8.1652,-7.48843 10.37546,-7.85908 24.70925,-4.14358 15.28432,3.96188 19.28594,3.48586 33.03242,-3.92944 5.36754,-2.89542 14.88271,-6.53549 21.14484,-8.08904 26.32235,-6.53023 30.00713,-7.94159 35.76411,-13.69857 3.14176,-3.14176 5.7123,-6.60403 5.7123,-7.69393 0,-1.0899 1.71755,-3.10702 3.81679,-4.48249 2.09924,-1.37548 4.73973,-4.72903 5.86777,-7.45235 1.12803,-2.72332 3.61911,-5.42837 5.53573,-6.01122 1.91661,-0.58286 4.58266,-2.01404 5.92454,-3.18042 1.34188,-1.16637 4.40314,-2.6106 6.80277,-3.20939 5.36511,-1.33878 10.30529,3.52039 23.40211,23.01836 4.89028,7.28046 11.8348,16.0637 15.43225,19.51831 8.37459,8.04206 15.61682,19.7189 17.93153,28.91139 1.02323,4.06364 4.77205,10.82456 8.56849,15.45308 15.14369,18.46284 14.78405,17.79847 11.5619,21.3589 -1.58232,1.74844 -4.41036,3.18248 -6.28454,3.18675 -1.87416,0.004 -6.12548,2.50412 -9.44733,5.5552 -6.81605,6.26045 -14.76363,10.79041 -26.08572,14.8683 -4.25016,1.53079 -9.56966,4.49044 -11.82108,6.57699 -3.88543,3.60089 -4.07139,4.56898 -3.65811,19.04386 0.308,10.78761 -0.19284,16.00796 -1.71157,17.83996 -2.9913,3.6083 -18.54416,5.27317 -28.27589,3.02681 -6.84614,-1.58027 -9.22639,-1.38525 -17.17036,1.40683 -5.07233,1.78278 -12.61065,3.24142 -16.75181,3.24142 -8.92581,0 -14.6981,4.16389 -18.52974,13.36659 -3.38807,8.13735 -3.20258,10.19617 1.54849,17.188 2.28704,3.36569 4.06631,8.30989 4.06631,11.29938 0,3.2444 1.34149,6.65677 3.44316,8.75844 2.94568,2.94567 3.27162,4.53195 2.25588,10.97905 -1.61178,10.23037 -1.71437,18.40223 -0.26961,21.47606 0.91126,1.93877 -0.15128,2.96942 -4.4082,4.27591 -4.65927,1.42996 -6.38549,1.21195 -10.19598,-1.28769 z"
       id="path3790"
       inkscape:connector-curvature="0" />
  </g>
  <g
     inkscape:groupmode="layer"
     id="layer10"
     inkscape:label="Booshehr"
     style="display:inline"
     transform="translate(307.84898,40.782505)"
     sodipodi:insensitive="true">
    <path
       style="fill:#8a916f;fill-opacity:1"
       d="m 250.86744,932.4294 c -2.01129,-2.01128 -1.21119,-3.84581 1.67728,-3.84581 2.42713,0 2.31708,-0.50113 -0.8037,-3.65968 -1.98876,-2.01283 -5.45462,-5.96657 -7.70191,-8.78609 -2.95377,-3.70588 -6.41901,-5.68609 -12.50528,-7.14616 -5.75341,-1.38022 -9.99913,-3.69966 -13.40872,-7.32519 -4.80072,-5.10475 -5.54704,-5.32965 -19.73134,-5.94584 -11.46532,-0.49806 -15.80352,-1.37725 -19.51831,-3.95562 -2.62702,-1.82336 -6.0573,-3.77731 -7.62283,-4.3421 -1.56553,-0.5648 -2.84642,-2.47737 -2.84642,-4.25018 0,-1.7728 -1.18736,-3.88776 -2.63859,-4.6999 -1.48796,-0.8327 -2.93804,-4.23708 -3.32529,-7.80682 -0.41413,-3.81749 -2.62534,-8.7513 -5.57067,-12.42964 -3.46278,-4.32457 -5.17353,-8.58431 -5.87905,-14.63873 -1.33931,-11.49323 -6.2163,-20.73823 -10.93998,-20.73823 -2.16602,0 -4.47048,-1.57562 -5.72046,-3.91122 -2.38312,-4.45291 -1.13542,-7.77622 2.40888,-6.41614 1.70442,0.65405 2.3877,-0.2402 2.3877,-3.12493 0,-5.0536 -2.9735,-7.58775 -10.29788,-8.77633 -5.70735,-0.92618 -5.70853,-0.92818 -5.51094,-9.36732 0.21004,-8.97106 -2.89157,-18.81242 -5.93998,-18.84746 -1.00971,-0.0116 -7.8743,-7.29623 -15.25467,-16.18805 -11.76633,-14.17602 -13.418834,-16.95065 -13.418834,-22.53091 0,-3.90697 -1.25943,-7.96507 -3.262111,-10.51106 -4.073113,-5.17813 -2.669326,-5.78157 11.394741,-4.89821 15.989384,1.00428 17.891784,1.63213 17.891784,5.90486 0,2.0583 2.19581,6.20184 4.87958,9.20785 2.68376,3.00601 4.87957,6.41468 4.87957,7.57482 0,3.68111 7.49585,7.22467 14.8766,7.03271 3.89483,-0.1013 10.00925,0.42519 13.58761,1.16997 6.09635,1.26887 6.56244,1.77455 7.40068,8.02932 1.2553,9.36683 5.05791,14.34555 13.65355,17.87648 6.43678,2.64412 8.16651,4.47294 13.10558,13.85643 3.12954,5.94565 5.69007,11.88112 5.69007,13.18994 0,1.30881 2.47646,5.50916 5.50324,9.3341 3.02679,3.82494 6.78422,11.06433 8.34985,16.08753 4.72398,15.15654 9.45655,28.41547 11.67809,32.71772 1.15485,2.23647 2.10423,5.41837 2.10974,7.07089 0.006,1.65252 3.513,6.15407 7.79443,10.00344 6.04556,5.43548 8.45206,9.12426 10.77327,16.51373 3.35827,10.69093 10.45881,20.65421 17.20635,24.1435 2.48003,1.28247 6.93761,4.37118 9.90572,6.86378 l 5.39659,4.532 -7.23476,0.9704 c -3.97911,0.53373 -8.3709,1.47142 -9.75949,2.08375 -1.38862,0.61233 -3.03547,0.60261 -3.65969,-0.0216 l 0,4e-5 z"
       id="path3793"
       inkscape:connector-curvature="0" />
  </g>
  <g
     inkscape:groupmode="layer"
     id="layer11"
     inkscape:label="Layer 11"
     style="display:inline"
     transform="translate(307.84898,40.782505)"
     sodipodi:insensitive="true">
    <path
       style="fill:#e2e3db;fill-opacity:1"
       d="m 177.08758,666.66794 c -9.55523,-7.24205 -12.60556,-13.8901 -10.99488,-23.96276 0.80293,-5.02124 0.0554,-9.03299 -3.19893,-17.16754 -4.8643,-12.15881 -5.19688,-16.33269 -1.81771,-22.81166 1.68233,-3.22558 1.93493,-5.50449 0.83742,-7.5552 -1.13033,-2.11204 -0.9012,-3.49278 0.81616,-4.91806 1.31324,-1.08989 1.94346,-2.70041 1.4005,-3.57894 -0.54296,-0.87854 -0.004,-3.43475 1.19804,-5.68048 2.08484,-3.89556 1.77002,-4.46761 -6.85221,-12.45049 -4.9706,-4.60202 -11.16981,-9.90692 -13.77603,-11.78868 -4.08413,-2.94885 -4.43924,-3.78203 -2.57122,-6.03285 2.37519,-2.86192 1.1512,-12.50389 -1.58729,-12.50389 -0.87005,0 -2.34737,-2.19581 -3.28294,-4.87957 -1.86119,-5.33904 -4.74305,-6.23031 -7.8889,-2.43979 -1.17761,1.41894 -4.72657,2.43979 -8.48187,2.43979 -3.8458,0 -8.02162,1.23071 -10.32595,3.0433 -3.07319,2.41737 -5.2264,2.79507 -10.469,1.83639 -3.630029,-0.6638 -8.029205,-2.50027 -9.775943,-4.08104 -2.494596,-2.25758 -3.67244,-2.46204 -5.490603,-0.9531 -1.273093,1.05658 -4.031585,1.4915 -6.129982,0.9665 -2.617765,-0.65495 -5.565524,0.33812 -9.39163,3.16394 -6.494132,4.79633 -7.467738,4.5381 -4.817816,-1.27785 2.691498,-5.90719 -0.371301,-9.20425 -8.550283,-9.20425 -5.316685,0 -6.604745,-0.67739 -7.93347,-4.1722 -2.351578,-6.18512 -2.125648,-6.68201 4.513204,-9.92594 4.442733,-2.17085 5.970614,-3.86397 5.625068,-6.23343 -0.260921,-1.78918 -0.62689,-4.34021 -0.813263,-5.66896 -0.216725,-1.54515 2.307531,-3.30388 7.003526,-4.87958 9.66297,-3.24232 11.362662,-4.47766 11.362662,-8.25839 0,-1.73963 1.44298,-5.85525 3.206622,-9.14582 2.434293,-4.54186 2.764758,-6.51528 1.372053,-8.19338 -1.427006,-1.71944 -0.646567,-3.43623 3.513022,-7.72784 2.941174,-3.03452 7.264322,-6.19614 9.606996,-7.02581 7.762107,-2.74902 15.571647,-4.89432 21.454767,-5.89368 3.19533,-0.54278 8.2781,-2.80802 11.29505,-5.03386 3.01695,-2.22584 7.53898,-4.04698 10.04895,-4.04698 3.92373,0 4.56357,-0.6444 4.56357,-4.59605 0,-2.79941 1.58957,-6.08936 4.06632,-8.41615 4.12048,-3.871 5.4165,-10.35923 2.43706,-12.20063 -0.97181,-0.60061 -1.23523,-4.7415 -0.6528,-10.26178 0.73512,-6.96747 1.96422,-10.15935 4.97301,-12.91453 3.62469,-3.31917 5.61917,-3.65968 21.43572,-3.65968 12.60145,0 18.37321,-0.65423 20.80623,-2.35838 3.00711,-2.10627 4.13253,-1.97586 10.52769,1.21989 6.08078,3.03865 9.41439,3.51332 22.10521,3.14758 12.99398,-0.37448 16.15178,0.10318 24.19365,3.65968 5.08699,2.24971 9.8836,4.09038 10.65914,4.09038 0.77553,0 4.66519,2.4847 8.64369,5.52156 5.76919,4.40371 9.31189,5.74223 17.49922,6.6116 5.64609,0.59953 14.29126,1.75956 19.2115,2.57784 23.20928,3.85994 41.49513,5.25684 81.32629,6.21271 l 43.10293,1.03439 1.93108,12.19895 c 1.06209,6.70941 1.93841,18.05443 1.94739,25.21115 l 0.0163,13.0122 -10.08002,5.05377 c -7.09894,3.55915 -10.748,6.51878 -12.33867,10.00745 -1.24226,2.72452 -3.98703,5.74118 -6.09948,6.70367 -2.1124,0.9625 -3.84076,3.09262 -3.84076,4.73361 0,7.49382 -12.72545,14.46641 -34.80385,19.06988 -6.23332,1.29969 -17.34951,5.3023 -24.70268,8.8947 -14.90836,7.2835 -20.9923,7.9768 -35.90761,4.09185 -12.91059,-3.36278 -13.9666,-3.20445 -21.69572,3.25305 -3.74763,3.13107 -8.52516,5.69284 -10.61671,5.69284 -5.18265,0 -6.40431,4.43333 -5.82961,21.15517 0.31273,9.09934 -0.45684,17.43387 -2.24801,24.34621 -2.57261,9.92804 -2.58969,15.99034 -0.0668,23.74103 0.99874,3.06834 -0.11646,3.6752 -12.53132,6.81879 -11.38337,2.88243 -14.81733,3.15908 -20.85166,1.67997 -9.36428,-2.29535 -11.29035,-3.93753 -11.29035,-9.62623 0,-2.57424 -0.45051,-4.68043 -1.00116,-4.68043 -0.55062,0 -6.08094,3.37704 -12.2896,7.50455 -9.19041,6.10976 -12.19001,7.32424 -16.13927,6.53439 -9.76255,-1.95252 -7.53661,7.45347 2.39028,10.10041 4.78921,1.277 5.06192,1.76498 4.73865,8.47931 -0.18865,3.91836 -2.25944,11.39471 -4.60176,16.61408 -3.33722,7.43633 -4.02396,10.87946 -3.17371,15.91208 1.00908,5.97266 0.8188,6.41578 -2.71761,6.32894 -2.09145,-0.0514 -7.58136,-2.95734 -12.1998,-6.45772 z"
       id="path3796"
       inkscape:connector-curvature="0" />
  </g>
  <g
     inkscape:groupmode="layer"
     id="layer12"
     inkscape:label="Layer 12"
     style="display:inline"
     transform="translate(307.84898,40.782505)"
     sodipodi:insensitive="true">
    <path
       style="fill:#676c53;fill-opacity:1"
       d="m 350.81437,416.09949 c -9.26269,-0.71058 -24.63336,-2.38169 -34.15704,-3.7136 -9.52368,-1.33191 -21.70665,-2.9176 -27.07325,-3.52375 -10.64778,-1.20264 -18.33209,-4.44801 -21.64539,-9.14165 -1.16897,-1.65596 -3.0556,-3.01084 -4.19252,-3.01084 -1.13692,0 -6.5704,-1.82984 -12.07439,-4.06632 -8.24027,-3.34831 -12.73161,-4.06631 -25.4364,-4.06631 -20.4982,0 -31.92856,-4.9287 -24.3248,-10.48872 1.90857,-1.39557 2.84148,-5.77051 3.50663,-16.44457 0.69489,-11.15133 1.68877,-15.60205 4.26148,-19.08353 3.6028,-4.87542 3.72397,-4.47855 -4.55277,-14.91225 -4.35068,-5.48449 -4.59364,-6.44724 -2.84642,-11.27909 1.05066,-2.90553 1.91028,-7.33326 1.91028,-9.8394 0,-3.41504 0.50938,-4.15542 2.03316,-2.95522 1.11823,0.88077 3.92452,2.05176 6.2362,2.60219 2.31167,0.55044 6.98692,3.21314 10.38944,5.91712 4.73231,3.76077 7.84125,4.91633 13.22693,4.91633 3.87228,0 9.54345,1.19356 12.60258,2.65236 4.14531,1.97676 7.57735,2.35137 13.47402,1.47071 6.78239,-1.01295 9.27483,-2.54317 17.45802,-10.71828 9.21441,-9.2053 9.50286,-9.75085 8.30269,-15.70281 -2.30568,-11.43452 -2.00826,-12.62599 3.29609,-13.20407 2.68377,-0.29248 5.57492,-1.20741 6.42478,-2.03316 0.84986,-0.82575 5.1148,-1.50137 9.47764,-1.50137 6.72363,0 8.595,-0.73294 12.28027,-4.80968 11.09279,-12.27115 14.72352,-17.70346 15.83641,-23.69449 1.72569,-9.28999 4.87891,-13.2449 13.04718,-16.36439 5.27268,-2.01366 9.592,-2.46526 16.17675,-1.69136 11.10971,1.30573 16.11147,-0.98855 24.67405,-11.31784 9.40376,-11.34402 12.63407,-12.50026 31.23823,-11.18129 19.21278,1.36212 21.29833,0.13428 21.29833,-12.53909 0,-4.49467 1.06842,-10.11489 2.37427,-12.4894 1.30584,-2.3745 3.95776,-8.15994 5.89313,-12.85653 1.93539,-4.69659 4.15231,-8.53926 4.9265,-8.53926 2.25562,0 7.95093,5.41863 7.95093,7.56467 0,3.37518 4.92374,7.0725 9.46871,7.11023 l 4.35676,0.0362 -3.98614,3.0635 c -3.50828,2.69625 -3.71202,3.3938 -1.69947,5.81875 1.27077,1.5312 2.10104,5.39303 1.86886,8.69265 -0.36626,5.20514 0.56728,6.90498 7.56957,13.78295 8.88594,8.72817 15.30901,11.15379 30.37039,11.46913 11.62127,0.24332 12.69195,2.18744 7.31817,13.28819 -3.06988,6.34151 -3.39033,8.88068 -2.40726,19.0735 1.57091,16.2878 5.19138,23.74262 15.04278,30.97421 6.9687,5.1155 13.42393,12.1987 13.42393,14.72984 0,0.39413 -2.56178,3.78285 -5.69284,7.53049 -3.13107,3.74764 -5.69285,7.87889 -5.69285,9.18056 0,6.44867 -4.92045,11.58293 -14.55283,15.18519 -7.93372,2.96702 -12.64263,6.44734 -24.47324,18.08796 -8.0571,7.92772 -14.64928,15.15794 -14.64928,16.06714 0,0.90917 -2.45198,5.13146 -5.44887,9.38284 -6.86588,9.73991 -14.63459,25.05713 -17.5322,34.56743 l -2.23008,7.31936 -9.75915,1.04337 c -13.46474,1.43953 -72.8228,1.21137 -93.28797,-0.35857 z"
       id="path3799"
       inkscape:connector-curvature="0" />
  </g>
  <g
     inkscape:groupmode="layer"
     id="layer13"
     inkscape:label="Layer 13"
     style="display:inline"
     transform="translate(307.84898,40.782505)"
     sodipodi:insensitive="true">
    <path
       style="fill:#a7ac93;fill-opacity:1"
       d="m 363.7335,229.16275 c -3.05175,-0.71955 -6.39486,-0.98355 -7.42913,-0.58667 -1.03426,0.39689 -6.2227,-1.84884 -11.52987,-4.99051 -5.30717,-3.14166 -10.69838,-6.32835 -11.98048,-7.08154 -1.95145,-1.1464 -1.81901,-1.88792 0.81326,-4.55321 1.7294,-1.75109 4.56142,-5.8546 6.29339,-9.11892 3.38817,-6.38584 3.58836,-4.37094 -2.95769,-29.76955 -1.38339,-5.36754 -2.54133,-10.39245 -2.5732,-11.16647 -0.0319,-0.77402 3.82762,-0.92184 8.57664,-0.32849 11.04263,1.37969 20.84594,-0.84356 27.16488,-6.1606 3.71405,-3.12516 6.14823,-3.96431 9.53486,-3.28698 3.71891,0.74378 5.36243,-0.0589 9.01918,-4.40466 3.04676,-3.62087 4.23225,-6.56617 3.72047,-9.24336 -0.94389,-4.93765 2.14216,-13.39195 4.88843,-13.39195 1.13726,0 5.16725,-3.29372 8.95554,-7.31937 3.78828,-4.02565 8.18685,-7.31937 9.7746,-7.31937 1.58774,0 2.88681,-0.73193 2.88681,-1.62652 0,-0.89459 0.6901,-1.62653 1.53355,-1.62653 0.84346,0 4.29006,-1.62638 7.65912,-3.61417 7.08768,-4.181835 7.9858,-4.442571 20.49868,-5.951065 5.14788,-0.620604 10.55723,-0.458248 12.02077,0.360792 1.46355,0.81904 6.54336,1.399661 11.28848,1.290269 4.74511,-0.109392 9.0944,0.556598 9.66508,1.479974 0.97222,1.57309 -1.06773,12.60471 -4.32242,23.37468 -1.09249,3.61509 -0.79125,5.45056 1.268,7.726 1.4855,1.64145 3.60706,2.98446 4.71458,2.98446 2.58019,0 4.17642,4.12314 2.89201,7.47024 -0.73753,1.92198 -2.50864,2.39633 -6.86168,1.83776 -5.87266,-0.75356 -16.43998,3.79763 -16.43998,7.08047 0,0.81644 -3.2895,4.82117 -7.31,8.89941 -4.0205,4.07824 -7.78405,9.38903 -8.36343,11.80175 -0.57939,2.41273 -2.41344,7.10238 -4.07568,10.42145 -1.66224,3.31907 -3.02225,9.0397 -3.02225,12.71251 0,13.15002 -4.28819,15.15727 -24.28112,11.36569 -11.1412,-2.11288 -16.90755,0.33499 -25.7952,10.95031 -3.76188,4.49315 -9.33196,9.35198 -12.37795,10.7974 -6.06614,2.87857 -5.88079,2.86536 -13.84825,0.98677 z"
       id="path3802"
       inkscape:connector-curvature="0" />
  </g>
  <g
     inkscape:groupmode="layer"
     id="layer14"
     inkscape:label="Layer 14"
     style="display:inline"
     transform="translate(307.84898,40.782505)"
     sodipodi:insensitive="true">
    <path
       style="fill:#8a916f;fill-opacity:1"
       d="m 211.90434,284.30404 c -1.57183,-0.91535 -4.30002,-4.49114 -6.06265,-7.94619 -4.70576,-9.22403 -11.40734,-13.30569 -23.43097,-14.27083 -8.30734,-0.66684 -10.42718,-1.43635 -11.67116,-4.23669 -0.96857,-2.18034 -4.50315,-4.32128 -9.74204,-5.90088 -4.52207,-1.36346 -10.0116,-3.65442 -12.19894,-5.09101 -2.18735,-1.43659 -5.80683,-3.18517 -8.04331,-3.88574 -2.23647,-0.70056 -5.59417,-2.81888 -7.46156,-4.70738 -1.86739,-1.88849 -7.35691,-5.85119 -12.19894,-8.806 -4.84204,-2.9548 -11.36548,-7.49718 -14.49654,-10.09417 l -5.69284,-4.7218 3.56751,-2.53907 c 2.49371,-1.77483 3.71765,-4.57341 4.06632,-9.29773 0.42731,-5.79002 1.1626,-6.97861 5.13054,-8.29343 3.68262,-1.22028 5.5158,-0.88421 8.9459,1.64 12.21396,8.98829 35.46376,18.347 45.57934,18.347 2.37913,0 7.2138,1.54793 10.7437,3.43984 12.60364,6.75515 25.03647,6.74852 51.27549,-0.0273 6.70942,-1.73261 15.49266,-3.93819 19.51831,-4.90128 4.02565,-0.9631 16.96332,-4.31583 28.75038,-7.45051 24.85472,-6.60995 24.63373,-6.58404 24.33762,-2.85301 -0.17402,2.19275 0.89467,2.77124 4.65367,2.51907 2.68377,-0.18003 10.25061,0.0714 16.81522,0.55884 11.91825,0.88489 11.9307,0.89079 8.53926,4.05039 -4.57208,4.25954 -4.27477,6.92137 1.07656,9.63846 2.46012,1.24911 7.29195,3.99062 10.7374,6.09224 l 6.26443,3.82114 -5.33555,2.72187 c -6.95927,3.55018 -11.10208,9.38293 -12.35781,17.39874 -0.60464,3.85963 -3.04725,8.76961 -6.05702,12.17541 -2.77407,3.13909 -6.20547,7.49237 -7.62535,9.67394 -2.08535,3.20403 -4.58661,4.22893 -13.0122,5.33181 -5.73684,0.75093 -13.55885,1.7793 -17.38226,2.28526 -4.22243,0.55876 -7.84581,0.17782 -9.22922,-0.97031 -1.39403,-1.15694 -4.49511,-1.47423 -7.99376,-0.81788 -4.0188,0.75393 -6.81925,0.29971 -9.4311,-1.52969 -2.04321,-1.43113 -5.19893,-2.60656 -7.01271,-2.61207 -1.81377,-0.006 -5.37621,-1.09405 -7.91653,-2.41898 -5.5936,-2.9174 -7.50025,-2.03461 -17.27136,7.99671 -7.43063,7.6285 -12.39751,9.16396 -18.37783,5.68128 z"
       id="path3805"
       inkscape:connector-curvature="0" />
  </g>
  <g
     inkscape:groupmode="layer"
     id="layer15"
     inkscape:label="Tehran"
     style="display:inline"
     transform="translate(307.84898,40.782505)">
    <path
       style="fill:#c4c8b7;fill-opacity:1"
       d="m 196.92067,351.85655 c -1.76154,-1.33173 -5.95287,-3.16184 -9.31407,-4.06692 -3.36121,-0.90508 -9.35897,-4.45645 -13.32837,-7.89194 -4.22538,-3.65705 -9.76941,-6.72517 -13.37422,-7.40143 -3.38643,-0.6353 -7.6426,-2.19554 -9.45815,-3.46721 -2.32905,-1.63133 -5.58144,-2.00961 -11.04586,-1.28473 l -7.74485,3.02739 3.3313,-11.55992 c 2.35412,-8.16901 3.04093,-10.55109 1.51922,-15.74537 -2.07802,-7.09324 -7.76103,-10.28686 -8.9928,-5.41585 -1.64647,6.51095 -3.51328,2.24768 -4.22918,-2.4545 -0.0558,-0.36677 -2.40397,-4.33787 -4.14072,-3.69858 -2.63352,0.96938 1.39101,7.1375 -1.14424,8.34067 -2.28563,1.08471 -3.63677,-2.60887 -6.47747,-3.95582 -3.12653,-1.48247 -8.14306,0.33392 -8.66341,-2.63979 -0.27094,-1.54837 2.31636,-2.24161 3.77614,-2.8246 5.73033,-2.2885 8.36504,-1.64935 18.38317,-2.17364 10.01814,-0.52429 17.88214,-0.72112 19.32952,-0.32585 1.83881,0.50216 4.26137,0.57622 3.97647,-3.21445 -0.26834,-3.57026 0.78884,-6.12577 3.64359,-8.80768 3.48134,-3.27054 4.58034,-3.52353 8.18055,-1.88317 5.68309,2.58939 7.25001,2.38546 7.31065,-0.95148 0.11075,-6.09419 3.96762,-8.53926 13.46989,-8.53926 11.71929,0 16.15427,2.13375 20.49768,9.8618 8.38243,14.91452 17.60854,16.68309 28.90975,5.54175 9.84856,-9.70924 11.50897,-10.5149 16.59903,-8.0542 8.5873,4.15138 15.78661,6.23666 22.12979,6.4099 11.55728,0.31563 13.39899,1.69848 14.79544,11.10923 1.69266,11.40687 1.41167,12.31355 -6.26511,20.21525 -5.15864,5.30979 -8.64289,7.30299 -15.4157,8.81868 -7.9553,1.78032 -9.40491,1.64042 -15.94953,-1.5392 -4.93552,-2.39786 -8.7636,-3.18455 -12.1756,-2.50215 -3.95988,0.79197 -6.2089,0.0158 -11.00752,-3.79885 -7.96287,-6.33007 -19.74039,-11.06773 -20.51339,-8.25177 -5.14232,18.73286 -4.86407,21.44726 2.94755,28.75401 5.05694,4.73012 5.34052,8.3601 0.96261,12.32205 -1.78918,1.61919 -3.25305,4.66038 -3.25305,6.7582 0,4.34798 -2.61085,4.8111 -7.26911,1.28943 z"
       id="path3808"
       inkscape:connector-curvature="0"
       sodipodi:nodetypes="sssssscssssaasaassssssssssssssssssssss" />
  </g>
  <g
     inkscape:groupmode="layer"
     id="layer16"
     inkscape:label="Layer 16"
     style="display:inline"
     transform="translate(307.84898,40.782505)"
     sodipodi:insensitive="true">
    <path
       style="fill:#a7ac93;fill-opacity:1"
       d="m 135.16849,408.26179 c -1.87386,-3.62365 -3.85888,-5.00798 -7.72507,-5.38736 -4.1389,-0.40614 -6.05436,-1.92456 -9.36451,-7.42342 -2.28872,-3.80206 -7.4686,-9.29159 -11.51084,-12.19894 -8.858426,-6.37137 -9.221726,-11.39818 -1.07308,-14.84769 2.84326,-1.20361 6.56388,-3.75328 8.26807,-5.66592 1.70418,-1.91265 4.48221,-3.47754 6.1734,-3.47754 1.69119,0 4.87147,-1.79657 7.06728,-3.99238 3.22438,-3.22439 3.99717,-5.64926 4.01728,-12.60558 0.0137,-4.73725 0.56266,-9.42234 1.2199,-10.4113 0.65724,-0.98896 4.61725,-2.1738 8.80001,-2.63299 5.7228,-0.62825 8.742,-0.0852 12.19894,2.19403 2.52666,1.66589 6.56223,3.03372 8.96794,3.03961 2.73698,0.007 7.11879,2.3863 11.70776,6.35802 4.03355,3.49101 10.84848,7.53285 15.14429,8.98185 4.2958,1.44901 9.54205,3.96625 11.65832,5.59388 3.47869,2.67547 3.73849,3.7538 2.70858,11.24213 -0.87567,6.36694 -2.4422,9.62449 -6.77248,14.08324 l -5.6333,5.80043 -18.4074,0 c -16.15939,0 -18.93079,0.41169 -22.69306,3.3711 -2.92042,2.2972 -4.33732,5.01749 -4.4478,8.53926 -0.41894,13.35431 -5.75297,18.24074 -10.30423,9.43957 z"
       id="path3811"
       inkscape:connector-curvature="0" />
  </g>
  <g
     inkscape:groupmode="layer"
     id="layer17"
     inkscape:label="Layer 17"
     style="display:inline"
     transform="translate(307.84898,40.782505)"
     sodipodi:insensitive="true">
    <path
       style="fill:#8a916f;fill-opacity:1"
       d="m 76.620678,456.33718 c 0.912657,-4.15529 0.659296,-4.69668 -1.76299,-3.76716 -1.55585,0.59704 -3.782907,0.2937 -4.949015,-0.67409 -1.598563,-1.32669 -2.591296,-0.87935 -4.034986,1.8182 -1.053133,1.96781 -2.385068,2.85657 -2.959853,1.97505 -0.574785,-0.88152 -2.691921,-2.47003 -4.704747,-3.53002 -2.708019,-1.42609 -3.659683,-3.37626 -3.659683,-7.4995 0,-6.00501 -5.001931,-12.20508 -9.846504,-12.20508 -3.515651,0 -11.298331,6.10637 -11.298331,8.86479 0,5.63749 -13.517152,8.45299 -18.947131,3.94651 -3.86652,-3.20893 -1.225611,-20.97459 3.677553,-24.73928 5.400818,-4.14678 5.24838,-13.62864 -0.373327,-23.22135 -3.058183,-5.2184 -3.991066,-8.59519 -3.312226,-11.98939 0.767067,-3.83534 0.113941,-5.35965 -3.468774,-8.09567 l -4.4137714,-3.37069 4.8795774,0.98952 c 2.683768,0.54423 6.160467,1.33677 7.725998,1.76121 3.079374,0.83484 4.07817,-3.37386 1.219894,-5.14037 -2.703659,-1.67095 -1.834982,-5.81586 1.843049,-8.79415 2.895117,-2.34433 3.164422,-3.37968 1.626526,-6.25326 -2.765951,-5.16823 -2.575778,-5.28342 7.509474,-4.54844 9.320933,0.67928 9.350816,0.69829 8.846718,5.62936 -0.420351,4.11188 0.404036,5.50274 4.879578,8.23253 5.233428,3.19205 5.424374,3.19855 6.767237,0.23047 0.929979,-2.0555 0.291712,-5.5187 -1.951849,-10.59064 -2.759808,-6.23901 -4.677724,-8.12623 -11.141009,-10.96273 -7.74078,-3.39715 -7.770384,-3.43929 -3.474262,-4.94554 5.964829,-2.09131 6.862831,-5.64147 3.005644,-11.88253 -1.799805,-2.91215 -3.261583,-6.67229 -3.248395,-8.35588 0.01942,-2.47937 0.414909,-2.28835 2.081193,1.00525 3.458415,6.83594 6.913203,5.19133 6.382967,-3.03853 -0.456879,-7.09131 -0.448169,-7.10345 4.568233,-6.36719 3.752538,0.55075 5.61207,-0.0991 7.339125,-2.56481 1.316154,-1.87908 6.00716,-4.24708 10.883763,-5.49408 4.713842,-1.20538 12.399055,-3.9434 17.078249,-6.0845 6.900782,-3.15764 9.509986,-3.60542 13.814731,-2.37084 2.918906,0.83714 7.226056,1.52206 9.571436,1.52206 2.34539,0 6.12535,1.46387 8.39992,3.25305 5.54369,4.36067 6.15688,4.13272 4.96146,-1.84436 -0.78916,-3.94581 -0.50437,-4.92411 1.26056,-4.33028 1.25402,0.42192 2.30116,2.33432 2.32698,4.24976 0.0258,1.91544 0.96471,4.4004 2.08643,5.52212 1.63498,1.63498 2.22786,1.31919 2.98919,-1.59213 1.32998,-5.08586 3.60609,-4.52178 6.148,1.52363 1.88839,4.49116 1.75844,6.53407 -1.00876,15.85863 -1.74701,5.88685 -3.83434,16.1365 -4.6385,22.77699 -1.42982,11.80699 -3.02542,14.68874 -8.16094,14.73914 -1.39571,0.0137 -4.68942,2.06139 -7.31937,4.55043 -2.62995,2.48904 -6.80533,5.40601 -9.27862,6.48215 -2.4733,1.07614 -5.363377,3.85832 -6.422398,6.18262 -1.780342,3.90742 -1.441344,4.64031 4.496898,9.72204 3.53232,3.02282 7.22099,5.52352 8.19705,5.55711 0.97606,0.0336 3.74213,3.67597 6.14682,8.09418 3.61778,6.64704 5.2478,8.12044 9.447,8.53926 3.01918,0.30113 5.80012,1.82385 6.86538,3.75921 2.39288,4.34732 4.35003,5.63816 8.59369,5.66793 6.56037,0.046 6.43144,9.07951 -0.20822,14.58994 -1.39073,1.1542 -2.52859,3.83876 -2.52859,5.9657 0,2.89799 -0.89526,3.86715 -3.57226,3.86715 -1.96474,0 -6.31998,1.90418 -9.6783,4.2315 -3.72074,2.57847 -8.6848,4.36316 -12.70727,4.56853 -3.63067,0.18537 -7.47312,1.20895 -8.53878,2.27461 -1.06566,1.06566 -3.87718,1.93757 -6.247803,1.93757 -2.370626,0 -7.173055,2.07382 -10.672065,4.60848 -8.656563,6.2708 -12.503919,6.18609 -11.091594,-0.24419 z"
       id="path3814"
       inkscape:connector-curvature="0" />
  </g>
  <g
     inkscape:groupmode="layer"
     id="layer18"
     inkscape:label="Layer 18"
     style="display:inline"
     transform="translate(307.84898,40.782505)"
     sodipodi:insensitive="true">
    <path
       style="fill:#8a916f;fill-opacity:1"
       d="m 141.69303,647.99253 c -3.90402,-1.39098 -9.91077,-6.04051 -15.47177,-11.97595 -7.60842,-8.12072 -9.78202,-9.56997 -13.33459,-8.89085 -4.24126,0.81077 -13.249101,-2.78198 -15.301598,-6.103 -0.597748,-0.96717 0.491648,-3.43869 2.420878,-5.49226 4.18599,-4.45579 3.27712,-10.7959 -2.173632,-15.16282 -5.447091,-4.364 -10.749759,-12.67781 -10.777304,-16.89726 -0.0305,-4.67258 -1.179355,-6.35795 -6.746486,-9.89715 -2.382384,-1.51456 -4.786873,-4.82655 -5.34331,-7.36 -0.556438,-2.53344 -2.73045,-6.45985 -4.831138,-8.72535 -2.100689,-2.26549 -4.311628,-6.36003 -4.913199,-9.09896 -0.956767,-4.35614 -0.420289,-5.46023 4.283166,-8.81492 6.08873,-4.34272 18.496006,-5.59214 22.455451,-2.26128 4.619078,3.88578 14.697552,4.29871 19.606402,0.8033 2.64349,-1.88233 7.12993,-3.19032 10.94289,-3.19032 3.73891,0 7.30958,-1.02069 8.47246,-2.42188 2.47966,-2.9878 4.89445,-1.72036 4.89445,2.56892 0,1.76446 1.03185,3.60406 2.29299,4.08801 3.05589,1.17265 4.79415,8.55698 2.62856,11.16637 -2.25059,2.71179 -0.86989,6.07277 3.64911,8.88284 6.43449,4.00117 18.82591,14.99647 19.81993,17.58685 0.53092,1.38354 -0.22195,3.82743 -1.67304,5.43087 -1.45109,1.60343 -2.13766,3.72545 -1.52571,4.7156 0.61194,0.99015 0.22805,2.86611 -0.85309,4.16881 -1.53665,1.85155 -1.5364,2.88582 0.001,4.73845 1.55821,1.87753 1.43062,3.13551 -0.6141,6.05475 -3.66678,5.23506 -3.20726,12.2445 1.5741,24.0115 4.80201,11.81783 4.70741,16.95289 -0.32552,17.67037 -1.9194,0.27363 -4.77761,1.92049 -6.35156,3.65969 -3.35274,3.70473 -4.33914,3.76217 -12.80548,0.74567 z"
       id="path3817"
       inkscape:connector-curvature="0" />
  </g>
  <g
     inkscape:groupmode="layer"
     id="layer19"
     inkscape:label="Layer 19"
     style="display:inline"
     transform="translate(307.84898,40.782505)"
     sodipodi:insensitive="true">
    <path
       style="fill:#676c53;fill-opacity:1"
       d="m 4.5337354,420.27049 c -2.907415,-1.26368 -5.28620896,-3.09804 -5.28620896,-4.07635 0,-2.06545 -11.02282544,-0.51318 -14.19039144,1.99833 -1.181621,0.93689 -6.142361,1.09995 -12.198944,0.40097 -7.89629,-0.91129 -11.417226,-2.23753 -15.550301,-5.85738 -2.938543,-2.57365 -6.232258,-4.68135 -7.319366,-4.68377 -1.087108,-0.002 -5.21628,-2.79809 -9.175937,-6.21261 -5.073697,-4.37519 -6.891754,-7.00987 -6.157502,-8.9233 0.841601,-2.19318 1.855027,-2.40592 5.272105,-1.10675 8.381891,3.18679 10.146627,2.24168 10.784261,-5.77551 0.322994,-4.06112 -0.05906,-8.03017 -0.849007,-8.82012 -1.596518,-1.59651 -9.169847,1.25516 -9.169847,3.45284 0,0.75099 -0.731937,1.36544 -1.626526,1.36544 -0.894589,0 -1.626526,-1.44993 -1.626526,-3.22206 0,-2.17159 -1.458292,-3.57043 -4.472946,-4.29059 -9.210883,-2.20037 -11.095058,-6.20829 -3.621292,-7.70305 2.704882,-0.54097 5.319471,-2.27932 5.810196,-3.86299 0.490726,-1.58368 1.592605,-3.97731 2.448621,-5.3192 0.856014,-1.34188 1.986476,-3.72068 2.512136,-5.28621 0.525659,-1.56553 1.87866,-2.84642 3.006671,-2.84642 1.128008,0 2.96884,-1.10602 4.09074,-2.45782 1.806304,-2.17647 2.294724,-2.12992 4.266558,0.40663 2.096699,2.69717 2.416659,2.64021 5.478709,-0.97542 5.524985,-6.52382 4.271765,-12.76602 -4.067397,-20.25943 -4.025652,-3.61737 -7.319367,-7.56751 -7.319367,-8.77809 0,-1.21058 -1.856077,-5.86385 -4.124617,-10.34059 -3.901863,-7.69996 -4.110632,-11.27063 -0.658967,-11.27063 0.841793,0 1.530533,1.05471 1.530533,2.3438 0,3.77794 2.509482,4.28392 7.902731,1.59341 7.037326,-3.51068 7.627513,-5.21836 3.369833,-9.75046 -6.044393,-6.43396 -1.016873,-4.4894 6.61922,2.5602 7.418179,6.84842 9.618055,7.56656 14.755774,4.81694 2.474809,-1.32448 4.690754,-0.78988 10.263867,2.47619 5.8170876,3.40904 7.8825721,3.87072 11.3755688,2.54268 2.55849586,-0.97274 4.26793546,-2.87204 4.26793546,-4.74195 0,-5.72202 6.82791794,-5.65439 14.15925974,0.14024 1.512182,1.19522 1.521492,2.25209 0.04073,4.62317 -3.009268,4.8186 0.113352,6.3313 13.919383,6.74299 10.008028,0.29843 12.548263,0.87779 12.565984,2.86594 0.0122,1.37055 0.46355,4.13876 1.002966,6.15158 0.542368,2.02384 0.247738,3.65968 -0.659145,3.65968 -0.901944,0 -2.115373,-1.89443 -2.696506,-4.20985 -0.870579,-3.46866 -1.474364,-3.86315 -3.42938,-2.24063 -3.015127,2.50233 -2.961181,7.97555 0.118736,12.04757 3.853307,5.09452 2.952058,8.6593 -2.49151,9.85491 -7.94296,1.74457 -5.581697,5.56798 5.738557,9.292 5.477776,1.80202 6.774875,3.20041 9.311237,10.03832 1.620781,4.36956 2.560401,8.33112 2.088043,8.80348 -0.472358,0.47236 -2.672704,0.0324 -4.889659,-0.97774 -3.374312,-1.53744 -3.971498,-2.83883 -3.666557,-7.99021 l 0.364271,-6.15364 -10.97905,-0.48095 c -11.654247,-0.51053 -13.149126,0.7063 -9.422382,7.66978 1.232539,2.30302 0.712683,3.36035 -2.496659,5.07793 -2.229329,1.19311 -3.731984,2.94682 -3.339233,3.89715 2.961324,7.16542 3.075424,6.97502 -3.769799,6.2905 -7.1716467,-0.71716 -8.6745435,1.42717 -3.3366566,4.76074 2.3988876,1.49813 3.2530516,3.7931 3.2530516,8.74032 0,4.39416 1.202045,8.23691 3.484065,11.13803 5.117339,6.50564 5.676977,17.69596 1.098323,21.96162 -4.17224,3.88704 -5.254599,3.96621 -12.3083856,0.90034 z"
       id="path3820"
       inkscape:connector-curvature="0" />
  </g>
  <g
     inkscape:groupmode="layer"
     id="layer20"
     inkscape:label="Layer 20"
     style="display:inline"
     transform="translate(307.84898,40.782505)"
     sodipodi:insensitive="true">
    <path
       style="fill:#a7ac93;fill-opacity:1"
       d="m 116.35397,719.94302 c 0.002,-0.67094 -1.04221,-1.2199 -2.32019,-1.2199 -4.2024,0 -7.43555,-4.95953 -7.43555,-11.40586 0,-3.46167 -0.73194,-6.7463 -1.62653,-7.29918 -2.20468,-1.36257 -2.05631,-8.30184 0.2567,-12.00556 2.77983,-4.4512 0.861,-7.49475 -7.178835,-11.38677 -3.951361,-1.91282 -8.159679,-5.30038 -9.351819,-7.52792 -2.261278,-4.22524 -5.551592,-5.26977 -7.363729,-2.33767 -2.166162,3.50492 -4.642488,0.2978 -5.168658,-6.69401 -1.767804,-23.49076 -2.509691,-21.43654 9.694667,-26.8437 3.35471,-1.48631 6.11068,-3.5339 6.124379,-4.55021 0.01366,-1.0163 0.671181,-2.86846 1.461072,-4.1159 1.18914,-1.87795 2.406893,-1.66813 7.079813,1.2199 3.10401,1.91838 8.16801,3.48796 11.25334,3.48796 4.711,0 7.28598,1.65784 16.07327,10.34837 11.67406,11.54552 20.41351,14.96251 25.80029,10.08754 4.90366,-4.43775 9.3845,-3.22593 10.52361,2.84605 1.02095,5.44214 6.9554,12.09071 16.8321,18.85762 9.30653,6.37626 8.73139,18.29685 -0.98574,20.43109 -3.86296,0.84845 -6.26571,0.0469 -11.7339,-3.91419 -8.47323,-6.13798 -16.16792,-6.79326 -15.51717,-1.32144 0.23939,2.01283 0.87313,4.75759 1.40832,6.09947 1.98232,4.97023 2.34796,13.93712 0.71458,17.52415 -0.92631,2.03428 -3.57155,4.13418 -5.87831,4.66645 -2.30675,0.53227 -5.71111,1.9104 -7.56524,3.06249 -3.666,2.27794 -25.10203,3.97873 -25.09647,1.99122 z"
       id="path3823"
       inkscape:connector-curvature="0" />
  </g>
  <g
     inkscape:groupmode="layer"
     id="layer21"
     inkscape:label="Layer 21"
     style="display:inline"
     transform="translate(307.84898,40.782505)"
     sodipodi:insensitive="true">
    <path
       style="fill:#454837;fill-opacity:1"
       d="m -58.298586,529.6395 c -0.492304,-1.94125 -2.10505,-6.55205 -6.684797,-19.11168 -1.500639,-4.1154 -6.008573,-8.6985 -16.268719,-16.53999 -7.806085,-5.96593 -16.126054,-11.32746 -18.488822,-11.9145 -9.599726,-2.38513 -24.656216,-15.55704 -24.619986,-21.53837 0.0146,-2.40807 10.17644,-12.05736 14.41082,-13.68393 2.35769,-0.90568 6.99503,-1.90127 10.305208,-2.21245 4.30348,-0.40455 7.430397,-2.10525 10.973223,-5.96825 5.11612,-5.57848 5.212643,-6.45509 2.744025,-24.9208 -0.119595,-0.89459 1.978365,-1.86583 4.662132,-2.15831 6.573421,-0.71639 8.052979,-2.51397 7.600406,-9.23405 -0.290392,-4.3119 0.253045,-5.68616 2.248529,-5.68616 2.848251,0 16.988741,9.55955 16.988741,11.48508 0,0.64596 2.012826,1.67405 4.472946,2.28464 2.460121,0.61059 6.176485,2.70276 8.258589,4.64927 4.966784,4.64333 21.86329,7.93107 25.971511,5.05356 4.407598,-3.0872 12.0937429,-3.26604 16.59883226,-0.38621 2.23647304,1.42964 5.71317194,3.09086 7.72599764,3.69158 4.1135881,1.2277 4.7508951,6.03556 2.0488891,15.4569 -1.9320281,6.73659 -0.9372091,7.96078 8.123605,9.99661 7.890493,1.77287 13.479732,-0.75358 16.543615,-7.47806 0.969898,-2.12869 3.882989,-4.7483 6.473541,-5.82134 6.581378,-2.72609 11.133178,1.43064 11.133178,10.16689 0,4.53591 0.798673,6.5883 2.846421,7.3145 1.565531,0.5552 4.081181,2.0678 5.590353,3.36134 3.154093,2.70347 6.178212,1.47727 6.253682,-2.53572 0.04684,-2.49152 0.238254,-2.50732 2.033158,-0.16787 1.089788,1.4204 2.838759,2.29352 3.886599,1.94027 1.21051,-0.40808 1.588026,0.57052 1.035365,2.6839 -0.560679,2.14407 0.05807,3.6822 1.740871,4.32798 1.833778,0.70368 2.18244,1.76706 1.171652,3.57325 -0.878455,1.56971 -0.759539,3.6595 0.305233,5.3645 1.316722,2.1084 1.07476,3.81492 -0.987106,6.9617 -1.502259,2.29276 -2.731392,5.90675 -2.731392,8.03111 0,4.25786 -6.336522,8.22481 -10.553143,6.60674 -1.352489,-0.519 -2.459063,-0.21876 -2.459063,0.66721 0,0.88596 -1.463874,1.99365 -3.253052,2.46153 -3.410093,0.89176 -4.522018,6.6851 -1.626526,8.47461 2.875389,1.77708 1.74466,4.10191 -2.843444,5.84631 -2.458477,0.93471 -5.588336,2.71159 -6.955219,3.94861 -1.3669,1.23702 -5.504326,2.73189 -9.194295,3.32194 -6.240136,0.99784 -7.216121,0.60539 -13.964868,-5.61539 -6.466393,-5.96051 -8.134301,-6.68821 -15.3296868,-6.68821 -6.5735927,0 -8.80561066,-0.77893 -12.0120021,-4.19198 -3.1948269,-3.40074 -4.860147,-3.9863 -8.8227871,-3.10225 -2.686542,0.59935 -9.784083,1.44629 -15.772312,1.88208 -6.339932,0.46139 -11.65811,1.72066 -12.732141,3.01478 -1.01445,1.22234 -3.51549,7.00465 -5.55787,12.84958 -3.770026,10.78915 -6.62528,15.57221 -9.295865,15.57221 -0.813128,0 -1.71044,-0.91493 -1.994026,-2.03316 z"
       id="path3828"
       inkscape:connector-curvature="0" />
  </g>
  <g
     inkscape:groupmode="layer"
     id="layer22"
     inkscape:label="Layer 22"
     style="display:inline"
     transform="translate(307.84898,40.782505)"
     sodipodi:insensitive="true">
    <path
       style="fill:#a7ac93;fill-opacity:1"
       d="m 96.237726,288.91368 c -1.960845,-7.31687 -1.13198,-8.6715 7.122014,-11.63959 8.43652,-3.03373 14.62417,-9.00026 14.62417,-14.10155 0,-1.61574 0.73194,-3.39007 1.62653,-3.94296 3.77041,-2.33024 1.45875,-7.33884 -4.87958,-10.57242 -3.57836,-1.82554 -6.5061,-4.50959 -6.5061,-5.96456 0,-5.20972 33.24421,0.0481 40.70725,6.4382 1.78537,1.52868 4.06776,2.77941 5.07198,2.77941 1.00423,0 4.64343,0.84417 8.08712,1.87593 5.33248,1.59764 6.41881,2.7157 7.32333,7.53716 0.80256,4.27801 0.42822,6.01597 -1.53206,7.11299 -1.56069,0.87341 -2.18455,2.51904 -1.56602,4.13089 0.81866,2.13341 0.39075,2.41838 -2.10071,1.39898 -1.72084,-0.7041 -4.32215,-1.62558 -5.78067,-2.04774 -3.71979,-1.07665 -11.49121,7.55664 -10.7058,11.8931 0.57809,3.19179 -0.0839,3.43567 -9.27517,3.41697 -13.60284,-0.0277 -33.3789,2.23514 -34.43245,3.93982 -1.74339,2.82087 -6.817529,1.35112 -7.783834,-2.25463 z"
       id="path3837"
       inkscape:connector-curvature="0" />
  </g>
  <g
     inkscape:groupmode="layer"
     id="layer23"
     inkscape:label="Layer 23"
     style="display:inline"
     transform="translate(307.84898,40.782505)"
     sodipodi:insensitive="true">
    <path
       style="fill:#c4c8b7;fill-opacity:1"
       d="m 28.931623,307.6285 c -12.406943,-0.50665 -16.903013,-2.43455 -10.97905,-4.70779 3.892408,-1.49366 2.892155,-3.49573 -4.037678,-8.08168 -3.9215094,-2.59513 -7.7739083,-3.94755 -9.7629889,-3.4274 -5.3059198,1.38753 -6.7424505,-3.43278 -3.1320662,-10.50972 1.7089952,-3.3499 3.107264,-7.2178 3.107264,-8.59533 0,-3.37402 0.9591585,-3.17778 7.0212601,1.43653 4.689513,3.56954 5.56107,3.72833 9.243998,1.68417 2.236473,-1.24133 5.761291,-2.28289 7.832927,-2.31459 4.076741,-0.0624 9.347659,-2.40385 13.463599,-5.98086 2.316694,-2.01335 2.355581,-3.4997 0.366747,-14.0178 -2.503802,-13.24152 -4.458781,-15.71955 -15.631354,-19.81351 -8.040076,-2.94613 -13.213575,-8.50415 -12.266056,-13.17774 0.297713,-1.46846 4.698287,-5.11448 9.779054,-8.10226 l 9.237758,-5.43234 2.578342,3.93505 c 7.067588,10.7865 26.852094,13.69239 42.576574,6.25352 11.758754,-5.56278 16.661438,-4.53548 30.872687,6.46902 6.17158,4.77898 13.55344,9.88459 16.40413,11.34581 9.25989,4.74649 7.906,5.89977 -5.69473,4.85096 -15.38133,-1.18613 -18.24781,0.82994 -10.58721,7.44623 2.67982,2.3145 6.25129,5.00597 7.93661,5.98106 2.9237,1.69157 2.93594,1.96865 0.26682,6.04224 -1.53857,2.34815 -2.7974,5.66938 -2.7974,7.38049 0,3.8726 -2.05518,5.45973 -11.66419,9.0078 -9.758449,3.60324 -11.654709,5.86194 -9.555866,11.38231 1.202391,3.16253 1.106372,4.26675 -0.37167,4.27419 -1.096094,0.006 -4.188709,1.17495 -6.872476,2.59876 -5.635541,2.98981 -22.94508,8.77689 -26.252223,8.77689 -1.2341,0 -3.497226,1.46388 -5.029167,3.25306 -1.818456,2.1238 -4.4949,3.13812 -7.710079,2.92198 -2.7086,-0.18209 -10.963205,-0.57766 -18.343566,-0.87905 z"
       id="path3840"
       inkscape:connector-curvature="0" />
  </g>
  <g
     inkscape:groupmode="layer"
     id="layer24"
     inkscape:label="Layer 24"
     style="display:inline"
     transform="translate(307.84898,40.782505)"
     sodipodi:insensitive="true">
    <path
       style="fill:#a7ac93;fill-opacity:1"
       d="m 45.129471,216.14027 c -4.88122,-2.21538 -7.489849,-4.63013 -8.675207,-8.03045 -0.932286,-2.67435 -3.01682,-5.28197 -4.6323,-5.7947 -1.773779,-0.56298 -3.625006,-3.64962 -4.673562,-7.79246 -1.343569,-5.30844 -3.960462,-8.81416 -11.568956,-15.49838 -9.382305,-8.24254 -9.78886,-8.91297 -8.8769418,-14.63873 0.8112867,-5.0939 0.3116082,-6.55945 -3.3069856,-9.69935 -2.3444711,-2.03433 -7.8045043,-11.20847 -12.133406,-20.38697 -7.2177506,-15.30368 -7.7601376,-17.29082 -6.5376996,-23.95215 2.804086,-15.280084 4.385659,-21.113569 6.3737811,-23.509109 1.7168386,-2.068665 1.3499439,-3.035698 -2.2159511,-5.84063 -3.042035,-2.392866 -4.259197,-4.850723 -4.223988,-8.529651 0.04113,-4.29823 0.328523,-4.689034 1.707348,-2.321736 1.785609,3.065706 8.7952547,3.884602 10.4421347,1.219895 0.552887,-0.89459 2.29102181,-1.626526 3.86252226,-1.626526 2.43752784,0 3.15104574,2.688131 4.85700774,18.298415 3.5576495,32.554042 4.6560033,37.462902 10.1297243,45.272632 5.252604,7.49425 21.776938,14.96399 37.501926,16.95255 7.73383,0.97802 15.419164,1.29443 17.078521,0.70314 1.846748,-0.65806 4.521645,0.0991 6.896047,1.95203 2.133468,1.66491 5.520546,3.0271 7.526838,3.0271 4.420181,0 5.90859,1.8171 9.535928,11.6418 2.816361,7.62816 16.607128,22.50899 20.871558,22.52132 1.15656,0.003 -0.27596,1.45646 -3.18337,3.22915 -4.27544,2.60678 -5.28621,4.26796 -5.28621,8.68772 0,7.99338 -4.18147,11.10481 -13.252847,9.86144 -5.918098,-0.81117 -8.8675,-0.20002 -15.669703,3.24692 -10.324899,5.23202 -22.412634,5.60592 -32.546209,1.00673 z"
       id="path3843"
       inkscape:connector-curvature="0" />
  </g>
  <g
     inkscape:groupmode="layer"
     id="layer25"
     inkscape:label="Layer 25"
     style="display:inline"
     transform="translate(307.84898,40.782505)"
     sodipodi:insensitive="true">
    <path
       style="fill:#8a916f;fill-opacity:1"
       d="m -16.166877,297.19191 c -4.05654,-3.19087 -5.001882,-3.32081 -10.278416,-1.41279 -5.376869,1.9443 -6.031614,1.82882 -8.764133,-1.5457 -1.624228,-2.00583 -2.953141,-4.65325 -2.953141,-5.88315 0,-1.2299 -4.39162,-4.45307 -9.759155,-7.16259 -8.948731,-4.51731 -11.923539,-8.22951 -8.3598,-10.43202 2.946855,-1.82126 3.505398,-15.8982 0.931601,-23.47914 -3.22746,-9.50626 -5.036688,-11.63156 -9.901723,-11.63156 -2.155669,0 -6.640651,-1.15844 -9.966628,-2.5743 -3.325975,-1.41586 -8.95605,-2.74209 -12.511274,-2.94717 -6.460112,-0.37265 -6.466857,-0.38024 -11.082449,-12.47107 -4.509215,-11.81217 -5.039105,-22.67061 -1.106309,-22.67061 0.842251,0 5.181462,-3.63094 9.642691,-8.06875 11.747683,-11.68601 15.367031,-13.10803 35.283194,-13.86254 13.820458,-0.52358 18.012128,-0.14041 21.181532,1.93627 3.692009,2.41909 4.261694,2.35957 8.679864,-0.90692 5.570514,-4.11846 8.591861,-4.3992 11.366343,-1.05616 2.270724,2.73606 6.6884806,3.20287 9.0272182,0.95389 3.1955556,-3.07292 8.4967513,-2.43367 13.8763374,1.67328 10.2581344,7.83139 16.1330644,14.89148 16.1330644,19.38762 0,2.37529 1.474657,5.65325 3.277013,7.28436 3.238346,2.93067 3.161574,3.03072 -6.506103,8.47892 -8.385717,4.72575 -9.783117,6.17613 -9.783117,10.15405 0,5.63713 6.412559,11.51547 16.953402,15.54106 8.0719,3.08268 9.699579,6.07115 11.640509,21.3723 1.034953,8.15897 0.922907,8.47244 -3.924342,10.97905 -2.744341,1.41916 -6.254984,2.58028 -7.801426,2.58028 -1.546442,0 -5.227524,0.87357 -8.180181,1.94127 -4.830432,1.7467 -5.771032,1.56307 -9.385244,-1.83231 -4.3315243,-4.06925 -9.0618729,-3.6162 -9.0618729,0.8679 0,1.48802 -1.54099336,5.19887 -3.42443055,8.24633 -2.96987835,4.80537 -3.16119355,6.17636 -1.44129545,10.32856 1.0907238,2.63325 1.55678529,5.89877 1.0356903,7.25672 -1.3889766,3.61961 -9.6466514,3.03798 -14.8374194,-1.04508 z"
       id="path3846"
       inkscape:connector-curvature="0" />
  </g>
  <g
     inkscape:groupmode="layer"
     id="layer26"
     inkscape:label="Layer 26"
     style="display:inline"
     transform="translate(307.84898,40.782505)"
     sodipodi:insensitive="true">
    <path
       style="fill:#a7ac93;fill-opacity:1"
       d="m -123.9618,208.1763 c -1.11824,-0.45122 -2.04427,-2.40627 -2.05785,-4.34453 -0.0569,-8.12575 -4.23692,-17.35998 -9.674,-21.37132 -4.94366,-3.64732 -5.8152,-3.82311 -8.20991,-1.65592 -1.47352,1.33351 -3.86513,2.42457 -5.31469,2.42457 -1.44957,0 -4.58954,2.56178 -6.97771,5.69284 -2.38818,3.13106 -5.15652,5.69284 -6.15187,5.69284 -0.99535,0 -6.30642,-4.70022 -11.80237,-10.44495 -9.76979,-10.21198 -10.14462,-10.42455 -16.80667,-9.53098 -6.16373,0.82673 -7.38614,0.366 -12.80909,-4.82784 -3.29729,-3.15798 -8.45089,-6.97896 -11.45243,-8.49106 -5.44764,-2.74438 -5.45536,-2.76519 -4.33999,-11.69226 0.99781,-7.98622 0.66312,-9.59843 -3.12844,-15.06965 -3.54096,-5.10961 -4.48577,-8.88946 -5.69139,-22.76927 -1.2007,-13.823136 -2.15726,-17.669509 -5.64632,-22.704228 -6.27092,-9.04894 -5.52719,-12.550504 4.78776,-22.541315 l 8.98847,-8.70602 -1.75333,-6.51137 c -1.83776,-6.824909 -1.38379,-9.768644 3.04244,-19.728309 1.79166,-4.031505 3.78007,-6.074235 5.9451,-6.107517 3.58832,-0.05515 19.04191,5.020036 20.33157,6.677201 0.44729,0.574757 3.85903,1.082951 7.58163,1.12932 3.7226,0.04637 8.20355,0.980595 9.95767,2.076058 2.65621,1.658834 4.13788,1.405494 8.8644,-1.515652 4.86918,-3.009321 6.77171,-3.302534 13.39726,-2.064746 8.60878,1.608294 7.57354,2.254827 20.16777,-12.59526 4.74479,-5.594678 8.34856,-8.379569 10.8435,-8.379569 2.05528,0 4.07984,-0.9149212 4.49903,-2.0331577 0.92046,-2.4554447 4.59799,1.6790157 9.24875,10.3979167 2.46123,4.614116 2.94278,7.762859 2.17659,14.2321 -0.54112,4.568923 -0.33295,8.294186 0.4626,8.278363 0.79555,-0.01578 3.2763,-2.249915 5.512771,-4.964652 2.236473,-2.714736 6.207176,-7.276395 8.823786,-10.137018 l 4.757469,-5.201135 2.081903,4.879578 c 3.701472,8.675539 2.791946,15.93021 -2.650951,21.144835 -6.38265,6.114968 -6.163467,7.953351 0.813263,6.821183 7.431076,-1.205898 7.351685,0.370542 -0.813263,16.148918 -3.578357,6.915002 -6.506103,12.800699 -6.506103,13.079326 0,0.278629 3.11073,2.504302 6.912735,4.945942 5.097541,3.27363 9.030503,4.453525 14.977765,4.493349 7.933331,0.05312 8.101855,0.160245 10.320778,6.560109 7.235763,20.86957 7.089375,20.60789 12.88184,23.02813 4.738509,1.97988 5.477115,2.94676 4.532868,5.93384 -0.620422,1.9627 -1.51384,7.76139 -1.985354,12.88598 -0.838002,9.10769 -0.742086,9.3823 4.260701,12.19894 2.814881,1.58483 5.417567,4.34539 5.78373,6.13456 0.366164,1.78918 1.05285,5.11153 1.525974,7.383 l 0.860221,4.12995 -20.217195,0.20401 -20.217196,0.20403 -8.998769,6.23844 c -4.949323,3.43116 -9.412158,7.50427 -9.917412,9.05139 -0.505255,1.54712 -3.070853,4.08427 -5.701331,5.63814 -4.49633,2.65604 -6.23195,5.48696 -7.13458,11.63693 -0.55625,3.79002 -12.50093,6.41905 -18.38213,4.04594 z"
       id="path3851"
       inkscape:connector-curvature="0" />
  </g>
  <g
     inkscape:groupmode="layer"
     id="layer27"
     inkscape:label="Layer 27"
     style="display:inline"
     transform="translate(307.84898,40.782505)"
     sodipodi:insensitive="true">
    <path
       style="fill:#c4c8b7;fill-opacity:1"
       d="m -222.67797,265.56811 c 0.59468,-2.3694 0.34905,-5.21343 -0.54584,-6.32006 -0.8949,-1.1066 -2.56144,-6.40365 -3.70342,-11.77118 -2.51342,-11.81359 -4.23767,-14.31065 -9.22353,-13.35755 -2.70191,0.5165 -4.3454,-0.27641 -5.62863,-2.71562 -0.99683,-1.89483 -2.51036,-3.90101 -3.36338,-4.45819 -0.96336,-0.62924 -0.87111,-2.28335 0.24349,-4.366 3.15203,-5.88964 2.18441,-12.69635 -2.21463,-15.57872 -2.205,-1.44478 -5.61215,-2.62686 -7.57146,-2.62686 -3.34814,0 -3.40048,-0.17888 -0.87049,-2.97449 1.56296,-1.72704 2.69188,-5.71036 2.69188,-9.49808 0,-5.38006 -0.71277,-6.84834 -4.06631,-8.37631 -2.23647,-1.01901 -4.13285,-2.60036 -4.21418,-3.51413 -0.48692,-5.47093 -0.11257,-10.9724 0.91269,-13.41318 0.86782,-2.06596 -0.879,-4.77738 -6.62418,-10.28205 -6.37366,-6.10684 -7.48707,-7.9762 -6.079,-10.20632 1.18236,-1.87262 1.20834,-4.21003 0.0827,-7.44166 -1.15119,-3.305 -1.09402,-5.58751 0.19152,-7.64599 2.31486,-3.70666 -1.41523,-7.97408 -6.97002,-7.97408 -2.21909,0 -4.85624,-1.66839 -6.42741,-4.06631 -1.65501,-2.52585 -4.19061,-4.06632 -6.69317,-4.06632 -2.21585,0 -4.02882,-0.63889 -4.02882,-1.41976 0,-2.20482 6.22272,-15.294515 8.94499,-18.816054 1.34238,-1.736513 2.44069,-4.80574 2.44069,-6.820504 0,-2.014763 1.48027,-4.700027 3.28948,-5.967252 4.96285,-3.476115 2.51071,-7.639571 -4.49945,-7.639571 l -5.74151,0 0.84865,-10.572417 c 0.46676,-5.81483 0.28637,-10.572418 -0.40087,-10.572418 -1.78043,0 -3.30996,-6.732397 -2.00416,-8.82153 2.12496,-3.399699 2.07428,-8.247958 -0.10315,-9.869039 -3.29284,-2.451482 -5.5369,-10.751809 -4.40136,-16.279736 1.16059,-5.649879 -1.16251,-12.1989439 -4.32723,-12.1989439 -1.19829,0 -2.23471,-0.9149208 -2.30316,-2.0331573 -0.18149,-2.96504105 -0.99532,-6.8200422 -2.3227,-11.0022516 -1.13314,-3.5702082 -0.91194,-3.6539202 7.51548,-2.8441528 10.29007,0.9887439 16.64407,-1.2927104 15.52444,-5.5741724 -0.42299,-1.617502 -0.17456,-3.308339 0.55206,-3.757416 0.72663,-0.449077 0.96011,-2.197041 0.51887,-3.884367 -0.44125,-1.687325 -0.007,-3.559634 0.96596,-4.160687 0.97252,-0.601053 1.76823,-2.716802 1.76823,-4.701665 0,-1.984863 1.58566,-4.966529 3.52369,-6.625925 3.23505,-2.769935 3.68277,-2.799547 5.46552,-0.36148 1.06801,1.460581 2.59307,2.677058 3.38904,2.703282 4.08989,0.134743 16.89921,15.363398 16.89921,20.091004 0,1.298743 1.85686,3.713981 4.12636,5.367193 2.26949,1.6532127 5.12908,5.9225941 6.35465,9.4875158 1.81208,5.2710091 3.24395,6.7306777 7.66595,7.8147848 3.69288,0.905352 6.92117,3.4593748 10.06103,7.9596484 5.01795,7.192094 5.03327,9.328742 0.16448,22.935284 -2.34809,6.562074 -2.48901,8.871368 -0.87091,14.272091 1.87842,6.269616 1.78628,6.562752 -3.41864,10.876231 -9.90698,8.210218 -12.69724,12.052284 -12.69724,17.483515 0,2.890894 1.13787,6.200517 2.52859,7.354716 4.44532,3.689287 5.46407,7.276858 7.16548,25.233534 1.34826,14.22962 2.4221,18.69021 5.62913,23.3827 3.30477,4.8355 3.81135,7.08861 3.04979,13.56453 -0.71418,6.07297 -0.27936,8.46629 1.99465,10.97905 1.59935,1.76727 3.78932,3.2132 4.8666,3.2132 1.07729,0 5.2848,2.92775 9.35003,6.5061 6.18654,5.44561 8.53656,6.50611 14.41733,6.50611 6.42231,0 7.88684,0.85317 17.04448,9.9294 11.10518,11.00647 14.09372,11.49552 18.86425,3.08698 1.84534,-3.25259 4.04551,-4.88375 6.58742,-4.88375 2.09917,0 4.62898,-0.81232 5.6218,-1.80514 1.32249,-1.3225 3.13724,-1.01825 6.78738,1.13793 4.36618,2.57917 5.11326,4.10113 6.04181,12.30854 1.44907,12.80803 4.23056,15.13159 16.47239,13.76046 l 9.39378,-1.05215 3.11751,7.60938 c 1.714619,4.18514 3.032283,8.40464 2.928104,9.37664 -0.989431,9.23278 -2.593704,11.61544 -8.883754,13.19415 -5.51887,1.38515 -16.90034,-1.89759 -19.51335,-5.62819 -1.8343,-2.61882 -3.17514,-2.85398 -9.41207,-1.65071 -10.42353,2.01101 -27.33146,1.85421 -33.31349,-0.30892 -3.48896,-1.26164 -6.64323,-1.35114 -9.87463,-0.28022 -4.10197,1.35943 -4.81615,2.49704 -5.24824,8.35989 -0.43248,5.868 -1.01024,6.78632 -4.26963,6.78632 -7.24159,0 -13.93527,2.05087 -13.93527,4.26963 0,1.23006 -0.73193,2.23647 -1.62652,2.23647 -0.89459,0 -1.62653,1.0979 -1.62653,2.43979 0,1.34188 -1.37238,3.81217 -3.04973,5.48952 -1.67736,1.67736 -3.32421,3.85659 -3.65969,4.84276 -0.33547,0.98614 -3.02759,2.27481 -5.9825,2.86367 -5.16864,1.03005 -5.33152,0.90718 -4.29132,-3.23734 z"
       id="path3854"
       inkscape:connector-curvature="0" />
  </g>
  <g
     inkscape:groupmode="layer"
     id="layer28"
     inkscape:label="Layer 28"
     style="display:inline"
     transform="translate(307.84898,40.782505)"
     sodipodi:insensitive="true">
    <path
       style="fill:#a7ac93;fill-opacity:1"
       d="m -131.28117,365.86151 c -3.16046,-0.47877 -4.47295,-1.63087 -4.47295,-3.92634 0,-1.78681 -1.76795,-5.21489 -3.92878,-7.61796 -16.75536,-18.63372 -22.89404,-24.63684 -26.88259,-26.28895 -2.52487,-1.04583 -6.76598,-4.95901 -9.42469,-8.69594 -4.97145,-6.98759 -7.70013,-15.74031 -4.90709,-15.74031 0.86625,0 1.15369,-1.0979 0.63876,-2.43979 -1.74013,-4.53472 0.77535,-6.97807 8.35418,-8.11458 4.15089,-0.62247 8.46998,-2.34505 9.59797,-3.82795 2.45683,-3.22986 2.50669,-3.6881 0.70978,-6.52381 -1.10799,-1.74852 -2.13399,-1.80547 -4.98998,-0.277 -2.91824,1.5618 -4.13239,1.43796 -6.44802,-0.65765 -2.72079,-2.46228 -9.30246,-2.36221 -16.39489,0.24927 -5.86718,2.16033 -8.23556,1.26443 -12.10176,-4.5778 -2.22106,-3.35624 -5.5098,-6.56929 -7.30832,-7.14012 -2.839,-0.90106 -3.00805,-1.50771 -1.2825,-4.60242 1.09314,-1.96051 2.90246,-4.14988 4.02069,-4.86527 1.11824,-0.7154 2.03316,-2.36226 2.03316,-3.65969 0,-1.29743 0.73194,-2.35896 1.62652,-2.35896 0.89459,0 1.62653,-1.09791 1.62653,-2.43979 0,-1.71255 1.72877,-2.43979 5.79977,-2.43979 9.14232,0 12.09201,-2.3766 12.09201,-9.74268 0,-6.00193 0.33435,-6.4379 5.71068,-7.4465 3.53101,-0.66243 6.59531,-0.33714 8.02842,0.85223 3.27841,2.72084 15.98456,3.12512 28.95838,0.92139 9.37663,-1.59271 11.37783,-1.51407 13.05889,0.51315 3.13295,3.77808 11.81012,6.76978 19.63514,6.76978 7.2961,0 9.270743,-1.96035 9.83033,-9.75916 0.09629,-1.34188 0.906033,-2.16361 1.799441,-1.82607 0.89341,0.33755 2.570869,0.97692 3.727687,1.42084 1.156819,0.44391 2.499139,0.41128 2.982934,-0.0725 0.483794,-0.48379 4.958432,0.52369 9.943639,2.23885 4.985206,1.71517 10.689647,3.11848 12.676534,3.11848 4.553308,0 6.410376,2.25192 9.596785,11.63727 2.715827,7.99928 2.099657,15.92075 -1.715321,22.05211 -1.997219,3.20989 -1.854823,3.95666 1.31815,6.91273 1.956491,1.82275 4.229486,3.31409 5.051101,3.31409 0.821623,0 1.080143,1.07808 0.574505,2.39574 -0.505622,1.31766 0.893988,4.55076 3.110275,7.18466 l 4.029604,4.78891 -4.984504,2.48659 c -4.820177,2.40462 -5.034742,2.35441 -6.509033,-1.52327 -1.345708,-3.53948 -1.909471,-3.76947 -4.805898,-1.96062 -4.235011,2.6448 -4.135754,4.36725 0.784965,13.62185 2.236473,4.20623 4.066315,8.73121 4.066315,10.05552 0,1.3243 3.393063,5.5676 7.54015,9.42955 6.821471,6.35245 7.438689,7.52905 6.475606,12.34445 -1.48505,7.42523 -3.707519,9.20637 -6.659387,5.33697 -2.087223,-2.73601 -2.632564,-2.83452 -4.018283,-0.72584 -0.881816,1.34188 -2.542584,2.51053 -3.69059,2.59699 -1.148007,0.0865 -3.480307,0.75676 -5.182889,1.48954 -2.430978,1.04627 -4.351663,-0.0651 -8.945892,-5.17616 -8.497459,-9.45347 -17.235969,-12.61191 -17.235969,-6.22974 0,2.37881 -1.084351,3.25305 -4.034893,3.25305 -2.810585,0 -4.69856,1.37868 -6.222104,4.54363 -1.525294,3.1686 -3.039728,4.27305 -5.004248,3.64954 -2.77934,-0.88213 -9.94991,6.64597 -9.94991,10.44601 0,0.93082 -1.16642,1.69239 -2.59206,1.69239 -1.42563,0 -2.97487,1.46388 -3.44275,3.25306 -0.85379,3.26487 -2.56818,3.55677 -12.2636,2.08804 z"
       id="path3857"
       inkscape:connector-curvature="0" />
  </g>
  <g
     inkscape:groupmode="layer"
     id="layer29"
     inkscape:label="Layer 29"
     style="display:inline"
     transform="translate(307.84898,40.782505)"
     sodipodi:insensitive="true">
    <path
       style="fill:#c4c8b7;fill-opacity:1"
       d="m -207.18517,442.68762 c -3.83591,-7.63366 -6.45498,-10.89934 -9.31742,-11.61777 -3.64124,-0.91389 -3.76662,-1.23694 -1.46647,-3.77857 1.38335,-1.52859 2.51518,-3.60016 2.51518,-4.60351 0,-1.00334 1.01117,-2.40958 2.24706,-3.12497 1.23588,-0.7154 2.75479,-4.35641 3.37535,-8.09115 0.91487,-5.50592 0.53839,-7.38034 -1.99018,-9.90891 -4.16401,-4.16401 -5.51541,-9.69181 -2.63922,-10.7955 1.24302,-0.477 2.26004,-2.27703 2.26004,-4.00007 0,-2.74147 0.71221,-2.97218 5.7015,-1.84692 3.37305,0.76075 6.09594,0.6477 6.66733,-0.27682 1.38196,-2.23607 -0.83034,-12.73734 -2.68338,-12.73734 -0.85405,0 -1.55282,-0.62955 -1.55282,-1.399 0,-2.07101 10.88465,-13.23973 12.90298,-13.23973 1.70464,0 2.37135,-3.03927 1.84365,-8.40445 -0.31288,-3.18107 5.00121,-5.27036 9.65126,-3.79449 1.78917,0.56786 3.25305,0.33658 3.25305,-0.51395 0,-0.85054 1.55894,-1.9541 3.4643,-2.45237 2.27851,-0.59584 3.13794,-1.75644 2.51083,-3.39066 -0.52441,-1.36661 -0.20583,-2.94681 0.70796,-3.51156 1.03328,-0.6386 0.60362,-2.19572 -1.13639,-4.11841 -2.46041,-2.71873 -2.48824,-3.09157 -0.23075,-3.09157 5.17779,0 23.88305,17.98143 27.30888,26.25211 1.05978,2.55853 2.88736,4.65188 4.06129,4.65188 1.17393,0 2.36602,1.97148 2.64909,4.38106 0.49353,4.20108 0.91561,4.38485 10.27383,4.47295 8.41989,0.0793 9.69356,-0.29874 9.28122,-2.75454 -0.27387,-1.63106 0.5376,-2.84642 1.9005,-2.84642 1.30813,0 3.98178,-2.59427 5.94142,-5.76505 2.11582,-3.42346 4.64712,-5.58704 6.23213,-5.3268 3.812594,0.62598 6.735453,-1.61596 6.735453,-5.16635 0,-2.25664 1.380163,-3.18707 5.286209,-3.56369 4.294262,-0.41404 5.261975,-1.19642 5.157061,-4.16937 -0.134021,-3.79778 1.63454,-4.86093 3.3822,-2.03315 0.552887,0.89459 2.419195,1.62652 4.147354,1.62652 1.814128,0 4.695152,2.41987 6.816742,5.72561 2.02105,3.14908 5.321493,6.15618 7.334319,6.68243 4.270232,1.11645 4.614958,2.66609 1.219894,5.48375 -1.341883,1.11366 -2.439788,3.41739 -2.439788,5.1194 0,2.15632 -1.521809,3.39891 -5.019374,4.09843 -2.760657,0.55213 -5.436684,2.09136 -5.946727,3.42051 -1.06758,2.78207 5.414161,8.41528 9.746206,8.47032 1.720798,0.0219 2.846421,1.28464 2.846421,3.19323 0,4.82116 3.140016,5.7103 6.694032,1.8955 4.705148,-5.05038 6.318174,-4.21902 6.318174,3.2564 0,7.18317 -0.02359,7.19072 -11.661131,3.74477 -1.725827,-0.51102 -3.087408,0.36861 -3.736584,2.41398 -0.56174,1.76989 -2.633597,3.44733 -4.604127,3.72766 -2.953514,0.42016 -3.670628,1.72381 -4.082936,7.42241 -0.461622,6.38021 -0.853506,6.91274 -5.087049,6.91274 -5.615486,0 -8.412624,3.04824 -7.167229,7.81063 0.782572,2.99256 0.258706,3.57505 -3.215236,3.57505 -2.282572,0 -5.978003,0.69495 -8.212067,1.54434 -3.699707,1.40663 -3.902997,1.96543 -2.279617,6.26625 2.798168,7.41319 0.71498,10.64796 -6.04103,9.38052 -3.71982,-0.69784 -7.27408,-0.20625 -10.47447,1.44873 -10.0905,5.21801 -24.55157,2.2225 -35.44519,-7.34223 -4.56079,-4.00442 -6.5936,-4.77553 -10.39071,-3.94154 -3.29395,0.72347 -6.31705,0.0523 -10.00278,-2.22091 -4.68744,-2.89096 -5.73992,-3.00366 -9.34844,-1.00103 -2.23647,1.24118 -6.09308,2.28264 -8.57024,2.31434 -3.84787,0.0492 -4.3704,0.59072 -3.58719,3.71732 1.07878,4.30647 -2.91631,21.15429 -5.19649,21.91435 -0.86466,0.28822 -3.9732,-4.25426 -6.90788,-10.09439 z"
       id="path3860"
       inkscape:connector-curvature="0" />
  </g>
  <g
     inkscape:groupmode="layer"
     id="layer30"
     inkscape:label="Layer 30"
     style="display:inline"
     transform="translate(307.84898,40.782505)"
     sodipodi:insensitive="true">
    <path
       style="fill:#c4c8b7;fill-opacity:1"
       d="m -30.750971,169.85497 c -1.39261,-1.98821 -2.532019,-5.56102 -2.532019,-7.93957 0,-3.05935 -1.72496,-5.64031 -5.89587,-8.82161 -5.758207,-4.392 -5.871434,-4.69084 -4.849334,-12.79863 0.575595,-4.56588 1.48197,-10.68042 2.014166,-13.58783 0.817539,-4.46627 0.482634,-5.28621 -2.159156,-5.28621 -5.845407,0 -9.403339,-4.57177 -13.496893,-17.34285 l -4.086118,-12.747879 -8.128126,-0.151918 c -4.875777,-0.09113 -10.886279,-1.564701 -15.02117,-3.682693 l -6.89304,-3.530785 6.55469,-12.518141 c 8.001048,-15.280393 7.981891,-19.319255 -0.08897,-18.755539 l -5.691845,0.397562 5.008004,-4.598994 c 6.949739,-6.382147 7.652852,-9.226692 4.749378,-19.214291 -3.598597,-12.378739 -4.660965,-12.0992 -19.482416,5.126395 l -4.19854,4.879577 1.01487,-7.511761 c 1.08204,-8.008907 -1.42582,-15.093398 -7.81992,-22.0906572 l -3.26959,-3.5780071 4.96125,-4.9612534 c 2.72869,-2.7286906 5.99297,-4.9612551 7.25394,-4.9612551 1.26098,0 4.596127,-2.866324 7.411445,-6.3696102 3.059809,-3.807523 7.094792,-6.803619 10.031377,-7.448602 2.701941,-0.593446 4.91262,-1.617993 4.91262,-2.276772 0,-0.658778 2.927747,-2.843265 6.506104,-4.854414 3.578356,-2.011149 6.506103,-4.341739 6.506103,-5.179088 0,-0.837349 1.666981,-1.522453 3.704403,-1.522453 2.03742,0 5.362577,-1.161432 7.389238,-2.580959 4.501713,-3.153123 4.972399,-2.814132 17.709651,12.754582 5.180774,6.332451 8.68776,11.7586938 7.793301,12.0583177 -6.229576,2.0867757 -13.087654,6.6894453 -13.533926,9.08303905 -0.603431,3.23651965 5.992214,12.37466825 9.030229,12.51122325 1.101192,0.0495 2.490013,2.033719 3.086266,4.409382 1.272578,5.070352 -2.448627,8.66239 -9.058995,8.744547 -5.075548,0.06308 -9.854909,3.450247 -9.854909,6.984239 0,3.354743 8.880281,12.482343 12.144123,12.482343 1.372035,0 2.494609,1.092337 2.494609,2.427417 0,3.689784 6.572855,10.457078 9.183578,9.45525 4.084566,-1.567395 10.330524,7.647077 10.332746,15.243587 0.0015,5.270028 0.895237,7.497313 3.982796,9.925986 2.517096,1.979949 3.4120608,3.700053 2.434003,4.678111 -0.850743,0.850743 -2.555277,5.533257 -3.787852,10.405587 -4.884351,19.307687 -4.886226,19.286437 3.208843,36.375307 4.1301623,8.71884 9.6579754,18.29957 12.2840289,21.29047 6.0718274,6.91544 5.1340263,12.20602 -2.8374336,16.00734 -6.9642728,3.32104 -9.4358093,3.37172 -12.0293473,0.2467 -1.113664,-1.34189 -3.309474,-2.43979 -4.879578,-2.43979 -1.570103,0 -3.765913,1.0979 -4.879577,2.43979 -2.753407,3.31765 -4.250779,3.07416 -7.227136,-1.17519 z"
       id="path3863"
       inkscape:connector-curvature="0" />
  </g>
  <g
     inkscape:groupmode="layer"
     id="layer31"
     inkscape:label="Layer 31"
     style="display:inline"
     transform="translate(307.84898,40.782505)"
     sodipodi:insensitive="true">
    <g
       id="g3873"
       style="fill:#a7ac93">
      <path
         inkscape:connector-curvature="0"
         id="path3866"
         d="m -107.07343,444.99854 c -5.37009,1.77229 -18.92153,12.61244 -18.92153,16.44366 0,6.01135 15.59526,19.70313 25.76417,22.61954 2.604122,0.74685 10.676715,5.64378 17.939095,10.88206 10.495147,7.57004 13.533356,10.70248 14.807989,15.26725 0.882013,3.1587 2.69326,7.18435 4.024991,8.94589 1.331729,1.76153 2.444607,4.60903 2.473058,6.32777 0.02845,1.71874 1.250648,4.44977 2.715997,6.06896 1.873854,2.07059 2.174185,3.55622 1.012332,5.00765 -0.908566,1.13502 -2.180766,3.78601 -2.827114,5.89108 -0.646345,2.10508 -2.901824,6.37178 -5.012176,9.48156 -2.683594,3.95449 -3.565838,7.00995 -2.934931,10.16449 0.715715,3.57858 -0.01529,5.23201 -3.538871,8.0036 -4.603888,3.62142 -7.081648,4.37285 -7.496116,2.27335 -0.132453,-0.67094 -0.396474,-2.3178 -0.586716,-3.65968 -0.805615,-5.68248 -2.963019,-9.75916 -5.164613,-9.75916 -1.540261,0 -2.033967,-1.02627 -1.421709,-2.95532 1.711166,-5.39141 -6.046055,-10.6646 -15.911196,-10.8161 -9.17224,-0.14087 -15.16795,-3.71874 -28.71034,-17.13257 -14.87536,-14.73415 -20.99202,-18.33452 -34.5971,-20.36446 -7.67502,-1.14515 -12.24539,-3.98339 -6.5821,-4.08754 2.61995,-0.0482 2.55132,-0.38062 -0.62625,-3.03344 l -3.56867,-2.97932 4.03215,-1.83717 c 4.87985,-2.22341 4.70119,-7.96703 -0.42296,-13.59674 -1.85745,-2.0407 -4.07709,-5.90617 -4.93254,-8.58994 -0.85545,-2.68377 -3.14008,-5.67685 -5.07696,-6.65129 -1.93688,-0.97444 -3.09314,-2.20017 -2.56946,-2.72384 0.52367,-0.52368 0.45466,-2.51955 -0.15337,-4.43527 -0.87604,-2.76016 -2.17292,-3.37662 -6.24799,-2.96995 -4.97864,0.49685 -5.12463,0.33187 -4.58229,-5.1787 0.30809,-3.13054 1.56282,-8.6092 2.78827,-12.17481 1.43023,-4.1614 1.66651,-7.04451 0.65983,-8.05119 -1.00667,-1.00668 1.43058,-2.33573 6.80614,-3.71144 7.3599,-1.88353 8.8637,-1.82257 12.41329,0.50321 2.61116,1.7109 5.92396,2.34047 9.37158,1.781 4.3985,-0.71378 6.46612,0.10479 11.8027,4.6727 3.5585,3.04595 8.42929,6.28301 10.82398,7.19347 6.3791,2.42533 19.05101,1.73141 24.40697,-1.06192 0.91978,-0.60162 3.58991,-2.34119 6.64979,-2.30942 3.05988,0.0318 6.50951,1.83488 8.98828,0.31862 5.190504,-3.17503 -0.54852,-10.6498 0.49022,-13.80367 0,0 2.181731,-1.41835 4.596788,-2.45248 2.415057,-1.03414 7.926031,-0.53392 8.859316,-0.14717 1.86657,0.7735 3.558208,4.85765 0.91797,12.08864 -3.372658,5.13068 -5.61005,6.30319 -9.880729,7.82382 -4.270675,1.52062 -8.274385,1.95172 -10.579175,2.72427 z"
         style="fill:#a7ac93;fill-opacity:1"
         sodipodi:nodetypes="cssssssssssssssssssssscsssscsssssssssscssssscsc" />
    </g>
  </g>
  <g
     inkscape:groupmode="layer"
     id="layer32"
     inkscape:label="Khoozestan"
     style="display:inline"
     transform="translate(307.84898,40.782505)"
     sodipodi:insensitive="true">
    <path
       style="fill:#c4c8b7;fill-opacity:1"
       d="m -17.548288,737.60982 c -3.198609,-1.79003 -8.250417,-12.00921 -6.964927,-14.08918 1.416465,-2.29189 -8.65471,-15.31589 -11.113756,-14.37228 -1.192211,0.4575 -2.927532,-0.93112 -3.939701,-3.15259 -0.994932,-2.18365 -3.725325,-4.69884 -6.067543,-5.58936 l -4.258578,-1.61911 0.578904,-19.8997 0.578904,-19.8997 -10.979049,-0.48095 -10.97905,-0.48094 0,-15.42669 c 0,-15.15508 2.033807,-23.11137 10.000092,-39.12054 1.644935,-3.30568 0.25521,-6.92764 -5.537284,-14.43149 -0.690566,-0.89459 -3.018838,-4.32088 -5.173939,-7.61397 l -3.918364,-5.98745 5.103328,-3.93556 c 4.332102,-3.3408 5.040566,-4.86747 4.688027,-10.10218 -0.285632,-4.24122 0.558611,-7.23716 2.703918,-9.59531 1.71557,-1.88577 3.98298,-6.1277 5.038686,-9.42652 1.055708,-3.29881 3.473202,-7.97309 5.372212,-10.38729 1.899007,-2.4142 5.094098,-9.08672 7.1002,-14.82783 5.077003,-14.52949 6.18786,-15.58016 15.172088,-14.35001 5.072114,0.69449 9.354587,0.21349 13.480777,-1.51412 7.6067281,-3.18489 6.8741669,-3.28815 11.8297128,1.6674 3.2288652,3.22886 6.0120738,4.26485 12.043225,4.48283 6.5711902,0.2375 8.9375432,1.27155 14.5843262,6.37308 5.911929,5.34107 7.749902,6.08958 14.952996,6.08958 7.725124,0 8.31709,0.29987 9.973825,5.05239 1.632093,4.68182 2.19254,4.98384 7.641387,4.11788 8.343876,-1.32607 10.967218,0.66653 8.607747,6.53814 -2.507938,6.24107 -0.397753,14.4532 5.97414,23.24934 2.818034,3.89018 5.123698,7.99608 5.123698,9.12422 0,1.12814 2.1459,3.85681 4.768666,6.06373 2.995532,2.52057 5.198831,6.30552 5.925546,10.17925 0.773787,4.12465 3.423495,8.4333 8.001808,13.01162 9.134906,9.13489 9.757126,12.29212 3.880012,19.68751 -2.616771,3.29277 -5.174385,7.64682 -5.683585,9.67566 -0.635907,2.53369 -2.998371,4.35917 -7.544339,5.82957 -3.64018,1.17742 -7.98071,3.98375 -9.645624,6.23628 -2.77166,3.7499 -2.835064,4.73367 -0.75131,11.65745 1.251695,4.15906 1.913604,9.45667 1.470914,11.77245 -0.442691,2.3158 0.0803,5.27712 1.1622,6.58073 1.7214,2.07416 2.429293,2.06737 5.66761,-0.0545 3.438459,-2.25296 3.887787,-2.13886 6.344882,1.61114 1.454391,2.21969 5.943504,5.96924 9.975792,8.3323 4.032274,2.36309 7.331414,4.84645 7.331414,5.51858 0,0.67214 -1.16472,3.55684 -2.58829,6.41041 -2.36669,4.74416 -2.36669,5.52653 0,9.13857 1.42357,2.17262 2.58829,6.95137 2.58829,10.61944 l 0,6.66922 -10.165782,-0.29537 c -13.86907,-0.40295 -20.201175,1.6284 -32.554486,10.44354 -5.805207,4.14253 -11.333699,7.53185 -12.285535,7.53185 -2.862325,0 -3.957043,-3.24149 -1.922596,-5.69284 3.157701,-3.8048 0.278829,-5.69284 -8.680404,-5.69284 -6.475619,0 -9.148891,-0.77138 -11.273769,-3.25305 -1.531942,-1.78918 -4.128799,-3.25305 -5.770793,-3.25305 -4.208932,0 -10.391823,-6.99821 -9.117301,-10.31956 1.714811,-4.46873 -5.5809301,-3.37234 -7.6406323,1.14821 -1.3514348,2.96607 -1.1582669,4.98517 0.848134,8.86512 2.7381733,5.29504 3.2486047,9.73077 1.6108624,13.99866 -0.6877781,1.79232 -3.1021263,2.57283 -7.95860875,2.57283 -4.38043405,0 -7.28708945,0.82286 -7.82095095,2.21409 -1.1210748,2.92147 -6.5002184,4.2409 -9.7881264,2.4009 z"
       id="path3871"
       inkscape:connector-curvature="0" />
  </g>
</svg>
